<svg width="262" height="180" viewBox="0 0 262 180" fill="none" xmlns="http://www.w3.org/2000/svg">
<g clip-path="url(#clip0_1712_913)">
<g filter="url(#filter0_bii_1712_913)">
<rect width="91.6369" height="145.379" rx="7.26945" transform="matrix(0.285354 -0.958422 0.824126 0.566406 0 91.9688)" fill="#070707" fill-opacity="0.7"/>
<rect width="91.6369" height="145.379" rx="7.26945" transform="matrix(0.285354 -0.958422 0.824126 0.566406 0 91.9688)" fill="url(#paint0_radial_1712_913)"/>
</g>
<rect opacity="0.48" width="19.0177" height="19.0176" rx="9.50882" transform="matrix(0.824126 0.566406 -0.285354 0.958422 112.312 73.7266)" fill="#3A3A3A"/>
<rect opacity="0.7" width="19.0177" height="19.0176" rx="9.50882" transform="matrix(0.824126 0.566406 -0.285354 0.958422 121.773 80.2266)" fill="#040404"/>
<g filter="url(#filter1_i_1712_913)">
<rect width="19.2994" height="13.8054" rx="3.39241" transform="matrix(0.824126 0.566406 -0.285354 0.958422 31.2773 43.1641)" fill="url(#paint1_linear_1712_913)"/>
</g>
<path d="M29.8969 47.727L35.3055 51.4441C36.012 50.4564 37.7252 48.598 38.9254 49.066C39.2882 49.5181 40.0727 50.7872 40.3079 52.2465M28.6341 51.9684L34.0426 55.6856C33.4173 57.7861 34.5717 60.4286 35.2271 61.4873C36.7331 61.906 38.5095 60.1613 39.2095 59.2366L44.5576 62.9123M45.5197 59.6807L40.1716 56.005C40.0869 55.3115 40.1106 53.8626 40.8832 53.615" stroke="url(#paint2_linear_1712_913)" stroke-width="0.290778"/>
<path d="M50.4715 63.7121C50.5444 64.2501 50.5178 65.4354 49.8283 65.8723M51.9797 63.8135C52.079 64.6543 51.9969 66.574 50.8742 67.5264M53.3528 63.7813C53.4722 64.907 53.3278 67.5293 51.7951 69.0132M54.7628 63.9778C54.9417 65.3341 54.8042 68.5359 52.8232 70.4923" stroke="white" stroke-width="1.06619" stroke-linecap="round" stroke-linejoin="round"/>
<path d="M18.7548 95.4651C17.3522 94.5012 16.7988 92.8062 17.3376 90.9964C17.8753 89.1905 19.0852 88.7074 20.4811 89.6668C21.6399 90.4632 22.2671 91.9236 21.9705 93.2308L20.9887 92.556C21.0998 91.8043 20.7798 91.0417 20.192 90.6377C19.4306 90.1144 18.7189 90.5188 18.3674 91.6995C18.0112 92.8956 18.2757 93.9663 19.0472 94.4965C19.6449 94.9074 20.1971 94.7956 20.5017 94.205L21.4835 94.8798C20.9977 96.0523 19.9369 96.2776 18.7548 95.4651ZM23.9329 93.2602L23.401 95.0467L24.2693 95.6435C24.7769 95.9923 25.1747 95.8587 25.34 95.3033C25.5019 94.7596 25.2921 94.1944 24.7911 93.8501L23.9329 93.2602ZM23.1478 95.8972L22.5372 97.9478L21.5287 97.2547L23.1973 91.6505L25.1709 93.007C26.2796 93.769 26.7118 94.8847 26.3822 95.9915C26.1683 96.71 25.6627 97.1111 25.0332 96.9825L25.3858 99.9056L24.2437 99.1207L23.9559 96.4527L23.1478 95.8972ZM29.3918 101.489L29.1027 102.46L25.9101 100.266L27.5787 94.6618L30.7712 96.856L30.4833 97.823L28.2993 96.322L27.8969 97.6735L29.9574 99.0896L29.6891 99.9906L27.6286 98.5745L27.2077 99.9882L29.3918 101.489ZM31.4992 97.3563L33.3393 98.621C34.7853 99.6148 35.3385 101.202 34.8089 102.981C34.2794 104.759 33.1167 105.219 31.6708 104.225L29.8307 102.96L31.4992 97.3563ZM32.2198 99.0165L31.1283 102.683L31.8396 103.172C32.7413 103.791 33.4185 103.489 33.7792 102.278C34.1284 101.105 33.8195 100.116 32.9311 99.5054L32.2198 99.0165ZM35.628 106.945L34.6195 106.252L36.2881 100.648L37.2966 101.341L35.628 106.945ZM38.5902 108.981L37.5816 108.288L38.9623 103.65L37.5697 102.693L37.8576 101.726L41.6546 104.336L41.3667 105.303L39.9708 104.344L38.5902 108.981Z" fill="white"/>
</g>
<g clip-path="url(#clip1_1712_913)">
<g filter="url(#filter2_bii_1712_913)">
<rect width="94.2229" height="149.482" rx="7.26945" transform="matrix(-0.475931 -0.879483 0.760406 -0.649448 148.336 179.938)" fill="#070707" fill-opacity="0.7"/>
<rect width="94.2229" height="149.482" rx="7.26945" transform="matrix(-0.475931 -0.879483 0.760406 -0.649448 148.336 179.938)" fill="url(#paint3_radial_1712_913)"/>
</g>
<rect opacity="0.48" width="19.5543" height="19.5543" rx="9.77717" transform="matrix(0.760406 -0.649448 0.475931 0.879483 192.062 33.3047)" fill="#3A3A3A"/>
<rect opacity="0.7" width="19.5543" height="19.5543" rx="9.77717" transform="matrix(0.760406 -0.649448 0.475931 0.879483 201.039 25.6406)" fill="#040404"/>
<g filter="url(#filter3_i_1712_913)">
<rect width="19.844" height="14.195" rx="3.39241" transform="matrix(0.760406 -0.649448 0.475931 0.879483 131.729 113.602)" fill="url(#paint4_linear_1712_913)"/>
</g>
<path d="M134.049 117.936L139.18 113.554C138.88 112.122 138.507 108.964 139.411 107.784C139.888 107.608 141.113 107.398 142.191 107.964M136.214 121.938L141.346 117.556C142.418 119.538 144.731 119.68 145.753 119.504C146.776 117.924 146.509 114.756 146.248 113.369L151.321 109.036M149.671 105.987L144.598 110.32C144.099 110.018 143.157 109.145 143.377 108.065" stroke="url(#paint5_linear_1712_913)" stroke-width="0.290778"/>
<path d="M154.782 102.344C155.172 102.57 155.94 103.293 155.885 104.382M155.597 100.577C156.2 100.947 157.423 102.165 157.493 104.08M156.257 98.8953C157.058 99.407 158.712 101.111 158.929 103.832M157.086 97.3025C158.068 97.8766 160.108 99.9096 160.413 103.449" stroke="white" stroke-width="1.06619" stroke-linecap="round" stroke-linejoin="round"/>
<path d="M159.771 159.122C158.477 160.228 157.125 159.918 156.226 158.258C155.329 156.6 155.604 154.902 156.892 153.802C157.961 152.888 159.199 152.978 159.893 154.068L158.987 154.842C158.559 154.285 157.916 154.229 157.374 154.693C156.672 155.293 156.587 156.36 157.173 157.443C157.767 158.541 158.581 158.837 159.292 158.229C159.844 157.758 160.039 157.044 159.808 156.35L160.714 155.577C161.23 156.814 160.862 158.191 159.771 159.122ZM160.859 151.774L161.746 153.413L162.547 152.729C163.015 152.329 163.122 151.785 162.846 151.275C162.576 150.776 162.113 150.703 161.651 151.097L160.859 151.774ZM162.168 154.194L163.187 156.075L162.256 156.87L159.473 151.727L161.294 150.172C162.317 149.298 163.24 149.422 163.79 150.438C164.146 151.097 164.159 151.92 163.773 152.588L165.815 153.83L164.761 154.73L162.914 153.557L162.168 154.194ZM168.762 150.01L169.244 150.901L166.299 153.417L163.516 148.275L166.461 145.759L166.942 146.646L164.926 148.367L165.598 149.608L167.499 147.984L167.946 148.811L166.045 150.434L166.747 151.732L168.762 150.01ZM167.133 145.185L168.831 143.735C170.165 142.596 171.448 142.844 172.332 144.476C173.215 146.108 172.948 147.738 171.614 148.878L169.916 150.328L167.133 145.185ZM168.544 145.278L170.364 148.642L171.021 148.081C171.853 147.371 171.986 146.402 171.385 145.29C170.802 144.214 170.02 144.017 169.2 144.717L168.544 145.278ZM175.265 145.759L174.335 146.554L171.552 141.411L172.482 140.617L175.265 145.759ZM177.998 143.425L177.068 144.22L174.765 139.964L173.48 141.062L173 140.174L176.503 137.182L176.984 138.07L175.696 139.17L177.998 143.425Z" fill="white"/>
</g>
<defs>
<filter id="filter0_bii_1712_913" x="-22.5069" y="-17.0987" width="190.975" height="212.65" filterUnits="userSpaceOnUse" color-interpolation-filters="sRGB">
<feFlood flood-opacity="0" result="BackgroundImageFix"/>
<feGaussianBlur in="BackgroundImageFix" stdDeviation="12.1157"/>
<feComposite in2="SourceAlpha" operator="in" result="effect1_backgroundBlur_1712_913"/>
<feBlend mode="normal" in="SourceGraphic" in2="effect1_backgroundBlur_1712_913" result="shape"/>
<feColorMatrix in="SourceAlpha" type="matrix" values="0 0 0 0 0 0 0 0 0 0 0 0 0 0 0 0 0 0 127 0" result="hardAlpha"/>
<feOffset dx="-0.193852" dy="-0.193852"/>
<feGaussianBlur stdDeviation="0.145389"/>
<feComposite in2="hardAlpha" operator="arithmetic" k2="-1" k3="1"/>
<feColorMatrix type="matrix" values="0 0 0 0 0 0 0 0 0 0 0 0 0 0 0 0 0 0 0.36 0"/>
<feBlend mode="normal" in2="shape" result="effect2_innerShadow_1712_913"/>
<feColorMatrix in="SourceAlpha" type="matrix" values="0 0 0 0 0 0 0 0 0 0 0 0 0 0 0 0 0 0 127 0" result="hardAlpha"/>
<feOffset dx="0.48463" dy="0.387704"/>
<feGaussianBlur stdDeviation="0.193852"/>
<feComposite in2="hardAlpha" operator="arithmetic" k2="-1" k3="1"/>
<feColorMatrix type="matrix" values="0 0 0 0 1 0 0 0 0 1 0 0 0 0 1 0 0 0 0.25 0"/>
<feBlend mode="normal" in2="effect2_innerShadow_1712_913" result="effect3_innerShadow_1712_913"/>
</filter>
<filter id="filter1_i_1712_913" x="28.1426" y="44.5625" width="18.2363" height="21.3672" filterUnits="userSpaceOnUse" color-interpolation-filters="sRGB">
<feFlood flood-opacity="0" result="BackgroundImageFix"/>
<feBlend mode="normal" in="SourceGraphic" in2="BackgroundImageFix" result="shape"/>
<feColorMatrix in="SourceAlpha" type="matrix" values="0 0 0 0 0 0 0 0 0 0 0 0 0 0 0 0 0 0 127 0" result="hardAlpha"/>
<feOffset dx="-0.290778" dy="-0.290778"/>
<feComposite in2="hardAlpha" operator="arithmetic" k2="-1" k3="1"/>
<feColorMatrix type="matrix" values="0 0 0 0 0 0 0 0 0 0 0 0 0 0 0 0 0 0 0.25 0"/>
<feBlend mode="normal" in2="shape" result="effect1_innerShadow_1712_913"/>
</filter>
<filter id="filter2_bii_1712_913" x="81.7255" y="-21.0752" width="202.043" height="222.08" filterUnits="userSpaceOnUse" color-interpolation-filters="sRGB">
<feFlood flood-opacity="0" result="BackgroundImageFix"/>
<feGaussianBlur in="BackgroundImageFix" stdDeviation="12.1157"/>
<feComposite in2="SourceAlpha" operator="in" result="effect1_backgroundBlur_1712_913"/>
<feBlend mode="normal" in="SourceGraphic" in2="effect1_backgroundBlur_1712_913" result="shape"/>
<feColorMatrix in="SourceAlpha" type="matrix" values="0 0 0 0 0 0 0 0 0 0 0 0 0 0 0 0 0 0 127 0" result="hardAlpha"/>
<feOffset dx="-0.193852" dy="-0.193852"/>
<feGaussianBlur stdDeviation="0.145389"/>
<feComposite in2="hardAlpha" operator="arithmetic" k2="-1" k3="1"/>
<feColorMatrix type="matrix" values="0 0 0 0 0 0 0 0 0 0 0 0 0 0 0 0 0 0 0.36 0"/>
<feBlend mode="normal" in2="shape" result="effect2_innerShadow_1712_913"/>
<feColorMatrix in="SourceAlpha" type="matrix" values="0 0 0 0 0 0 0 0 0 0 0 0 0 0 0 0 0 0 127 0" result="hardAlpha"/>
<feOffset dx="0.48463" dy="0.387704"/>
<feGaussianBlur stdDeviation="0.193852"/>
<feComposite in2="hardAlpha" operator="arithmetic" k2="-1" k3="1"/>
<feColorMatrix type="matrix" values="0 0 0 0 1 0 0 0 0 1 0 0 0 0 1 0 0 0 0.25 0"/>
<feBlend mode="normal" in2="effect2_innerShadow_1712_913" result="effect3_innerShadow_1712_913"/>
</filter>
<filter id="filter3_i_1712_913" x="132.879" y="102.195" width="19.5449" height="22.4141" filterUnits="userSpaceOnUse" color-interpolation-filters="sRGB">
<feFlood flood-opacity="0" result="BackgroundImageFix"/>
<feBlend mode="normal" in="SourceGraphic" in2="BackgroundImageFix" result="shape"/>
<feColorMatrix in="SourceAlpha" type="matrix" values="0 0 0 0 0 0 0 0 0 0 0 0 0 0 0 0 0 0 127 0" result="hardAlpha"/>
<feOffset dx="-0.290778" dy="-0.290778"/>
<feComposite in2="hardAlpha" operator="arithmetic" k2="-1" k3="1"/>
<feColorMatrix type="matrix" values="0 0 0 0 0 0 0 0 0 0 0 0 0 0 0 0 0 0 0.25 0"/>
<feBlend mode="normal" in2="shape" result="effect1_innerShadow_1712_913"/>
</filter>
<radialGradient id="paint0_radial_1712_913" cx="0" cy="0" r="1" gradientUnits="userSpaceOnUse" gradientTransform="translate(-2.85264 -2.04263) rotate(60.0023) scale(159.407 100.479)">
<stop stop-color="white" stop-opacity="0.3"/>
<stop offset="1" stop-color="white" stop-opacity="0"/>
</radialGradient>
<linearGradient id="paint1_linear_1712_913" x1="0" y1="0" x2="17.292" y2="13.8054" gradientUnits="userSpaceOnUse">
<stop stop-color="#ABABAB"/>
<stop offset="0.3125" stop-color="white"/>
<stop offset="0.630208" stop-color="#BDBDBD"/>
<stop offset="1" stop-color="#5E5E5E"/>
</linearGradient>
<linearGradient id="paint2_linear_1712_913" x1="31.6381" y1="44.3016" x2="44.4635" y2="64.6456" gradientUnits="userSpaceOnUse">
<stop stop-color="#7D7D7D"/>
<stop offset="0.494792" stop-color="white"/>
<stop offset="1" stop-color="#1C1C1C"/>
</linearGradient>
<radialGradient id="paint3_radial_1712_913" cx="0" cy="0" r="1" gradientUnits="userSpaceOnUse" gradientTransform="translate(-2.93315 -2.10027) rotate(60.0023) scale(163.906 103.315)">
<stop stop-color="white" stop-opacity="0.3"/>
<stop offset="1" stop-color="white" stop-opacity="0"/>
</radialGradient>
<linearGradient id="paint4_linear_1712_913" x1="0" y1="0" x2="17.78" y2="14.195" gradientUnits="userSpaceOnUse">
<stop stop-color="#ABABAB"/>
<stop offset="0.3125" stop-color="white"/>
<stop offset="0.630208" stop-color="#BDBDBD"/>
<stop offset="1" stop-color="#5E5E5E"/>
</linearGradient>
<linearGradient id="paint5_linear_1712_913" x1="132.658" y1="113.831" x2="152.175" y2="114.835" gradientUnits="userSpaceOnUse">
<stop stop-color="#7D7D7D"/>
<stop offset="0.494792" stop-color="white"/>
<stop offset="1" stop-color="#1C1C1C"/>
</linearGradient>
<clipPath id="clip0_1712_913">
<rect width="145.379" height="91.6369" fill="white" transform="matrix(0.824126 0.566406 -0.285354 0.958422 26.1484 4.14062)"/>
</clipPath>
<clipPath id="clip1_1712_913">
<rect width="149.482" height="94.2229" fill="white" transform="matrix(0.760406 -0.649448 0.475931 0.879483 103.492 97.0703)"/>
</clipPath>
</defs>
</svg>
