<svg width="45" height="45" viewBox="0 0 45 45" fill="none" xmlns="http://www.w3.org/2000/svg">
<mask id="path-1-inside-1_3140_1442" fill="white">
<path d="M36.0415 8.95846L35.9888 7.56941C35.8305 3.32319 32.3814 0 28.141 0C26.4092 0 24.774 0.547991 23.4084 1.58245L22.5 2.26524L21.5916 1.58245C20.226 0.548013 18.5908 0 16.8589 0C12.6127 0 9.1695 3.32312 9.01121 7.56941L8.95846 8.95846L7.56941 9.01121C3.32319 9.16946 0 12.6186 0 16.8589C0 18.585 0.547991 20.226 1.58245 21.5916L2.26524 22.5L1.58245 23.4084C0.548013 24.774 0 26.4092 0 28.1411C0 32.3873 3.32312 35.8305 7.56941 35.9888L8.95846 36.0415L9.01121 37.4306C9.16946 41.6768 12.6186 45 16.8589 45C18.5908 45 20.226 44.452 21.5916 43.4175L22.5 42.7348L23.4084 43.4175C24.774 44.452 26.4092 45 28.141 45C32.3873 45 35.8305 41.6769 35.9888 37.4306L36.0415 36.0415L37.4306 35.9888C41.6768 35.8305 45 32.3814 45 28.1411C45 26.415 44.452 24.774 43.4175 23.4084L42.7348 22.5L43.4175 21.5916C44.452 20.226 45 18.5908 45 16.8589C45 12.6127 41.6769 9.1695 37.4306 9.01121L36.0415 8.95846ZM13.6469 4.21704C14.6959 3.29393 16.0938 2.8661 17.4887 3.03902C18.5612 3.17382 19.5663 3.6925 20.3986 4.52477L21.3509 5.47713C21.9898 6.11597 23.0155 6.11597 23.6455 5.47713L24.5978 4.52477C25.4301 3.69251 26.444 3.17383 27.5077 3.03902C28.9027 2.86612 30.3063 3.29396 31.3495 4.21704C32.3986 5.14015 32.9994 6.47639 32.9994 7.87129C32.9994 9.13138 32.5129 10.3328 31.6279 11.2471L31.5312 11.338L23.9851 18.8841C23.5865 19.2827 23.0561 19.4995 22.4935 19.4995C21.9308 19.4995 21.3975 19.2827 21.0019 18.8841L13.4235 11.3057C12.4857 10.3387 11.9904 9.15186 11.9904 7.87128C11.9904 6.47638 12.5912 5.14892 13.6403 4.21703L13.6469 4.21704ZM11.2469 31.6222C10.3238 32.5072 9.12525 33.0024 7.86223 33.0024C6.46733 33.0024 5.13987 32.4017 4.20798 31.3526C3.28487 30.3035 2.85704 28.9057 3.02996 27.5108C3.16476 26.4383 3.68344 25.4332 4.51571 24.6009L5.46808 23.6485C6.10691 23.0097 6.10691 21.984 5.46808 21.354L4.51571 20.4016C3.6893 19.5752 3.16477 18.5496 3.02996 17.4917C2.8512 16.0968 3.27611 14.7019 4.20798 13.6499C5.13109 12.6009 6.46733 12.0001 7.86223 12.0001C9.12232 12.0001 10.3238 12.4866 11.2381 13.3715L11.3289 13.4682L18.8751 21.0144C19.7015 21.8408 19.7015 23.1741 18.8751 23.9918L11.2442 31.6287L11.2469 31.6222ZM31.3527 40.7828C30.3095 41.7059 28.9058 42.1337 27.5109 41.9608C26.4384 41.826 25.4332 41.3073 24.601 40.4751L23.6486 39.5227C23.0098 38.8839 21.9841 38.8839 21.3541 39.5227L20.4017 40.4751C19.5695 41.3073 18.5556 41.826 17.4918 41.9608C17.2808 41.9843 17.0874 41.9608 16.8706 41.9989C15.6867 41.9989 14.5379 41.5711 13.6529 40.7828C12.6039 39.8597 12.0031 38.5234 12.0031 37.1285C12.0031 35.8684 12.4896 34.667 13.3745 33.7527L13.4712 33.6618L21.0174 26.1157C21.4013 25.7318 21.9464 25.5091 22.509 25.5091C23.0716 25.5091 23.6197 25.7259 24.0006 26.1157L31.579 33.6941C32.5168 34.6612 33.012 35.848 33.012 37.1285C33.012 38.5234 32.4113 39.8509 31.3622 40.7828L31.3527 40.7828ZM40.7826 13.6469C41.7057 14.696 42.1335 16.0938 41.9606 17.4887C41.8258 18.5613 41.3071 19.5664 40.4749 20.3986L39.5225 21.351C38.8837 21.9898 38.8837 23.0155 39.5225 23.6455L40.4749 24.5979C41.3013 25.4243 41.8258 26.45 41.9606 27.5078C42.1394 28.9027 41.7145 30.2976 40.7826 31.3496C39.8595 32.3987 38.5232 32.9994 37.1283 32.9994C35.8682 32.9994 34.6668 32.513 33.7525 31.628L33.6616 31.5313L26.1155 23.9851C25.2891 23.1587 25.2891 21.8254 26.1155 20.999L33.6939 13.4206C34.661 12.4829 35.8478 11.9876 37.1283 11.9876C38.5232 11.9876 39.8507 12.5883 40.7826 13.6374L40.7826 13.6469Z"/>
</mask>
<path d="M36.0415 8.95846L35.9888 7.56941C35.8305 3.32319 32.3814 0 28.141 0C26.4092 0 24.774 0.547991 23.4084 1.58245L22.5 2.26524L21.5916 1.58245C20.226 0.548013 18.5908 0 16.8589 0C12.6127 0 9.1695 3.32312 9.01121 7.56941L8.95846 8.95846L7.56941 9.01121C3.32319 9.16946 0 12.6186 0 16.8589C0 18.585 0.547991 20.226 1.58245 21.5916L2.26524 22.5L1.58245 23.4084C0.548013 24.774 0 26.4092 0 28.1411C0 32.3873 3.32312 35.8305 7.56941 35.9888L8.95846 36.0415L9.01121 37.4306C9.16946 41.6768 12.6186 45 16.8589 45C18.5908 45 20.226 44.452 21.5916 43.4175L22.5 42.7348L23.4084 43.4175C24.774 44.452 26.4092 45 28.141 45C32.3873 45 35.8305 41.6769 35.9888 37.4306L36.0415 36.0415L37.4306 35.9888C41.6768 35.8305 45 32.3814 45 28.1411C45 26.415 44.452 24.774 43.4175 23.4084L42.7348 22.5L43.4175 21.5916C44.452 20.226 45 18.5908 45 16.8589C45 12.6127 41.6769 9.1695 37.4306 9.01121L36.0415 8.95846ZM13.6469 4.21704C14.6959 3.29393 16.0938 2.8661 17.4887 3.03902C18.5612 3.17382 19.5663 3.6925 20.3986 4.52477L21.3509 5.47713C21.9898 6.11597 23.0155 6.11597 23.6455 5.47713L24.5978 4.52477C25.4301 3.69251 26.444 3.17383 27.5077 3.03902C28.9027 2.86612 30.3063 3.29396 31.3495 4.21704C32.3986 5.14015 32.9994 6.47639 32.9994 7.87129C32.9994 9.13138 32.5129 10.3328 31.6279 11.2471L31.5312 11.338L23.9851 18.8841C23.5865 19.2827 23.0561 19.4995 22.4935 19.4995C21.9308 19.4995 21.3975 19.2827 21.0019 18.8841L13.4235 11.3057C12.4857 10.3387 11.9904 9.15186 11.9904 7.87128C11.9904 6.47638 12.5912 5.14892 13.6403 4.21703L13.6469 4.21704ZM11.2469 31.6222C10.3238 32.5072 9.12525 33.0024 7.86223 33.0024C6.46733 33.0024 5.13987 32.4017 4.20798 31.3526C3.28487 30.3035 2.85704 28.9057 3.02996 27.5108C3.16476 26.4383 3.68344 25.4332 4.51571 24.6009L5.46808 23.6485C6.10691 23.0097 6.10691 21.984 5.46808 21.354L4.51571 20.4016C3.6893 19.5752 3.16477 18.5496 3.02996 17.4917C2.8512 16.0968 3.27611 14.7019 4.20798 13.6499C5.13109 12.6009 6.46733 12.0001 7.86223 12.0001C9.12232 12.0001 10.3238 12.4866 11.2381 13.3715L11.3289 13.4682L18.8751 21.0144C19.7015 21.8408 19.7015 23.1741 18.8751 23.9918L11.2442 31.6287L11.2469 31.6222ZM31.3527 40.7828C30.3095 41.7059 28.9058 42.1337 27.5109 41.9608C26.4384 41.826 25.4332 41.3073 24.601 40.4751L23.6486 39.5227C23.0098 38.8839 21.9841 38.8839 21.3541 39.5227L20.4017 40.4751C19.5695 41.3073 18.5556 41.826 17.4918 41.9608C17.2808 41.9843 17.0874 41.9608 16.8706 41.9989C15.6867 41.9989 14.5379 41.5711 13.6529 40.7828C12.6039 39.8597 12.0031 38.5234 12.0031 37.1285C12.0031 35.8684 12.4896 34.667 13.3745 33.7527L13.4712 33.6618L21.0174 26.1157C21.4013 25.7318 21.9464 25.5091 22.509 25.5091C23.0716 25.5091 23.6197 25.7259 24.0006 26.1157L31.579 33.6941C32.5168 34.6612 33.012 35.848 33.012 37.1285C33.012 38.5234 32.4113 39.8509 31.3622 40.7828L31.3527 40.7828ZM40.7826 13.6469C41.7057 14.696 42.1335 16.0938 41.9606 17.4887C41.8258 18.5613 41.3071 19.5664 40.4749 20.3986L39.5225 21.351C38.8837 21.9898 38.8837 23.0155 39.5225 23.6455L40.4749 24.5979C41.3013 25.4243 41.8258 26.45 41.9606 27.5078C42.1394 28.9027 41.7145 30.2976 40.7826 31.3496C39.8595 32.3987 38.5232 32.9994 37.1283 32.9994C35.8682 32.9994 34.6668 32.513 33.7525 31.628L33.6616 31.5313L26.1155 23.9851C25.2891 23.1587 25.2891 21.8254 26.1155 20.999L33.6939 13.4206C34.661 12.4829 35.8478 11.9876 37.1283 11.9876C38.5232 11.9876 39.8507 12.5883 40.7826 13.6374L40.7826 13.6469Z" fill="url(#paint0_linear_3140_1442)"/>
<path d="M36.0415 8.95846L35.9888 7.56941C35.8305 3.32319 32.3814 0 28.141 0C26.4092 0 24.774 0.547991 23.4084 1.58245L22.5 2.26524L21.5916 1.58245C20.226 0.548013 18.5908 0 16.8589 0C12.6127 0 9.1695 3.32312 9.01121 7.56941L8.95846 8.95846L7.56941 9.01121C3.32319 9.16946 0 12.6186 0 16.8589C0 18.585 0.547991 20.226 1.58245 21.5916L2.26524 22.5L1.58245 23.4084C0.548013 24.774 0 26.4092 0 28.1411C0 32.3873 3.32312 35.8305 7.56941 35.9888L8.95846 36.0415L9.01121 37.4306C9.16946 41.6768 12.6186 45 16.8589 45C18.5908 45 20.226 44.452 21.5916 43.4175L22.5 42.7348L23.4084 43.4175C24.774 44.452 26.4092 45 28.141 45C32.3873 45 35.8305 41.6769 35.9888 37.4306L36.0415 36.0415L37.4306 35.9888C41.6768 35.8305 45 32.3814 45 28.1411C45 26.415 44.452 24.774 43.4175 23.4084L42.7348 22.5L43.4175 21.5916C44.452 20.226 45 18.5908 45 16.8589C45 12.6127 41.6769 9.1695 37.4306 9.01121L36.0415 8.95846ZM13.6469 4.21704C14.6959 3.29393 16.0938 2.8661 17.4887 3.03902C18.5612 3.17382 19.5663 3.6925 20.3986 4.52477L21.3509 5.47713C21.9898 6.11597 23.0155 6.11597 23.6455 5.47713L24.5978 4.52477C25.4301 3.69251 26.444 3.17383 27.5077 3.03902C28.9027 2.86612 30.3063 3.29396 31.3495 4.21704C32.3986 5.14015 32.9994 6.47639 32.9994 7.87129C32.9994 9.13138 32.5129 10.3328 31.6279 11.2471L31.5312 11.338L23.9851 18.8841C23.5865 19.2827 23.0561 19.4995 22.4935 19.4995C21.9308 19.4995 21.3975 19.2827 21.0019 18.8841L13.4235 11.3057C12.4857 10.3387 11.9904 9.15186 11.9904 7.87128C11.9904 6.47638 12.5912 5.14892 13.6403 4.21703L13.6469 4.21704ZM11.2469 31.6222C10.3238 32.5072 9.12525 33.0024 7.86223 33.0024C6.46733 33.0024 5.13987 32.4017 4.20798 31.3526C3.28487 30.3035 2.85704 28.9057 3.02996 27.5108C3.16476 26.4383 3.68344 25.4332 4.51571 24.6009L5.46808 23.6485C6.10691 23.0097 6.10691 21.984 5.46808 21.354L4.51571 20.4016C3.6893 19.5752 3.16477 18.5496 3.02996 17.4917C2.8512 16.0968 3.27611 14.7019 4.20798 13.6499C5.13109 12.6009 6.46733 12.0001 7.86223 12.0001C9.12232 12.0001 10.3238 12.4866 11.2381 13.3715L11.3289 13.4682L18.8751 21.0144C19.7015 21.8408 19.7015 23.1741 18.8751 23.9918L11.2442 31.6287L11.2469 31.6222ZM31.3527 40.7828C30.3095 41.7059 28.9058 42.1337 27.5109 41.9608C26.4384 41.826 25.4332 41.3073 24.601 40.4751L23.6486 39.5227C23.0098 38.8839 21.9841 38.8839 21.3541 39.5227L20.4017 40.4751C19.5695 41.3073 18.5556 41.826 17.4918 41.9608C17.2808 41.9843 17.0874 41.9608 16.8706 41.9989C15.6867 41.9989 14.5379 41.5711 13.6529 40.7828C12.6039 39.8597 12.0031 38.5234 12.0031 37.1285C12.0031 35.8684 12.4896 34.667 13.3745 33.7527L13.4712 33.6618L21.0174 26.1157C21.4013 25.7318 21.9464 25.5091 22.509 25.5091C23.0716 25.5091 23.6197 25.7259 24.0006 26.1157L31.579 33.6941C32.5168 34.6612 33.012 35.848 33.012 37.1285C33.012 38.5234 32.4113 39.8509 31.3622 40.7828L31.3527 40.7828ZM40.7826 13.6469C41.7057 14.696 42.1335 16.0938 41.9606 17.4887C41.8258 18.5613 41.3071 19.5664 40.4749 20.3986L39.5225 21.351C38.8837 21.9898 38.8837 23.0155 39.5225 23.6455L40.4749 24.5979C41.3013 25.4243 41.8258 26.45 41.9606 27.5078C42.1394 28.9027 41.7145 30.2976 40.7826 31.3496C39.8595 32.3987 38.5232 32.9994 37.1283 32.9994C35.8682 32.9994 34.6668 32.513 33.7525 31.628L33.6616 31.5313L26.1155 23.9851C25.2891 23.1587 25.2891 21.8254 26.1155 20.999L33.6939 13.4206C34.661 12.4829 35.8478 11.9876 37.1283 11.9876C38.5232 11.9876 39.8507 12.5883 40.7826 13.6374L40.7826 13.6469Z" fill="url(#paint1_linear_3140_1442)"/>
<path d="M36.0415 8.95846L35.9888 7.56941C35.8305 3.32319 32.3814 0 28.141 0C26.4092 0 24.774 0.547991 23.4084 1.58245L22.5 2.26524L21.5916 1.58245C20.226 0.548013 18.5908 0 16.8589 0C12.6127 0 9.1695 3.32312 9.01121 7.56941L8.95846 8.95846L7.56941 9.01121C3.32319 9.16946 0 12.6186 0 16.8589C0 18.585 0.547991 20.226 1.58245 21.5916L2.26524 22.5L1.58245 23.4084C0.548013 24.774 0 26.4092 0 28.1411C0 32.3873 3.32312 35.8305 7.56941 35.9888L8.95846 36.0415L9.01121 37.4306C9.16946 41.6768 12.6186 45 16.8589 45C18.5908 45 20.226 44.452 21.5916 43.4175L22.5 42.7348L23.4084 43.4175C24.774 44.452 26.4092 45 28.141 45C32.3873 45 35.8305 41.6769 35.9888 37.4306L36.0415 36.0415L37.4306 35.9888C41.6768 35.8305 45 32.3814 45 28.1411C45 26.415 44.452 24.774 43.4175 23.4084L42.7348 22.5L43.4175 21.5916C44.452 20.226 45 18.5908 45 16.8589C45 12.6127 41.6769 9.1695 37.4306 9.01121L36.0415 8.95846ZM13.6469 4.21704C14.6959 3.29393 16.0938 2.8661 17.4887 3.03902C18.5612 3.17382 19.5663 3.6925 20.3986 4.52477L21.3509 5.47713C21.9898 6.11597 23.0155 6.11597 23.6455 5.47713L24.5978 4.52477C25.4301 3.69251 26.444 3.17383 27.5077 3.03902C28.9027 2.86612 30.3063 3.29396 31.3495 4.21704C32.3986 5.14015 32.9994 6.47639 32.9994 7.87129C32.9994 9.13138 32.5129 10.3328 31.6279 11.2471L31.5312 11.338L23.9851 18.8841C23.5865 19.2827 23.0561 19.4995 22.4935 19.4995C21.9308 19.4995 21.3975 19.2827 21.0019 18.8841L13.4235 11.3057C12.4857 10.3387 11.9904 9.15186 11.9904 7.87128C11.9904 6.47638 12.5912 5.14892 13.6403 4.21703L13.6469 4.21704ZM11.2469 31.6222C10.3238 32.5072 9.12525 33.0024 7.86223 33.0024C6.46733 33.0024 5.13987 32.4017 4.20798 31.3526C3.28487 30.3035 2.85704 28.9057 3.02996 27.5108C3.16476 26.4383 3.68344 25.4332 4.51571 24.6009L5.46808 23.6485C6.10691 23.0097 6.10691 21.984 5.46808 21.354L4.51571 20.4016C3.6893 19.5752 3.16477 18.5496 3.02996 17.4917C2.8512 16.0968 3.27611 14.7019 4.20798 13.6499C5.13109 12.6009 6.46733 12.0001 7.86223 12.0001C9.12232 12.0001 10.3238 12.4866 11.2381 13.3715L11.3289 13.4682L18.8751 21.0144C19.7015 21.8408 19.7015 23.1741 18.8751 23.9918L11.2442 31.6287L11.2469 31.6222ZM31.3527 40.7828C30.3095 41.7059 28.9058 42.1337 27.5109 41.9608C26.4384 41.826 25.4332 41.3073 24.601 40.4751L23.6486 39.5227C23.0098 38.8839 21.9841 38.8839 21.3541 39.5227L20.4017 40.4751C19.5695 41.3073 18.5556 41.826 17.4918 41.9608C17.2808 41.9843 17.0874 41.9608 16.8706 41.9989C15.6867 41.9989 14.5379 41.5711 13.6529 40.7828C12.6039 39.8597 12.0031 38.5234 12.0031 37.1285C12.0031 35.8684 12.4896 34.667 13.3745 33.7527L13.4712 33.6618L21.0174 26.1157C21.4013 25.7318 21.9464 25.5091 22.509 25.5091C23.0716 25.5091 23.6197 25.7259 24.0006 26.1157L31.579 33.6941C32.5168 34.6612 33.012 35.848 33.012 37.1285C33.012 38.5234 32.4113 39.8509 31.3622 40.7828L31.3527 40.7828ZM40.7826 13.6469C41.7057 14.696 42.1335 16.0938 41.9606 17.4887C41.8258 18.5613 41.3071 19.5664 40.4749 20.3986L39.5225 21.351C38.8837 21.9898 38.8837 23.0155 39.5225 23.6455L40.4749 24.5979C41.3013 25.4243 41.8258 26.45 41.9606 27.5078C42.1394 28.9027 41.7145 30.2976 40.7826 31.3496C39.8595 32.3987 38.5232 32.9994 37.1283 32.9994C35.8682 32.9994 34.6668 32.513 33.7525 31.628L33.6616 31.5313L26.1155 23.9851C25.2891 23.1587 25.2891 21.8254 26.1155 20.999L33.6939 13.4206C34.661 12.4829 35.8478 11.9876 37.1283 11.9876C38.5232 11.9876 39.8507 12.5883 40.7826 13.6374L40.7826 13.6469Z" stroke="url(#paint2_linear_3140_1442)" stroke-width="2" mask="url(#path-1-inside-1_3140_1442)"/>
<defs>
<linearGradient id="paint0_linear_3140_1442" x1="35.634" y1="7.87699" x2="5.81534" y2="44.8613" gradientUnits="userSpaceOnUse">
<stop stop-color="#FFC56F"/>
<stop offset="1" stop-color="#6D1400"/>
</linearGradient>
<linearGradient id="paint1_linear_3140_1442" x1="35.634" y1="7.87699" x2="5.81534" y2="44.8613" gradientUnits="userSpaceOnUse">
<stop stop-color="#76AA87"/>
<stop offset="1" stop-color="#006D3A"/>
</linearGradient>
<linearGradient id="paint2_linear_3140_1442" x1="-147.857" y1="8.57143" x2="-147.857" y2="53.5714" gradientUnits="userSpaceOnUse">
<stop stop-color="#BDBDBD"/>
<stop offset="1" stop-color="#BDBDBD" stop-opacity="0"/>
</linearGradient>
</defs>
</svg>
