<svg width="87" height="87" viewBox="0 0 87 87" fill="none" xmlns="http://www.w3.org/2000/svg">
<path d="M76.757 36.0779V33.2639C76.757 14.9153 61.8389 6.50749e-07 43.495 6.50749e-07C25.1475 -0.00359758 10.2331 14.9153 10.2331 33.2639V36.0779C4.40035 37.2545 0 42.4255 0 48.6146V61.4111C0 68.4749 5.73206 74.2076 12.7957 74.2076H17.9125C22.1332 74.2076 25.5875 70.753 25.5875 66.5321V43.5019C25.5875 39.2809 22.1332 35.8264 17.9125 35.8264H15.3542V33.2679C15.3542 17.7373 27.9694 5.12044 43.5 5.12044C59.0306 5.12044 71.6459 17.7364 71.6459 33.2679V35.8264H69.0875C64.8668 35.8264 61.4125 39.2809 61.4125 43.5019V66.5321C61.4125 70.753 64.8668 74.2076 69.0875 74.2076V79.3246C69.0875 80.7316 67.9361 81.8831 66.5292 81.8831H43.5004C42.0935 81.8831 40.942 83.0346 40.942 84.4415C40.942 85.8485 42.0935 87 43.5004 87H66.5292C70.7499 87 74.2043 83.5455 74.2043 79.3245V74.2075C81.2677 74.2075 87 68.4751 87 61.411V48.6145C87 42.4467 82.5994 37.279 76.7669 36.0778L76.757 36.0779ZM20.4662 43.4979V66.5281C20.4662 67.9351 19.3147 69.0866 17.9079 69.0866H12.7911C8.57041 69.0866 5.11609 65.632 5.11609 61.4111V48.6146C5.11609 44.3936 8.57041 40.9391 12.7911 40.9391H17.9079C19.3147 40.9391 20.4662 42.091 20.4662 43.4979ZM81.8776 61.4108C81.8776 65.6318 78.4233 69.0863 74.2026 69.0863H69.0859C67.679 69.0863 66.5275 67.9348 66.5275 66.5278V43.4977C66.5275 42.0907 67.679 40.9392 69.0859 40.9392H74.2026C78.4233 40.9392 81.8776 44.3937 81.8776 48.6147V61.4108Z" fill="black"/>
</svg>
