<svg width="83" height="83" viewBox="0 0 83 83" fill="none" xmlns="http://www.w3.org/2000/svg">
<path d="M15.2274 5.4924L5.47311 15.2835C4.0237 16.7417 3.21188 18.7153 3.21576 20.7713C3.21964 22.8273 4.0389 24.7978 5.4938 26.2505L47.1958 67.7954C47.2471 67.8333 47.3003 67.8685 47.3552 67.9009C47.5592 68.068 47.7954 68.1912 48.0491 68.263C48.1063 68.2894 48.1648 68.3127 48.2245 68.3329L70.2508 72.3332C70.562 72.39 70.8824 72.3703 71.1842 72.2758C71.4861 72.1813 71.7605 72.0149 71.9838 71.7908C72.2071 71.5667 72.3725 71.2917 72.4658 70.9894C72.5592 70.6872 72.5776 70.3667 72.5196 70.0558L68.4363 48.0447C68.416 47.9855 68.3926 47.9275 68.3663 47.8707C68.2937 47.617 68.1694 47.3809 68.0012 47.1775C67.9686 47.1225 67.9331 47.0693 67.8949 47.018L26.1929 5.47311C24.735 4.02384 22.7618 3.21198 20.7061 3.21559C18.6505 3.21921 16.6801 4.03801 15.2274 5.4924ZM15.2563 30.4626L30.4419 15.2196L63.7546 48.4068L48.569 63.6499L15.2563 30.4626ZM8.24027 18.0403L17.9945 8.24914C18.7155 7.52739 19.6934 7.12111 20.7135 7.11945C21.7337 7.11778 22.7128 7.52085 23.4362 8.24024L27.6747 12.4628L12.4891 27.7059L8.25054 23.4833C7.52844 22.7623 7.12183 21.7843 7.1199 20.7639C7.11798 19.7435 7.5209 18.764 8.24027 18.0403ZM68.1644 67.9851L52.5828 65.1553L65.2752 52.4148L68.1644 67.9851Z" fill="black"/>
</svg>
