<svg width="87" height="93" viewBox="0 0 87 93" fill="none" xmlns="http://www.w3.org/2000/svg">
<path d="M85.1952 18.8822L44.8011 0.281913C43.9738 -0.093971 43.026 -0.093971 42.1988 0.281913L1.80463 18.8822C0.639391 19.4208 -0.0752244 20.6143 0.00630963 21.8931L0.511234 29.9842C2.23966 56.7686 18.0709 80.6275 42.1095 92.6745C42.9834 93.1085 44.0166 93.1085 44.8905 92.6745C68.9291 80.6265 84.7606 56.7686 86.4888 29.9842L86.9937 21.8931C87.0753 20.6143 86.3605 19.4208 85.1952 18.8822ZM80.2858 29.5929V29.5968C78.7361 53.6224 64.8122 75.1283 43.5 86.4124C22.1878 75.1283 8.26342 53.6214 6.71427 29.5968L6.3414 23.6254L43.5 6.51315L80.6627 23.6254L80.2858 29.5929ZM40.2178 51.2387L56.6787 32.0809C57.2108 31.4532 57.976 31.0657 58.7994 31.0037C59.6228 30.9378 60.4384 31.2013 61.0638 31.7399C61.693 32.2747 62.0775 33.0381 62.1396 33.8596C62.2018 34.6811 61.9338 35.4948 61.3939 36.1187L42.7504 57.819C42.1911 58.4739 41.3755 58.8653 40.5132 58.8962L40.3928 58.9001C39.5694 58.9001 38.777 58.5746 38.1945 57.9933L25.7655 45.5932C24.5731 44.3764 24.5809 42.4311 25.7849 41.226C26.9928 40.0248 28.9427 40.017 30.1622 41.2066L40.2178 51.2387Z" fill="black"/>
</svg>
