<svg width="199" height="199" viewBox="0 0 199 199" fill="none" xmlns="http://www.w3.org/2000/svg">
<path d="M158.73 39.4538L158.498 33.3363C157.801 14.6356 142.611 0 123.936 0C116.308 0 109.107 2.4134 103.093 6.96924L99.0919 9.97632L95.0912 6.96924C89.0771 2.4135 81.8756 0 74.2482 0C55.5475 0 40.3833 14.6353 39.6861 33.3363L39.4538 39.4538L33.3363 39.6861C14.6356 40.3831 0 55.5733 0 74.2482C0 81.8498 2.4134 89.0771 6.96924 95.0912L9.97632 99.0919L6.96924 103.093C2.4135 109.107 0 116.308 0 123.936C0 142.636 14.6353 157.8 33.3363 158.498L39.4538 158.73L39.6861 164.847C40.3831 183.548 55.5733 198.184 74.2482 198.184C81.8756 198.184 89.0771 195.77 95.0912 191.215L99.0919 188.207L103.093 191.215C109.107 195.77 116.308 198.184 123.936 198.184C142.636 198.184 157.801 183.548 158.498 164.847L158.73 158.73L164.847 158.498C183.548 157.801 198.184 142.611 198.184 123.936C198.184 116.334 195.77 109.107 191.215 103.093L188.207 99.0919L191.215 95.0912C195.77 89.0771 198.184 81.8756 198.184 74.2482C198.184 55.5475 183.549 40.3833 164.847 39.6861L158.73 39.4538ZM60.102 18.5722C64.7221 14.5068 70.8783 12.6225 77.0215 13.3841C81.7451 13.9778 86.1717 16.2621 89.837 19.9275L94.0313 24.1218C96.8448 26.9352 101.362 26.9352 104.137 24.1218L108.331 19.9275C111.996 16.2621 116.462 13.9778 121.146 13.3841C127.29 12.6226 133.472 14.5069 138.066 18.5722C142.686 22.6377 145.332 28.5226 145.332 34.6658C145.332 40.2154 143.19 45.5066 139.292 49.5334L138.866 49.9334L105.632 83.1673C103.877 84.9225 101.541 85.8776 99.0631 85.8776C96.5852 85.8776 94.2365 84.9225 92.494 83.1673L59.118 49.7914C54.9882 45.5323 52.8069 40.3055 52.8069 34.6658C52.8069 28.5225 55.4526 22.6763 60.0728 18.5722L60.102 18.5722ZM49.5321 139.267C45.4667 143.165 40.1884 145.345 34.6259 145.345C28.4827 145.345 22.6364 142.7 18.5323 138.079C14.4669 133.459 12.5826 127.303 13.3442 121.16C13.9379 116.436 16.2222 112.01 19.8876 108.344L24.0819 104.15C26.8953 101.337 26.8953 96.8194 24.0819 94.0448L19.8876 89.8505C16.248 86.2109 13.9379 81.6938 13.3442 77.035C12.5569 70.8917 14.4283 64.7485 18.5323 60.1154C22.5978 55.4953 28.4827 52.8495 34.6259 52.8495C40.1755 52.8495 45.4667 54.9919 49.4935 58.8893L49.8935 59.3153L83.1274 92.5492C86.767 96.1887 86.767 102.061 83.1274 105.662L49.5202 139.295L49.5321 139.267ZM138.08 179.611C133.486 183.676 127.304 185.56 121.16 184.799C116.437 184.205 112.01 181.921 108.345 178.256L104.151 174.061C101.337 171.248 96.8198 171.248 94.0452 174.061L89.8509 178.256C86.1856 181.921 81.7204 184.205 77.0354 184.799C76.1062 184.902 75.2544 184.799 74.2994 184.967C69.0855 184.967 64.0263 183.082 60.1287 179.611C55.5085 175.545 52.8627 169.66 52.8627 163.517C52.8627 157.968 55.0051 152.676 58.9026 148.65L59.3285 148.25L92.5624 115.016C94.2531 113.325 96.6536 112.344 99.1315 112.344C101.609 112.344 104.023 113.299 105.701 115.016L139.077 148.392C143.207 152.651 145.388 157.877 145.388 163.517C145.388 169.66 142.742 175.507 138.122 179.611L138.08 179.611ZM179.61 60.1022C183.675 64.7224 185.56 70.8785 184.798 77.0218C184.204 81.7454 181.92 86.1719 178.255 89.8373L174.06 94.0316C171.247 96.8451 171.247 101.362 174.06 104.137L178.255 108.331C181.894 111.971 184.204 116.488 184.798 121.147C185.585 127.29 183.714 133.433 179.61 138.066C175.544 142.686 169.66 145.332 163.516 145.332C157.967 145.332 152.676 143.19 148.649 139.292L148.249 138.866L115.015 105.633C111.375 101.993 111.375 96.1209 115.015 92.4814L148.391 59.1054C152.65 54.9755 157.877 52.7943 163.516 52.7943C169.66 52.7943 175.506 55.44 179.61 60.0602L179.61 60.1022Z" fill="url(#paint0_linear_3139_1182)"/>
<defs>
<linearGradient id="paint0_linear_3139_1182" x1="156.935" y1="34.6909" x2="25.6112" y2="197.573" gradientUnits="userSpaceOnUse">
<stop stop-color="#76AA87"/>
<stop offset="1" stop-color="#006D3A"/>
</linearGradient>
</defs>
</svg>
