<svg width="264" height="182" viewBox="0 0 264 182" fill="none" xmlns="http://www.w3.org/2000/svg">
<path d="M132 6L132 170" stroke="#DCF472" stroke-width="3"/>
<rect width="264" height="50" rx="16" fill="#DCF472"/>
<path d="M97.9347 32V17.4545H107.288V19.6634H100.57V23.0724H103.375C104.488 23.0724 105.442 23.2547 106.237 23.6193C107.037 23.9792 107.651 24.4882 108.077 25.1463C108.503 25.8045 108.716 26.5786 108.716 27.4688C108.716 28.3636 108.503 29.152 108.077 29.8338C107.651 30.5109 107.037 31.0412 106.237 31.4247C105.442 31.8082 104.488 32 103.375 32H97.9347ZM100.57 29.8409H103.375C103.962 29.8409 104.459 29.7296 104.866 29.5071C105.274 29.2846 105.581 28.991 105.79 28.6264C106.003 28.2618 106.109 27.8665 106.109 27.4403C106.109 26.8248 105.873 26.3016 105.399 25.8707C104.93 25.4351 104.256 25.2173 103.375 25.2173H100.57V29.8409ZM113.386 28.5199L117.754 21.0909H120.396V32H117.91V24.5639L113.556 32H110.907V21.0909H113.386V28.5199ZM122.432 29.0099H124.982C125.006 29.4171 125.188 29.732 125.529 29.9545C125.87 30.1771 126.312 30.2884 126.857 30.2884C127.411 30.2884 127.877 30.1676 128.256 29.9261C128.64 29.6799 128.831 29.3082 128.831 28.8111C128.831 28.5175 128.758 28.2595 128.611 28.0369C128.464 27.8097 128.258 27.6345 127.993 27.5114C127.728 27.3883 127.416 27.3267 127.056 27.3267H125.387V25.5014H127.056C127.591 25.5014 127.996 25.3783 128.27 25.1321C128.55 24.8859 128.689 24.5758 128.689 24.2017C128.689 23.7992 128.542 23.4725 128.249 23.2216C127.96 22.9706 127.56 22.8452 127.049 22.8452C126.537 22.8452 126.111 22.9612 125.77 23.1932C125.434 23.4252 125.259 23.7235 125.245 24.0881H122.709C122.719 23.4536 122.908 22.902 123.277 22.4332C123.651 21.9645 124.153 21.5999 124.783 21.3395C125.417 21.0791 126.132 20.9489 126.928 20.9489C127.78 20.9489 128.516 21.0767 129.137 21.3324C129.757 21.5881 130.235 21.9455 130.571 22.4048C130.908 22.8594 131.076 23.3944 131.076 24.0099C131.076 24.6018 130.891 25.0919 130.522 25.4801C130.152 25.8636 129.655 26.1383 129.03 26.304V26.4176C129.461 26.4413 129.849 26.5644 130.195 26.7869C130.541 27.0047 130.815 27.3007 131.019 27.6747C131.222 28.0488 131.324 28.482 131.324 28.9744C131.324 29.642 131.132 30.2197 130.749 30.7074C130.365 31.1903 129.837 31.562 129.165 31.8224C128.498 32.0829 127.733 32.2131 126.871 32.2131C126.033 32.2131 125.283 32.0876 124.62 31.8366C123.962 31.581 123.438 31.214 123.05 30.7358C122.662 30.2576 122.456 29.6823 122.432 29.0099ZM140.841 25.4801V27.5895H135.032V25.4801H140.841ZM135.827 21.0909V32H133.348V21.0909H135.827ZM142.525 21.0909V32H140.053V21.0909H142.525ZM149.955 32.2131C148.862 32.2131 147.917 31.9858 147.121 31.5312C146.331 31.072 145.722 30.4233 145.296 29.5852C144.87 28.7424 144.657 27.7505 144.657 26.6094C144.657 25.4872 144.87 24.5024 145.296 23.6548C145.727 22.8026 146.328 22.1397 147.1 21.6662C147.872 21.188 148.779 20.9489 149.82 20.9489C150.493 20.9489 151.127 21.0578 151.724 21.2756C152.325 21.4886 152.855 21.8201 153.315 22.2699C153.779 22.7197 154.143 23.2926 154.408 23.9886C154.674 24.6799 154.806 25.5038 154.806 26.4602V27.2486H145.864V25.5156H152.342C152.337 25.0232 152.23 24.5852 152.022 24.2017C151.814 23.8134 151.522 23.508 151.148 23.2855C150.779 23.063 150.348 22.9517 149.856 22.9517C149.33 22.9517 148.869 23.0795 148.471 23.3352C148.073 23.5862 147.763 23.9176 147.54 24.3295C147.323 24.7367 147.211 25.1842 147.207 25.6719V27.1847C147.207 27.8191 147.323 28.3636 147.555 28.8182C147.787 29.268 148.111 29.6136 148.528 29.8551C148.944 30.0919 149.432 30.2102 149.991 30.2102C150.365 30.2102 150.703 30.1581 151.006 30.054C151.309 29.9451 151.572 29.7865 151.795 29.5781C152.017 29.3698 152.185 29.1117 152.299 28.804L154.7 29.0739C154.548 29.7083 154.259 30.2623 153.833 30.7358C153.412 31.2045 152.872 31.5691 152.214 31.8295C151.556 32.0852 150.803 32.2131 149.955 32.2131ZM161.74 32.2131C160.651 32.2131 159.716 31.974 158.934 31.4957C158.158 31.0175 157.559 30.357 157.137 29.5142C156.721 28.6667 156.512 27.6913 156.512 26.5881C156.512 25.4801 156.725 24.5024 157.152 23.6548C157.578 22.8026 158.179 22.1397 158.956 21.6662C159.737 21.188 160.66 20.9489 161.725 20.9489C162.611 20.9489 163.395 21.1122 164.076 21.4389C164.763 21.7609 165.31 22.2178 165.717 22.8097C166.124 23.3968 166.356 24.0833 166.413 24.8693H163.956C163.856 24.3437 163.619 23.9058 163.245 23.5554C162.876 23.2003 162.381 23.0227 161.761 23.0227C161.235 23.0227 160.774 23.1648 160.376 23.4489C159.978 23.7282 159.668 24.1307 159.446 24.6562C159.228 25.1818 159.119 25.8116 159.119 26.5455C159.119 27.2888 159.228 27.928 159.446 28.4631C159.663 28.9934 159.969 29.4029 160.362 29.6918C160.76 29.9759 161.226 30.1179 161.761 30.1179C162.14 30.1179 162.478 30.0469 162.777 29.9048C163.08 29.758 163.333 29.5473 163.537 29.2727C163.74 28.9981 163.88 28.6643 163.956 28.2713H166.413C166.351 29.0431 166.124 29.7273 165.731 30.3239C165.338 30.9157 164.803 31.3797 164.126 31.7159C163.449 32.0473 162.654 32.2131 161.74 32.2131Z" fill="black"/>
<rect y="66" width="264" height="50.0008" rx="16" fill="#DCF472"/>
<path fill-rule="evenodd" clip-rule="evenodd" d="M75.8867 91.2173C74.0661 89.504 74.2738 86.8752 75.4956 85.4877C76.8311 83.9704 79.4764 83.8302 82.1096 85.3761C82.6735 85.6883 83.3541 86.3247 84.0181 87.0803C85.4552 88.7137 86.8604 90.8916 86.8604 90.8916C87.0241 91.1449 87.0196 91.4737 86.8483 91.7226C86.8483 91.7226 86.7528 91.8659 86.586 92.1057C86.5315 92.1841 86.4633 92.2505 86.3829 92.3032C85.2293 93.0679 82.5628 94.8717 81.8716 96.0964C81.867 96.1024 81.864 96.1099 81.8594 96.116C81.6245 96.5051 81.4319 96.8942 81.2849 97.2773C81.2091 97.4749 81.053 97.6332 80.8544 97.7101C78.6048 98.5909 76.5295 98.2591 75.4047 96.9395C74.2056 95.5338 74.0388 92.9005 75.8867 91.2173ZM85.2687 91.2324C84.7942 90.5281 83.8438 89.1722 82.8766 88.0742C82.343 87.4679 81.8155 86.9371 81.3652 86.6897L81.3455 86.6776C80.3481 86.0925 79.3521 85.7833 78.4744 85.7757C77.724 85.7697 77.0691 85.9884 76.6356 86.4816C75.7397 87.4996 75.7745 89.5387 77.5421 90.5779C77.7756 90.7151 77.9165 90.964 77.915 91.2324C77.912 91.5024 77.7665 91.7497 77.5315 91.8825C75.7488 92.893 75.6806 94.932 76.5598 95.9636C77.2783 96.8052 78.5805 96.8987 80.0024 96.4161C80.1571 96.0587 80.3435 95.6982 80.5603 95.3377C81.3001 94.0573 83.8832 92.169 85.2687 91.2324Z" fill="black"/>
<path fill-rule="evenodd" clip-rule="evenodd" d="M90.7764 97.0486C90.2207 96.7258 89.5532 96.0786 88.9039 95.3139C87.4979 93.6576 86.1328 91.4584 86.1328 91.4584C85.9727 91.2004 85.9833 90.8731 86.1585 90.6257C86.1585 90.6257 86.2687 90.4643 86.4605 90.1973C86.5103 90.1279 86.5737 90.0661 86.6447 90.0178C87.806 89.2154 90.3672 87.4068 91.0271 86.1895C91.0317 86.1819 91.0347 86.1759 91.0392 86.1699C91.2129 85.8697 91.3624 85.5695 91.4847 85.2723C91.5617 85.0898 91.7052 84.9435 91.8879 84.8666C94.2679 83.8575 96.4878 84.1878 97.64 85.5906C98.8104 87.0146 98.9357 89.6498 97.0692 91.3045C98.8557 93.0467 98.605 95.6729 97.3682 97.041C96.0136 98.5374 93.3769 98.6354 90.7764 97.0486ZM87.7063 91.1175C88.1639 91.8204 89.0987 93.2111 90.0546 94.3379C90.5771 94.9534 91.0951 95.4919 91.5391 95.7468L91.5587 95.7574C92.5433 96.3592 93.5309 96.685 94.4038 96.7046C95.1513 96.7227 95.8082 96.5146 96.2477 96.0289C97.1553 95.0243 97.1522 92.9849 95.408 91.9184C95.1785 91.7781 95.0426 91.5262 95.0486 91.2562C95.0547 90.9877 95.2042 90.7434 95.4397 90.6137C97.2323 89.6302 97.3319 87.5938 96.4727 86.547C95.7206 85.6329 94.292 85.5635 92.7502 86.1457C92.6309 86.4052 92.4965 86.6661 92.3455 86.9256C91.6267 88.2228 89.07 90.1611 87.7063 91.1175Z" fill="black"/>
<path fill-rule="evenodd" clip-rule="evenodd" d="M86.2651 80.4168C87.9633 78.5083 90.5936 78.7039 91.9902 79.9625C93.5195 81.3394 93.6793 84.0901 92.1546 86.8439C91.8469 87.4323 91.215 88.1452 90.4654 88.8439C88.8441 90.3517 86.6768 91.8311 86.6768 91.8311C86.4235 92.0046 86.0962 92.003 85.8458 91.8264C85.8458 91.8264 85.701 91.7286 85.4612 91.5567C85.3813 91.5015 85.3134 91.4305 85.2607 91.3469C84.487 90.153 82.6636 87.3944 81.4329 86.6846C81.4254 86.6799 81.4193 86.6768 81.4133 86.672C81.0227 86.4307 80.6305 86.2351 80.2475 86.0853C80.0484 86.008 79.89 85.8456 79.8116 85.6405C78.9127 83.3062 79.2279 81.1439 80.5385 79.9625C81.9351 78.7039 84.5654 78.5083 86.2651 80.4168ZM86.3239 90.1798C87.0237 89.6782 88.3735 88.6783 89.4625 87.6641C90.0657 87.1042 90.5921 86.5506 90.8349 86.0806L90.847 86.0601C91.4246 85.0175 91.7262 83.9781 91.7262 83.0665C91.7262 82.2842 91.5015 81.6044 91.0068 81.1581C89.9813 80.2338 87.9422 80.2874 86.9166 82.1344C86.7824 82.3788 86.5336 82.5287 86.2651 82.5287C85.9967 82.5287 85.7478 82.3788 85.6121 82.1344C84.588 80.2874 82.5489 80.2338 81.5234 81.1581C80.6879 81.912 80.6049 83.2684 81.0996 84.7431C81.457 84.9008 81.819 85.0917 82.181 85.314C83.4674 86.0727 85.3753 88.7461 86.3239 90.1798Z" fill="black"/>
<path fill-rule="evenodd" clip-rule="evenodd" d="M80.9035 95.3375C81.2203 94.7777 81.8628 94.103 82.6229 93.4464C84.2669 92.0257 86.4554 90.6399 86.4554 90.6399C86.7118 90.478 87.0391 90.4856 87.288 90.6581C87.288 90.6581 87.4297 90.7549 87.6681 90.9228C87.745 90.9788 87.8128 91.0469 87.8641 91.1271C88.6198 92.286 90.4025 94.9593 91.6212 95.6613C91.6287 95.6643 91.6348 95.6688 91.6408 95.6718C92.0284 95.9094 92.416 96.1045 92.7976 96.2543C92.9952 96.3315 93.1521 96.4888 93.2275 96.687C94.0902 98.9397 93.7418 101.009 92.413 102.121C90.9983 103.306 88.3649 103.453 86.6952 101.595C84.9683 103.398 82.3409 103.168 80.9624 101.94C79.4556 100.595 79.3365 97.9533 80.9035 95.3375ZM86.7842 92.23C86.0768 92.7005 84.7119 93.637 83.6063 94.5931C82.997 95.1212 82.4616 95.6431 82.2112 96.0909L82.1991 96.1106C81.6049 97.1015 81.2881 98.0925 81.2746 98.9685C81.2625 99.7174 81.4767 100.372 81.9653 100.81C82.9759 101.711 85.0165 101.692 86.0693 99.9367C86.2081 99.7053 86.4584 99.5661 86.7269 99.5706C86.9954 99.5751 87.2427 99.7219 87.3739 99.9579C88.3709 101.746 90.4085 101.829 91.4477 100.959C92.2954 100.25 92.3979 98.9503 91.9258 97.5282C91.5699 97.3708 91.2109 97.1817 90.8535 96.9624C89.5775 96.215 87.7103 93.6203 86.7842 92.23Z" fill="black"/>
<path d="M120.385 88.3622H117.729C117.653 87.9266 117.513 87.5407 117.31 87.2045C117.106 86.8636 116.853 86.5748 116.55 86.3381C116.247 86.1013 115.901 85.9238 115.513 85.8054C115.129 85.6823 114.715 85.6207 114.27 85.6207C113.479 85.6207 112.778 85.8196 112.168 86.2173C111.557 86.6103 111.079 87.188 110.733 87.9503C110.387 88.7079 110.214 89.6335 110.214 90.7273C110.214 91.84 110.387 92.7775 110.733 93.5398C111.083 94.2973 111.562 94.8703 112.168 95.2585C112.778 95.642 113.477 95.8338 114.263 95.8338C114.698 95.8338 115.106 95.777 115.484 95.6634C115.868 95.545 116.211 95.3722 116.514 95.1449C116.822 94.9176 117.08 94.6383 117.288 94.3068C117.501 93.9754 117.648 93.5966 117.729 93.1705L120.385 93.1847C120.286 93.8759 120.07 94.5246 119.739 95.1307C119.412 95.7367 118.983 96.2718 118.453 96.7358C117.923 97.1951 117.303 97.5549 116.592 97.8153C115.882 98.071 115.094 98.1989 114.227 98.1989C112.949 98.1989 111.808 97.9029 110.804 97.3111C109.8 96.7192 109.009 95.8646 108.432 94.7472C107.854 93.6297 107.565 92.2898 107.565 90.7273C107.565 89.16 107.857 87.8201 108.439 86.7074C109.021 85.59 109.814 84.7353 110.818 84.1435C111.822 83.5516 112.958 83.2557 114.227 83.2557C115.037 83.2557 115.79 83.3693 116.486 83.5966C117.182 83.8239 117.802 84.1577 118.347 84.598C118.891 85.0336 119.339 85.5687 119.689 86.2031C120.044 86.8329 120.276 87.5526 120.385 88.3622ZM122.684 98V87.0909H125.177V88.9091H125.291C125.49 88.2794 125.831 87.794 126.314 87.4531C126.801 87.1075 127.358 86.9347 127.983 86.9347C128.125 86.9347 128.283 86.9418 128.458 86.956C128.638 86.9654 128.788 86.982 128.906 87.0057V89.3707C128.797 89.3329 128.624 89.2997 128.387 89.2713C128.155 89.2382 127.931 89.2216 127.713 89.2216C127.244 89.2216 126.823 89.3234 126.449 89.527C126.079 89.7259 125.788 90.0028 125.575 90.358C125.362 90.7131 125.255 91.1226 125.255 91.5866V98H122.684ZM134.994 98.2131C133.901 98.2131 132.956 97.9858 132.161 97.5312C131.37 97.072 130.761 96.4233 130.335 95.5852C129.909 94.7424 129.696 93.7505 129.696 92.6094C129.696 91.4872 129.909 90.5024 130.335 89.6548C130.766 88.8026 131.367 88.1397 132.139 87.6662C132.911 87.188 133.818 86.9489 134.859 86.9489C135.532 86.9489 136.166 87.0578 136.763 87.2756C137.364 87.4886 137.894 87.8201 138.354 88.2699C138.818 88.7197 139.182 89.2926 139.447 89.9886C139.713 90.6799 139.845 91.5038 139.845 92.4602V93.2486H130.903V91.5156H137.381C137.376 91.0232 137.269 90.5852 137.061 90.2017C136.853 89.8134 136.562 89.508 136.188 89.2855C135.818 89.063 135.387 88.9517 134.895 88.9517C134.369 88.9517 133.908 89.0795 133.51 89.3352C133.112 89.5862 132.802 89.9176 132.58 90.3295C132.362 90.7367 132.25 91.1842 132.246 91.6719V93.1847C132.246 93.8191 132.362 94.3636 132.594 94.8182C132.826 95.268 133.15 95.6136 133.567 95.8551C133.983 96.0919 134.471 96.2102 135.03 96.2102C135.404 96.2102 135.742 96.1581 136.045 96.054C136.348 95.9451 136.611 95.7865 136.834 95.5781C137.056 95.3698 137.224 95.1117 137.338 94.804L139.739 95.0739C139.587 95.7083 139.298 96.2623 138.872 96.7358C138.451 97.2045 137.911 97.5691 137.253 97.8295C136.595 98.0852 135.842 98.2131 134.994 98.2131ZM146.069 98.1918C145.212 98.1918 144.444 97.9716 143.767 97.5312C143.09 97.0909 142.555 96.4517 142.162 95.6136C141.769 94.7756 141.573 93.7576 141.573 92.5597C141.573 91.3475 141.772 90.3248 142.169 89.4915C142.572 88.6534 143.114 88.0213 143.796 87.5952C144.478 87.1643 145.238 86.9489 146.076 86.9489C146.715 86.9489 147.24 87.0578 147.652 87.2756C148.064 87.4886 148.391 87.7467 148.632 88.0497C148.874 88.348 149.061 88.6297 149.194 88.8949H149.3V83.4545H151.878V98H149.35V96.2812H149.194C149.061 96.5464 148.869 96.8281 148.618 97.1264C148.367 97.42 148.036 97.6709 147.624 97.8793C147.212 98.0876 146.694 98.1918 146.069 98.1918ZM146.786 96.0824C147.33 96.0824 147.794 95.9356 148.178 95.642C148.561 95.3437 148.853 94.9295 149.051 94.3991C149.25 93.8688 149.35 93.2509 149.35 92.5455C149.35 91.84 149.25 91.2268 149.051 90.706C148.857 90.1851 148.569 89.7803 148.185 89.4915C147.806 89.2027 147.34 89.0582 146.786 89.0582C146.213 89.0582 145.735 89.2074 145.351 89.5057C144.968 89.804 144.679 90.2159 144.485 90.7415C144.291 91.267 144.194 91.8684 144.194 92.5455C144.194 93.2273 144.291 93.8357 144.485 94.3707C144.684 94.901 144.975 95.3201 145.358 95.6278C145.747 95.9309 146.222 96.0824 146.786 96.0824ZM154.618 98V87.0909H157.189V98H154.618ZM155.911 85.5426C155.503 85.5426 155.153 85.4077 154.859 85.1378C154.566 84.8632 154.419 84.5341 154.419 84.1506C154.419 83.7623 154.566 83.4332 154.859 83.1634C155.153 82.8887 155.503 82.7514 155.911 82.7514C156.322 82.7514 156.673 82.8887 156.962 83.1634C157.255 83.4332 157.402 83.7623 157.402 84.1506C157.402 84.5341 157.255 84.8632 156.962 85.1378C156.673 85.4077 156.322 85.5426 155.911 85.5426ZM165.28 87.0909V89.0795H159.009V87.0909H165.28ZM160.557 84.4773H163.128V94.7188C163.128 95.0644 163.18 95.3295 163.284 95.5142C163.393 95.6941 163.535 95.8172 163.711 95.8835C163.886 95.9498 164.08 95.983 164.293 95.983C164.454 95.983 164.601 95.9711 164.733 95.9474C164.871 95.9238 164.975 95.9025 165.046 95.8835L165.479 97.8935C165.342 97.9408 165.145 97.9929 164.89 98.0497C164.639 98.1065 164.331 98.1397 163.966 98.1491C163.322 98.1681 162.742 98.071 162.226 97.858C161.71 97.6402 161.301 97.304 160.998 96.8494C160.699 96.3949 160.552 95.8267 160.557 95.1449V84.4773ZM172.143 98.2131C171.049 98.2131 170.104 97.9858 169.309 97.5312C168.518 97.072 167.91 96.4233 167.484 95.5852C167.058 94.7424 166.844 93.7505 166.844 92.6094C166.844 91.4872 167.058 90.5024 167.484 89.6548C167.915 88.8026 168.516 88.1397 169.288 87.6662C170.059 87.188 170.966 86.9489 172.008 86.9489C172.68 86.9489 173.315 87.0578 173.911 87.2756C174.513 87.4886 175.043 87.8201 175.502 88.2699C175.966 88.7197 176.331 89.2926 176.596 89.9886C176.861 90.6799 176.994 91.5038 176.994 92.4602V93.2486H168.052V91.5156H174.529C174.524 91.0232 174.418 90.5852 174.21 90.2017C174.001 89.8134 173.71 89.508 173.336 89.2855C172.967 89.063 172.536 88.9517 172.043 88.9517C171.518 88.9517 171.056 89.0795 170.658 89.3352C170.261 89.5862 169.951 89.9176 169.728 90.3295C169.51 90.7367 169.399 91.1842 169.394 91.6719V93.1847C169.394 93.8191 169.51 94.3636 169.742 94.8182C169.974 95.268 170.299 95.6136 170.715 95.8551C171.132 96.0919 171.62 96.2102 172.178 96.2102C172.552 96.2102 172.891 96.1581 173.194 96.054C173.497 95.9451 173.76 95.7865 173.982 95.5781C174.205 95.3698 174.373 95.1117 174.487 94.804L176.887 95.0739C176.736 95.7083 176.447 96.2623 176.021 96.7358C175.599 97.2045 175.059 97.5691 174.401 97.8295C173.743 98.0852 172.99 98.2131 172.143 98.2131ZM181.037 87.0909L183.238 91.1179L185.475 87.0909H188.196L184.907 92.5455L188.252 98H185.547L183.238 94.0724L180.951 98H178.224L181.548 92.5455L178.309 87.0909H181.037Z" fill="black"/>
<rect y="132" width="264" height="50" rx="16" fill="#DCF472"/>
<path d="M109.435 164V149.455H118.788V151.663H112.07V155.072H114.875C115.988 155.072 116.942 155.255 117.737 155.619C118.537 155.979 119.151 156.488 119.577 157.146C120.003 157.804 120.216 158.579 120.216 159.469C120.216 160.364 120.003 161.152 119.577 161.834C119.151 162.511 118.537 163.041 117.737 163.425C116.942 163.808 115.988 164 114.875 164H109.435ZM112.07 161.841H114.875C115.462 161.841 115.959 161.73 116.366 161.507C116.774 161.285 117.081 160.991 117.29 160.626C117.503 160.262 117.609 159.866 117.609 159.44C117.609 158.825 117.373 158.302 116.899 157.871C116.43 157.435 115.756 157.217 114.875 157.217H112.07V161.841ZM125.546 164.22C124.855 164.22 124.232 164.097 123.678 163.851C123.129 163.6 122.693 163.231 122.371 162.743C122.054 162.255 121.896 161.654 121.896 160.939C121.896 160.323 122.009 159.814 122.237 159.412C122.464 159.009 122.774 158.688 123.167 158.446C123.56 158.205 124.003 158.022 124.495 157.899C124.992 157.771 125.506 157.679 126.036 157.622C126.675 157.556 127.194 157.497 127.592 157.445C127.989 157.388 128.278 157.303 128.458 157.189C128.643 157.071 128.735 156.888 128.735 156.642V156.599C128.735 156.064 128.576 155.65 128.259 155.357C127.942 155.063 127.485 154.916 126.888 154.916C126.259 154.916 125.759 155.054 125.39 155.328C125.025 155.603 124.779 155.927 124.651 156.301L122.251 155.96C122.44 155.297 122.753 154.743 123.188 154.298C123.624 153.848 124.156 153.512 124.786 153.29C125.416 153.062 126.112 152.949 126.874 152.949C127.4 152.949 127.923 153.01 128.444 153.134C128.965 153.257 129.441 153.46 129.871 153.744C130.302 154.024 130.648 154.405 130.908 154.888C131.174 155.371 131.306 155.974 131.306 156.699V164H128.835V162.501H128.749C128.593 162.804 128.373 163.089 128.089 163.354C127.809 163.614 127.457 163.825 127.031 163.986C126.609 164.142 126.114 164.22 125.546 164.22ZM126.214 162.331C126.73 162.331 127.177 162.229 127.556 162.026C127.935 161.817 128.226 161.543 128.43 161.202C128.638 160.861 128.742 160.489 128.742 160.087V158.801C128.662 158.867 128.524 158.929 128.33 158.986C128.141 159.043 127.928 159.092 127.691 159.135C127.454 159.178 127.22 159.215 126.988 159.249C126.756 159.282 126.555 159.31 126.384 159.334C126.001 159.386 125.657 159.471 125.354 159.589C125.051 159.708 124.812 159.874 124.637 160.087C124.462 160.295 124.374 160.565 124.374 160.896C124.374 161.37 124.547 161.727 124.893 161.969C125.238 162.21 125.679 162.331 126.214 162.331ZM141.384 157.48V159.589H135.575V157.48H141.384ZM136.37 153.091V164H133.891V153.091H136.37ZM143.067 153.091V164H140.596V153.091H143.067ZM145.669 164V153.091H148.24V157.494H149.177L152.458 153.091H155.555L151.514 158.446L155.598 164H152.487L149.497 159.888H148.24V164H145.669Z" fill="black"/>
</svg>
