<svg width="252" height="403" viewBox="0 0 252 403" fill="none" xmlns="http://www.w3.org/2000/svg">
<circle cx="126" cy="20" r="18" fill="#DCF472" stroke="#DCF472" stroke-width="4"/>
<path d="M128 10.8789V28H125.176V14.2305L120.992 15.6484V13.3164L127.66 10.8789H128Z" fill="#12141D"/>
<path d="M1.27841 67V55.3636H5.42614C6.33144 55.3636 7.08144 55.5284 7.67614 55.858C8.27083 56.1875 8.71591 56.6383 9.01136 57.2102C9.30682 57.7784 9.45455 58.4186 9.45455 59.1307C9.45455 59.8466 9.30492 60.4905 9.00568 61.0625C8.71023 61.6307 8.26326 62.0814 7.66477 62.4148C7.07008 62.7443 6.32197 62.9091 5.42045 62.9091H2.56818V61.4205H5.26136C5.83333 61.4205 6.29735 61.322 6.65341 61.125C7.00947 60.9242 7.27083 60.6515 7.4375 60.3068C7.60417 59.9621 7.6875 59.5701 7.6875 59.1307C7.6875 58.6913 7.60417 58.3011 7.4375 57.9602C7.27083 57.6193 7.00758 57.3523 6.64773 57.1591C6.29167 56.9659 5.82197 56.8693 5.23864 56.8693H3.03409V67H1.27841ZM15.0284 67.1761C14.1686 67.1761 13.428 66.9924 12.8068 66.625C12.1894 66.2538 11.7121 65.733 11.375 65.0625C11.0417 64.3883 10.875 63.5985 10.875 62.6932C10.875 61.7992 11.0417 61.0114 11.375 60.3295C11.7121 59.6477 12.1818 59.1155 12.7841 58.733C13.3902 58.3504 14.0985 58.1591 14.9091 58.1591C15.4015 58.1591 15.8788 58.2405 16.3409 58.4034C16.803 58.5663 17.2178 58.822 17.5852 59.1705C17.9527 59.5189 18.2424 59.9716 18.4545 60.5284C18.6667 61.0814 18.7727 61.7538 18.7727 62.5455V63.1477H11.8352V61.875H17.108C17.108 61.428 17.017 61.0322 16.8352 60.6875C16.6534 60.339 16.3977 60.0644 16.0682 59.8636C15.7424 59.6629 15.3598 59.5625 14.9205 59.5625C14.4432 59.5625 14.0265 59.6799 13.6705 59.9148C13.3182 60.1458 13.0455 60.4489 12.8523 60.8239C12.6629 61.1951 12.5682 61.5985 12.5682 62.0341V63.0284C12.5682 63.6117 12.6705 64.108 12.875 64.517C13.0833 64.9261 13.3731 65.2386 13.7443 65.4545C14.1155 65.6667 14.5492 65.7727 15.0455 65.7727C15.3674 65.7727 15.661 65.7273 15.9261 65.6364C16.1913 65.5417 16.4205 65.4015 16.6136 65.2159C16.8068 65.0303 16.9545 64.8011 17.0568 64.5284L18.6648 64.8182C18.536 65.2917 18.3049 65.7064 17.9716 66.0625C17.642 66.4148 17.2273 66.6894 16.7273 66.8864C16.2311 67.0795 15.6648 67.1761 15.0284 67.1761ZM26.2372 58.2727V59.7386H22.3338V67H20.6577V58.2727H26.2372ZM29.6974 64.6193L33.544 58.2727H35.3736V67H33.7088V60.6477L29.8793 67H28.0327V58.2727H29.6974V64.6193ZM41.3338 67.1761C40.4891 67.1761 39.7618 66.9848 39.152 66.6023C38.5459 66.2159 38.08 65.6837 37.7543 65.0057C37.4285 64.3277 37.2656 63.5511 37.2656 62.6761C37.2656 61.7898 37.4323 61.0076 37.7656 60.3295C38.099 59.6477 38.5687 59.1155 39.1747 58.733C39.7808 58.3504 40.4948 58.1591 41.3168 58.1591C41.9796 58.1591 42.5705 58.2822 43.0895 58.5284C43.6084 58.7708 44.027 59.1117 44.3452 59.5511C44.6671 59.9905 44.8584 60.5038 44.919 61.0909H43.2656C43.1747 60.6818 42.9664 60.3295 42.6406 60.0341C42.3187 59.7386 41.8868 59.5909 41.3452 59.5909C40.8717 59.5909 40.4569 59.7159 40.1009 59.9659C39.7486 60.2121 39.474 60.5644 39.277 61.0227C39.08 61.4773 38.9815 62.0152 38.9815 62.6364C38.9815 63.2727 39.0781 63.822 39.2713 64.2841C39.4645 64.7462 39.7372 65.1042 40.0895 65.358C40.4455 65.6117 40.8641 65.7386 41.3452 65.7386C41.6671 65.7386 41.9588 65.6799 42.2202 65.5625C42.4853 65.4413 42.7069 65.2689 42.8849 65.0455C43.0668 64.822 43.1937 64.553 43.2656 64.2386H44.919C44.8584 64.803 44.6747 65.3068 44.3679 65.75C44.0611 66.1932 43.6501 66.5417 43.1349 66.7955C42.6236 67.0492 42.0232 67.1761 41.3338 67.1761ZM46.0753 59.7386V58.2727H53.4389V59.7386H50.5923V67H48.9332V59.7386H46.0753ZM55.2358 70.2727V58.2727H56.8949V59.6875H57.0369C57.1354 59.5057 57.2775 59.2955 57.4631 59.0568C57.6487 58.8182 57.9063 58.6098 58.2358 58.4318C58.5653 58.25 59.0009 58.1591 59.5426 58.1591C60.2472 58.1591 60.8759 58.3371 61.429 58.6932C61.982 59.0492 62.4157 59.5625 62.7301 60.233C63.0483 60.9034 63.2074 61.7102 63.2074 62.6534C63.2074 63.5966 63.0502 64.4053 62.7358 65.0795C62.4214 65.75 61.9896 66.267 61.4403 66.6307C60.8911 66.9905 60.2642 67.1705 59.5597 67.1705C59.0294 67.1705 58.5956 67.0814 58.2585 66.9034C57.9252 66.7254 57.6638 66.517 57.4744 66.2784C57.285 66.0398 57.1392 65.8277 57.0369 65.642H56.9347V70.2727H55.2358ZM56.9006 62.6364C56.9006 63.25 56.9896 63.7879 57.1676 64.25C57.3456 64.7121 57.6032 65.0739 57.9403 65.3352C58.2775 65.5928 58.6903 65.7216 59.179 65.7216C59.6866 65.7216 60.1108 65.5871 60.4517 65.3182C60.7926 65.0455 61.0502 64.6761 61.2244 64.2102C61.4025 63.7443 61.4915 63.2197 61.4915 62.6364C61.4915 62.0606 61.4044 61.5436 61.2301 61.0852C61.0597 60.6269 60.8021 60.2652 60.4574 60C60.1165 59.7348 59.6903 59.6023 59.179 59.6023C58.6866 59.6023 58.2699 59.7292 57.929 59.983C57.5919 60.2367 57.3362 60.5909 57.1619 61.0455C56.9877 61.5 56.9006 62.0303 56.9006 62.6364ZM66.7756 64.6193L70.6222 58.2727H72.4517V67H70.7869V60.6477L66.9574 67H65.1108V58.2727H66.7756V64.6193ZM74.7358 70.2727V58.2727H76.3949V59.6875H76.5369C76.6354 59.5057 76.7775 59.2955 76.9631 59.0568C77.1487 58.8182 77.4063 58.6098 77.7358 58.4318C78.0653 58.25 78.5009 58.1591 79.0426 58.1591C79.7472 58.1591 80.3759 58.3371 80.929 58.6932C81.482 59.0492 81.9157 59.5625 82.2301 60.233C82.5483 60.9034 82.7074 61.7102 82.7074 62.6534C82.7074 63.5966 82.5502 64.4053 82.2358 65.0795C81.9214 65.75 81.4896 66.267 80.9403 66.6307C80.3911 66.9905 79.7642 67.1705 79.0597 67.1705C78.5294 67.1705 78.0956 67.0814 77.7585 66.9034C77.4252 66.7254 77.1638 66.517 76.9744 66.2784C76.785 66.0398 76.6392 65.8277 76.5369 65.642H76.4347V70.2727H74.7358ZM76.4006 62.6364C76.4006 63.25 76.4896 63.7879 76.6676 64.25C76.8456 64.7121 77.1032 65.0739 77.4403 65.3352C77.7775 65.5928 78.1903 65.7216 78.679 65.7216C79.1866 65.7216 79.6108 65.5871 79.9517 65.3182C80.2926 65.0455 80.5502 64.6761 80.7244 64.2102C80.9025 63.7443 80.9915 63.2197 80.9915 62.6364C80.9915 62.0606 80.9044 61.5436 80.7301 61.0852C80.5597 60.6269 80.3021 60.2652 79.9574 60C79.6165 59.7348 79.1903 59.6023 78.679 59.6023C78.1866 59.6023 77.7699 59.7292 77.429 59.983C77.0919 60.2367 76.8362 60.5909 76.6619 61.0455C76.4877 61.5 76.4006 62.0303 76.4006 62.6364ZM85.3878 70.2727C85.134 70.2727 84.9029 70.2519 84.6946 70.2102C84.4863 70.1723 84.331 70.1307 84.2287 70.0852L84.6378 68.6932C84.9484 68.7765 85.2249 68.8125 85.4673 68.8011C85.7098 68.7898 85.9238 68.6989 86.1094 68.5284C86.2988 68.358 86.4654 68.0795 86.6094 67.6932L86.8196 67.1136L83.6264 58.2727H85.4446L87.6548 65.0455H87.7457L89.956 58.2727H91.7798L88.1832 68.1648C88.0166 68.6193 87.8045 69.0038 87.5469 69.3182C87.2893 69.6364 86.9825 69.875 86.6264 70.0341C86.2704 70.1932 85.8575 70.2727 85.3878 70.2727ZM96.8409 67.1761C95.9811 67.1761 95.2405 66.9924 94.6193 66.625C94.0019 66.2538 93.5246 65.733 93.1875 65.0625C92.8542 64.3883 92.6875 63.5985 92.6875 62.6932C92.6875 61.7992 92.8542 61.0114 93.1875 60.3295C93.5246 59.6477 93.9943 59.1155 94.5966 58.733C95.2027 58.3504 95.911 58.1591 96.7216 58.1591C97.214 58.1591 97.6913 58.2405 98.1534 58.4034C98.6155 58.5663 99.0303 58.822 99.3977 59.1705C99.7652 59.5189 100.055 59.9716 100.267 60.5284C100.479 61.0814 100.585 61.7538 100.585 62.5455V63.1477H93.6477V61.875H98.9205C98.9205 61.428 98.8295 61.0322 98.6477 60.6875C98.4659 60.339 98.2102 60.0644 97.8807 59.8636C97.5549 59.6629 97.1723 59.5625 96.733 59.5625C96.2557 59.5625 95.839 59.6799 95.483 59.9148C95.1307 60.1458 94.858 60.4489 94.6648 60.8239C94.4754 61.1951 94.3807 61.5985 94.3807 62.0341V63.0284C94.3807 63.6117 94.483 64.108 94.6875 64.517C94.8958 64.9261 95.1856 65.2386 95.5568 65.4545C95.928 65.6667 96.3617 65.7727 96.858 65.7727C97.1799 65.7727 97.4735 65.7273 97.7386 65.6364C98.0038 65.5417 98.233 65.4015 98.4261 65.2159C98.6193 65.0303 98.767 64.8011 98.8693 64.5284L100.477 64.8182C100.348 65.2917 100.117 65.7064 99.7841 66.0625C99.4545 66.4148 99.0398 66.6894 98.5398 66.8864C98.0436 67.0795 97.4773 67.1761 96.8409 67.1761ZM101.7 59.7386V58.2727H109.064V59.7386H106.217V67H104.558V59.7386H101.7ZM114.216 67.1761C113.356 67.1761 112.616 66.9924 111.994 66.625C111.377 66.2538 110.9 65.733 110.562 65.0625C110.229 64.3883 110.062 63.5985 110.062 62.6932C110.062 61.7992 110.229 61.0114 110.562 60.3295C110.9 59.6477 111.369 59.1155 111.972 58.733C112.578 58.3504 113.286 58.1591 114.097 58.1591C114.589 58.1591 115.066 58.2405 115.528 58.4034C115.991 58.5663 116.405 58.822 116.773 59.1705C117.14 59.5189 117.43 59.9716 117.642 60.5284C117.854 61.0814 117.96 61.7538 117.96 62.5455V63.1477H111.023V61.875H116.295C116.295 61.428 116.205 61.0322 116.023 60.6875C115.841 60.339 115.585 60.0644 115.256 59.8636C114.93 59.6629 114.547 59.5625 114.108 59.5625C113.631 59.5625 113.214 59.6799 112.858 59.9148C112.506 60.1458 112.233 60.4489 112.04 60.8239C111.85 61.1951 111.756 61.5985 111.756 62.0341V63.0284C111.756 63.6117 111.858 64.108 112.062 64.517C112.271 64.9261 112.561 65.2386 112.932 65.4545C113.303 65.6667 113.737 65.7727 114.233 65.7727C114.555 65.7727 114.848 65.7273 115.114 65.6364C115.379 65.5417 115.608 65.4015 115.801 65.2159C115.994 65.0303 116.142 64.8011 116.244 64.5284L117.852 64.8182C117.723 65.2917 117.492 65.7064 117.159 66.0625C116.83 66.4148 116.415 66.6894 115.915 66.8864C115.419 67.0795 114.852 67.1761 114.216 67.1761ZM123.521 67.1761C122.677 67.1761 121.949 66.9848 121.339 66.6023C120.733 66.2159 120.268 65.6837 119.942 65.0057C119.616 64.3277 119.453 63.5511 119.453 62.6761C119.453 61.7898 119.62 61.0076 119.953 60.3295C120.286 59.6477 120.756 59.1155 121.362 58.733C121.968 58.3504 122.682 58.1591 123.504 58.1591C124.167 58.1591 124.758 58.2822 125.277 58.5284C125.796 58.7708 126.214 59.1117 126.533 59.5511C126.855 59.9905 127.046 60.5038 127.107 61.0909H125.453C125.362 60.6818 125.154 60.3295 124.828 60.0341C124.506 59.7386 124.074 59.5909 123.533 59.5909C123.059 59.5909 122.644 59.7159 122.288 59.9659C121.936 60.2121 121.661 60.5644 121.464 61.0227C121.268 61.4773 121.169 62.0152 121.169 62.6364C121.169 63.2727 121.266 63.822 121.459 64.2841C121.652 64.7462 121.925 65.1042 122.277 65.358C122.633 65.6117 123.052 65.7386 123.533 65.7386C123.855 65.7386 124.146 65.6799 124.408 65.5625C124.673 65.4413 124.894 65.2689 125.072 65.0455C125.254 64.822 125.381 64.553 125.453 64.2386H127.107C127.046 64.803 126.862 65.3068 126.555 65.75C126.249 66.1932 125.838 66.5417 125.322 66.7955C124.811 67.0492 124.211 67.1761 123.521 67.1761ZM130.202 61.2727H132.736C133.804 61.2727 134.626 61.5379 135.202 62.0682C135.777 62.5985 136.065 63.2822 136.065 64.1193C136.065 64.6648 135.937 65.1553 135.679 65.5909C135.421 66.0265 135.045 66.3712 134.548 66.625C134.052 66.875 133.448 67 132.736 67H128.923V58.2727H130.588V65.5341H132.736C133.224 65.5341 133.626 65.4072 133.94 65.1534C134.255 64.8958 134.412 64.5682 134.412 64.1705C134.412 63.75 134.255 63.4072 133.94 63.142C133.626 62.8731 133.224 62.7386 132.736 62.7386H130.202V61.2727ZM148.119 61.9034V63.375H143.392V61.9034H148.119ZM143.869 58.2727V67H142.205V58.2727H143.869ZM149.307 58.2727V67H147.648V58.2727H149.307ZM154.119 67.1932C153.566 67.1932 153.066 67.0909 152.619 66.8864C152.172 66.678 151.818 66.3769 151.557 65.983C151.299 65.589 151.17 65.1061 151.17 64.5341C151.17 64.0417 151.265 63.6364 151.455 63.3182C151.644 63 151.9 62.7481 152.222 62.5625C152.544 62.3769 152.903 62.2367 153.301 62.142C153.699 62.0473 154.104 61.9754 154.517 61.9261C155.04 61.8655 155.464 61.8163 155.79 61.7784C156.116 61.7367 156.352 61.6705 156.5 61.5795C156.648 61.4886 156.722 61.3409 156.722 61.1364V61.0966C156.722 60.6004 156.581 60.2159 156.301 59.9432C156.025 59.6705 155.612 59.5341 155.062 59.5341C154.491 59.5341 154.04 59.661 153.71 59.9148C153.384 60.1648 153.159 60.4432 153.034 60.75L151.438 60.3864C151.627 59.8561 151.903 59.428 152.267 59.1023C152.634 58.7727 153.057 58.5341 153.534 58.3864C154.011 58.2348 154.513 58.1591 155.04 58.1591C155.388 58.1591 155.758 58.2008 156.148 58.2841C156.542 58.3636 156.909 58.5114 157.25 58.7273C157.595 58.9432 157.877 59.2519 158.097 59.6534C158.316 60.0511 158.426 60.5682 158.426 61.2045V67H156.767V65.8068H156.699C156.589 66.0265 156.424 66.2424 156.205 66.4545C155.985 66.6667 155.703 66.8428 155.358 66.983C155.013 67.1231 154.6 67.1932 154.119 67.1932ZM154.489 65.8295C154.958 65.8295 155.36 65.7367 155.693 65.5511C156.03 65.3655 156.286 65.1231 156.46 64.8239C156.638 64.5208 156.727 64.197 156.727 63.8523V62.7273C156.667 62.7879 156.549 62.8447 156.375 62.8977C156.205 62.947 156.009 62.9905 155.79 63.0284C155.57 63.0625 155.356 63.0947 155.148 63.125C154.939 63.1515 154.765 63.1742 154.625 63.1932C154.295 63.2348 153.994 63.3049 153.722 63.4034C153.453 63.5019 153.237 63.6439 153.074 63.8295C152.915 64.0114 152.835 64.2538 152.835 64.5568C152.835 64.9773 152.991 65.2955 153.301 65.5114C153.612 65.7235 154.008 65.8295 154.489 65.8295ZM164.923 67V58.2727H172.043V67H170.378V59.7386H166.577V67H164.923ZM173.626 67L173.621 65.5284H173.933C174.176 65.5284 174.378 65.4773 174.541 65.375C174.708 65.2689 174.844 65.0909 174.95 64.8409C175.056 64.5909 175.138 64.2462 175.195 63.8068C175.251 63.3636 175.293 62.8068 175.32 62.1364L175.473 58.2727H181.564V67H179.899V59.7386H177.047L176.911 62.7045C176.876 63.4242 176.803 64.053 176.689 64.5909C176.579 65.1288 176.418 65.5777 176.206 65.9375C175.994 66.2936 175.721 66.5606 175.388 66.7386C175.054 66.9129 174.649 67 174.172 67H173.626ZM186.369 67.1932C185.816 67.1932 185.316 67.0909 184.869 66.8864C184.422 66.678 184.068 66.3769 183.807 65.983C183.549 65.589 183.42 65.1061 183.42 64.5341C183.42 64.0417 183.515 63.6364 183.705 63.3182C183.894 63 184.15 62.7481 184.472 62.5625C184.794 62.3769 185.153 62.2367 185.551 62.142C185.949 62.0473 186.354 61.9754 186.767 61.9261C187.29 61.8655 187.714 61.8163 188.04 61.7784C188.366 61.7367 188.602 61.6705 188.75 61.5795C188.898 61.4886 188.972 61.3409 188.972 61.1364V61.0966C188.972 60.6004 188.831 60.2159 188.551 59.9432C188.275 59.6705 187.862 59.5341 187.312 59.5341C186.741 59.5341 186.29 59.661 185.96 59.9148C185.634 60.1648 185.409 60.4432 185.284 60.75L183.688 60.3864C183.877 59.8561 184.153 59.428 184.517 59.1023C184.884 58.7727 185.307 58.5341 185.784 58.3864C186.261 58.2348 186.763 58.1591 187.29 58.1591C187.638 58.1591 188.008 58.2008 188.398 58.2841C188.792 58.3636 189.159 58.5114 189.5 58.7273C189.845 58.9432 190.127 59.2519 190.347 59.6534C190.566 60.0511 190.676 60.5682 190.676 61.2045V67H189.017V65.8068H188.949C188.839 66.0265 188.674 66.2424 188.455 66.4545C188.235 66.6667 187.953 66.8428 187.608 66.983C187.263 67.1231 186.85 67.1932 186.369 67.1932ZM186.739 65.8295C187.208 65.8295 187.61 65.7367 187.943 65.5511C188.28 65.3655 188.536 65.1231 188.71 64.8239C188.888 64.5208 188.977 64.197 188.977 63.8523V62.7273C188.917 62.7879 188.799 62.8447 188.625 62.8977C188.455 62.947 188.259 62.9905 188.04 63.0284C187.82 63.0625 187.606 63.0947 187.398 63.125C187.189 63.1515 187.015 63.1742 186.875 63.1932C186.545 63.2348 186.244 63.3049 185.972 63.4034C185.703 63.5019 185.487 63.6439 185.324 63.8295C185.165 64.0114 185.085 64.2538 185.085 64.5568C185.085 64.9773 185.241 65.2955 185.551 65.5114C185.862 65.7235 186.258 65.8295 186.739 65.8295ZM191.857 59.7386V58.2727H199.22V59.7386H196.374V67H194.714V59.7386H191.857ZM204.366 69.9716V55.3636H206.065V69.9716H204.366ZM204.366 67.1761C203.749 67.1761 203.187 67.0701 202.679 66.858C202.171 66.642 201.734 66.3352 201.366 65.9375C200.999 65.5398 200.715 65.0644 200.514 64.5114C200.317 63.9583 200.219 63.3466 200.219 62.6761C200.219 61.9981 200.317 61.3826 200.514 60.8295C200.715 60.2765 200.999 59.8011 201.366 59.4034C201.734 59.0057 202.171 58.6989 202.679 58.483C203.187 58.267 203.749 58.1591 204.366 58.1591H204.787V67.1761H204.366ZM204.366 65.7443H204.605V59.5909H204.366C203.957 59.5909 203.601 59.6742 203.298 59.8409C202.995 60.0038 202.743 60.2292 202.543 60.517C202.342 60.8011 202.19 61.1288 202.088 61.5C201.99 61.8712 201.94 62.2633 201.94 62.6761C201.94 63.2292 202.029 63.7386 202.207 64.2045C202.385 64.6667 202.654 65.0398 203.014 65.3239C203.374 65.6042 203.825 65.7443 204.366 65.7443ZM206.065 67.1761H205.639V58.1591H206.065C206.683 58.1591 207.245 58.267 207.753 58.483C208.26 58.6989 208.696 59.0057 209.06 59.4034C209.427 59.8011 209.709 60.2765 209.906 60.8295C210.107 61.3826 210.207 61.9981 210.207 62.6761C210.207 63.3466 210.107 63.9583 209.906 64.5114C209.709 65.0644 209.427 65.5398 209.06 65.9375C208.696 66.3352 208.26 66.642 207.753 66.858C207.245 67.0701 206.683 67.1761 206.065 67.1761ZM206.065 65.7443C206.474 65.7443 206.83 65.6648 207.134 65.5057C207.437 65.3428 207.688 65.1193 207.889 64.8352C208.09 64.5473 208.24 64.2197 208.338 63.8523C208.437 63.4811 208.486 63.089 208.486 62.6761C208.486 62.1269 208.397 61.6193 208.219 61.1534C208.045 60.6837 207.777 60.3068 207.418 60.0227C207.058 59.7348 206.607 59.5909 206.065 59.5909H205.821V65.7443H206.065ZM215.771 67.1761C214.953 67.1761 214.239 66.9886 213.629 66.6136C213.019 66.2386 212.546 65.714 212.209 65.0398C211.872 64.3655 211.703 63.5777 211.703 62.6761C211.703 61.7708 211.872 60.9792 212.209 60.3011C212.546 59.6231 213.019 59.0966 213.629 58.7216C214.239 58.3466 214.953 58.1591 215.771 58.1591C216.589 58.1591 217.304 58.3466 217.913 58.7216C218.523 59.0966 218.997 59.6231 219.334 60.3011C219.671 60.9792 219.839 61.7708 219.839 62.6761C219.839 63.5777 219.671 64.3655 219.334 65.0398C218.997 65.714 218.523 66.2386 217.913 66.6136C217.304 66.9886 216.589 67.1761 215.771 67.1761ZM215.777 65.75C216.307 65.75 216.747 65.6098 217.095 65.3295C217.444 65.0492 217.701 64.6761 217.868 64.2102C218.038 63.7443 218.124 63.2311 218.124 62.6705C218.124 62.1136 218.038 61.6023 217.868 61.1364C217.701 60.6667 217.444 60.2898 217.095 60.0057C216.747 59.7216 216.307 59.5795 215.777 59.5795C215.243 59.5795 214.8 59.7216 214.447 60.0057C214.099 60.2898 213.839 60.6667 213.669 61.1364C213.502 61.6023 213.419 62.1136 213.419 62.6705C213.419 63.2311 213.502 63.7443 213.669 64.2102C213.839 64.6761 214.099 65.0492 214.447 65.3295C214.8 65.6098 215.243 65.75 215.777 65.75ZM221.736 70.2727V58.2727H223.395V59.6875H223.537C223.635 59.5057 223.777 59.2955 223.963 59.0568C224.149 58.8182 224.406 58.6098 224.736 58.4318C225.065 58.25 225.501 58.1591 226.043 58.1591C226.747 58.1591 227.376 58.3371 227.929 58.6932C228.482 59.0492 228.916 59.5625 229.23 60.233C229.548 60.9034 229.707 61.7102 229.707 62.6534C229.707 63.5966 229.55 64.4053 229.236 65.0795C228.921 65.75 228.49 66.267 227.94 66.6307C227.391 66.9905 226.764 67.1705 226.06 67.1705C225.529 67.1705 225.096 67.0814 224.759 66.9034C224.425 66.7254 224.164 66.517 223.974 66.2784C223.785 66.0398 223.639 65.8277 223.537 65.642H223.435V70.2727H221.736ZM223.401 62.6364C223.401 63.25 223.49 63.7879 223.668 64.25C223.846 64.7121 224.103 65.0739 224.44 65.3352C224.777 65.5928 225.19 65.7216 225.679 65.7216C226.187 65.7216 226.611 65.5871 226.952 65.3182C227.293 65.0455 227.55 64.6761 227.724 64.2102C227.902 63.7443 227.991 63.2197 227.991 62.6364C227.991 62.0606 227.904 61.5436 227.73 61.0852C227.56 60.6269 227.302 60.2652 226.957 60C226.616 59.7348 226.19 59.6023 225.679 59.6023C225.187 59.6023 224.77 59.7292 224.429 59.983C224.092 60.2367 223.836 60.5909 223.662 61.0455C223.488 61.5 223.401 62.0303 223.401 62.6364ZM236.509 64.8977L239.327 58.2727H240.793L237.139 67H235.878L232.298 58.2727H233.747L236.509 64.8977ZM233.276 58.2727V67H231.611V58.2727H233.276ZM239.787 67V58.2727H241.44V67H239.787ZM247.466 67.1761C246.606 67.1761 245.866 66.9924 245.244 66.625C244.627 66.2538 244.15 65.733 243.812 65.0625C243.479 64.3883 243.312 63.5985 243.312 62.6932C243.312 61.7992 243.479 61.0114 243.812 60.3295C244.15 59.6477 244.619 59.1155 245.222 58.733C245.828 58.3504 246.536 58.1591 247.347 58.1591C247.839 58.1591 248.316 58.2405 248.778 58.4034C249.241 58.5663 249.655 58.822 250.023 59.1705C250.39 59.5189 250.68 59.9716 250.892 60.5284C251.104 61.0814 251.21 61.7538 251.21 62.5455V63.1477H244.273V61.875H249.545C249.545 61.428 249.455 61.0322 249.273 60.6875C249.091 60.339 248.835 60.0644 248.506 59.8636C248.18 59.6629 247.797 59.5625 247.358 59.5625C246.881 59.5625 246.464 59.6799 246.108 59.9148C245.756 60.1458 245.483 60.4489 245.29 60.8239C245.1 61.1951 245.006 61.5985 245.006 62.0341V63.0284C245.006 63.6117 245.108 64.108 245.312 64.517C245.521 64.9261 245.811 65.2386 246.182 65.4545C246.553 65.6667 246.987 65.7727 247.483 65.7727C247.805 65.7727 248.098 65.7273 248.364 65.6364C248.629 65.5417 248.858 65.4015 249.051 65.2159C249.244 65.0303 249.392 64.8011 249.494 64.5284L251.102 64.8182C250.973 65.2917 250.742 65.7064 250.409 66.0625C250.08 66.4148 249.665 66.6894 249.165 66.8864C248.669 67.0795 248.102 67.1761 247.466 67.1761Z" fill="white"/>
<circle cx="126" cy="123" r="18" fill="#DCF472" stroke="#DCF472" stroke-width="4"/>
<path d="M131.727 128.75V131H120.289V129.066L125.844 123.008C126.453 122.32 126.934 121.727 127.285 121.227C127.637 120.727 127.883 120.277 128.023 119.879C128.172 119.473 128.246 119.078 128.246 118.695C128.246 118.156 128.145 117.684 127.941 117.277C127.746 116.863 127.457 116.539 127.074 116.305C126.691 116.062 126.227 115.941 125.68 115.941C125.047 115.941 124.516 116.078 124.086 116.352C123.656 116.625 123.332 117.004 123.113 117.488C122.895 117.965 122.785 118.512 122.785 119.129H119.961C119.961 118.137 120.188 117.23 120.641 116.41C121.094 115.582 121.75 114.926 122.609 114.441C123.469 113.949 124.504 113.703 125.715 113.703C126.855 113.703 127.824 113.895 128.621 114.277C129.418 114.66 130.023 115.203 130.438 115.906C130.859 116.609 131.07 117.441 131.07 118.402C131.07 118.934 130.984 119.461 130.812 119.984C130.641 120.508 130.395 121.031 130.074 121.555C129.762 122.07 129.391 122.59 128.961 123.113C128.531 123.629 128.059 124.152 127.543 124.684L123.852 128.75H131.727Z" fill="#12141D"/>
<path d="M55.1705 170.159C54.3902 170.159 53.6932 170.025 53.0795 169.756C52.4697 169.487 51.9867 169.114 51.6307 168.636C51.2784 168.155 51.089 167.598 51.0625 166.966H52.8466C52.8693 167.311 52.9848 167.61 53.1932 167.864C53.4053 168.114 53.6818 168.307 54.0227 168.443C54.3636 168.58 54.7424 168.648 55.1591 168.648C55.6174 168.648 56.0227 168.568 56.375 168.409C56.7311 168.25 57.0095 168.028 57.2102 167.744C57.411 167.456 57.5114 167.125 57.5114 166.75C57.5114 166.36 57.411 166.017 57.2102 165.722C57.0133 165.422 56.7235 165.187 56.3409 165.017C55.9621 164.847 55.5038 164.761 54.9659 164.761H53.983V163.33H54.9659C55.3977 163.33 55.7765 163.252 56.1023 163.097C56.4318 162.941 56.6894 162.725 56.875 162.449C57.0606 162.169 57.1534 161.841 57.1534 161.466C57.1534 161.106 57.072 160.794 56.9091 160.528C56.75 160.259 56.5227 160.049 56.2273 159.898C55.9356 159.746 55.5909 159.67 55.1932 159.67C54.8144 159.67 54.4602 159.741 54.1307 159.881C53.8049 160.017 53.5398 160.214 53.3352 160.472C53.1307 160.725 53.0208 161.03 53.0057 161.386H51.3068C51.3258 160.758 51.5114 160.205 51.8636 159.727C52.2197 159.25 52.6894 158.877 53.2727 158.608C53.8561 158.339 54.5038 158.205 55.2159 158.205C55.9621 158.205 56.6061 158.35 57.1477 158.642C57.6932 158.93 58.1136 159.314 58.4091 159.795C58.7083 160.277 58.8561 160.803 58.8523 161.375C58.8561 162.027 58.6742 162.58 58.3068 163.034C57.9432 163.489 57.4583 163.794 56.8523 163.949V164.04C57.625 164.157 58.2235 164.464 58.6477 164.96C59.0758 165.456 59.2879 166.072 59.2841 166.807C59.2879 167.447 59.1098 168.021 58.75 168.528C58.3939 169.036 57.9072 169.436 57.2898 169.727C56.6723 170.015 55.9659 170.159 55.1705 170.159ZM63.9943 170.193C63.4413 170.193 62.9413 170.091 62.4943 169.886C62.0473 169.678 61.6932 169.377 61.4318 168.983C61.1742 168.589 61.0455 168.106 61.0455 167.534C61.0455 167.042 61.1402 166.636 61.3295 166.318C61.5189 166 61.7746 165.748 62.0966 165.562C62.4186 165.377 62.7784 165.237 63.1761 165.142C63.5739 165.047 63.9792 164.975 64.392 164.926C64.9148 164.866 65.339 164.816 65.6648 164.778C65.9905 164.737 66.2273 164.67 66.375 164.58C66.5227 164.489 66.5966 164.341 66.5966 164.136V164.097C66.5966 163.6 66.4564 163.216 66.1761 162.943C65.8996 162.67 65.4867 162.534 64.9375 162.534C64.3655 162.534 63.9148 162.661 63.5852 162.915C63.2595 163.165 63.0341 163.443 62.9091 163.75L61.3125 163.386C61.5019 162.856 61.7784 162.428 62.142 162.102C62.5095 161.773 62.9318 161.534 63.4091 161.386C63.8864 161.235 64.3883 161.159 64.9148 161.159C65.2633 161.159 65.6326 161.201 66.0227 161.284C66.4167 161.364 66.7841 161.511 67.125 161.727C67.4697 161.943 67.7519 162.252 67.9716 162.653C68.1913 163.051 68.3011 163.568 68.3011 164.205V170H66.642V168.807H66.5739C66.464 169.027 66.2992 169.242 66.0795 169.455C65.8598 169.667 65.5777 169.843 65.233 169.983C64.8883 170.123 64.4754 170.193 63.9943 170.193ZM64.3636 168.83C64.8333 168.83 65.2348 168.737 65.5682 168.551C65.9053 168.366 66.161 168.123 66.3352 167.824C66.5133 167.521 66.6023 167.197 66.6023 166.852V165.727C66.5417 165.788 66.4242 165.845 66.25 165.898C66.0795 165.947 65.8845 165.991 65.6648 166.028C65.4451 166.062 65.2311 166.095 65.0227 166.125C64.8144 166.152 64.6402 166.174 64.5 166.193C64.1705 166.235 63.8693 166.305 63.5966 166.403C63.3277 166.502 63.1117 166.644 62.9489 166.83C62.7898 167.011 62.7102 167.254 62.7102 167.557C62.7102 167.977 62.8655 168.295 63.1761 168.511C63.4867 168.723 63.8826 168.83 64.3636 168.83ZM70.5639 170V161.273H77.6832V170H76.0185V162.739H72.2173V170H70.5639ZM83.6307 170.176C82.8125 170.176 82.0985 169.989 81.4886 169.614C80.8788 169.239 80.4053 168.714 80.0682 168.04C79.7311 167.366 79.5625 166.578 79.5625 165.676C79.5625 164.771 79.7311 163.979 80.0682 163.301C80.4053 162.623 80.8788 162.097 81.4886 161.722C82.0985 161.347 82.8125 161.159 83.6307 161.159C84.4489 161.159 85.1629 161.347 85.7727 161.722C86.3826 162.097 86.8561 162.623 87.1932 163.301C87.5303 163.979 87.6989 164.771 87.6989 165.676C87.6989 166.578 87.5303 167.366 87.1932 168.04C86.8561 168.714 86.3826 169.239 85.7727 169.614C85.1629 169.989 84.4489 170.176 83.6307 170.176ZM83.6364 168.75C84.1667 168.75 84.6061 168.61 84.9545 168.33C85.303 168.049 85.5606 167.676 85.7273 167.21C85.8977 166.744 85.983 166.231 85.983 165.67C85.983 165.114 85.8977 164.602 85.7273 164.136C85.5606 163.667 85.303 163.29 84.9545 163.006C84.6061 162.722 84.1667 162.58 83.6364 162.58C83.1023 162.58 82.6591 162.722 82.3068 163.006C81.9583 163.29 81.6989 163.667 81.5284 164.136C81.3617 164.602 81.2784 165.114 81.2784 165.67C81.2784 166.231 81.3617 166.744 81.5284 167.21C81.6989 167.676 81.9583 168.049 82.3068 168.33C82.6591 168.61 83.1023 168.75 83.6364 168.75ZM88.9077 170L88.902 168.528H89.2145C89.4569 168.528 89.6596 168.477 89.8224 168.375C89.9891 168.269 90.1255 168.091 90.2315 167.841C90.3376 167.591 90.419 167.246 90.4759 166.807C90.5327 166.364 90.5743 165.807 90.6009 165.136L90.7543 161.273H96.8452V170H95.1804V162.739H92.3281L92.1918 165.705C92.1577 166.424 92.0838 167.053 91.9702 167.591C91.8603 168.129 91.6993 168.578 91.4872 168.938C91.2751 169.294 91.0024 169.561 90.669 169.739C90.3357 169.913 89.9304 170 89.4531 170H88.9077ZM105.026 164.903V166.375H100.298V164.903H105.026ZM100.776 161.273V170H99.1108V161.273H100.776ZM106.213 161.273V170H104.554V161.273H106.213ZM113.69 170V162.722H111.599C111.103 162.722 110.717 162.837 110.44 163.068C110.164 163.299 110.026 163.602 110.026 163.977C110.026 164.348 110.152 164.648 110.406 164.875C110.664 165.098 111.024 165.21 111.486 165.21H114.185V166.585H111.486C110.842 166.585 110.285 166.479 109.815 166.267C109.349 166.051 108.99 165.746 108.736 165.352C108.486 164.958 108.361 164.492 108.361 163.955C108.361 163.405 108.49 162.932 108.747 162.534C109.009 162.133 109.382 161.822 109.866 161.602C110.355 161.383 110.933 161.273 111.599 161.273H115.287V170H113.69ZM107.963 170L110.423 165.591H112.162L109.702 170H107.963ZM121.31 170.176C120.45 170.176 119.709 169.992 119.088 169.625C118.471 169.254 117.993 168.733 117.656 168.062C117.323 167.388 117.156 166.598 117.156 165.693C117.156 164.799 117.323 164.011 117.656 163.33C117.993 162.648 118.463 162.116 119.065 161.733C119.671 161.35 120.38 161.159 121.19 161.159C121.683 161.159 122.16 161.241 122.622 161.403C123.084 161.566 123.499 161.822 123.866 162.17C124.234 162.519 124.524 162.972 124.736 163.528C124.948 164.081 125.054 164.754 125.054 165.545V166.148H118.116V164.875H123.389C123.389 164.428 123.298 164.032 123.116 163.688C122.935 163.339 122.679 163.064 122.349 162.864C122.024 162.663 121.641 162.562 121.202 162.562C120.724 162.562 120.308 162.68 119.952 162.915C119.599 163.146 119.327 163.449 119.134 163.824C118.944 164.195 118.849 164.598 118.849 165.034V166.028C118.849 166.612 118.952 167.108 119.156 167.517C119.365 167.926 119.654 168.239 120.026 168.455C120.397 168.667 120.83 168.773 121.327 168.773C121.649 168.773 121.942 168.727 122.207 168.636C122.473 168.542 122.702 168.402 122.895 168.216C123.088 168.03 123.236 167.801 123.338 167.528L124.946 167.818C124.817 168.292 124.586 168.706 124.253 169.062C123.923 169.415 123.509 169.689 123.009 169.886C122.512 170.08 121.946 170.176 121.31 170.176ZM126.169 162.739V161.273H133.533V162.739H130.686V170H129.027V162.739H126.169ZM138.685 170.176C137.825 170.176 137.084 169.992 136.463 169.625C135.846 169.254 135.368 168.733 135.031 168.062C134.698 167.388 134.531 166.598 134.531 165.693C134.531 164.799 134.698 164.011 135.031 163.33C135.368 162.648 135.838 162.116 136.44 161.733C137.046 161.35 137.755 161.159 138.565 161.159C139.058 161.159 139.535 161.241 139.997 161.403C140.459 161.566 140.874 161.822 141.241 162.17C141.609 162.519 141.899 162.972 142.111 163.528C142.323 164.081 142.429 164.754 142.429 165.545V166.148H135.491V164.875H140.764C140.764 164.428 140.673 164.032 140.491 163.688C140.31 163.339 140.054 163.064 139.724 162.864C139.399 162.663 139.016 162.562 138.577 162.562C138.099 162.562 137.683 162.68 137.327 162.915C136.974 163.146 136.702 163.449 136.509 163.824C136.319 164.195 136.224 164.598 136.224 165.034V166.028C136.224 166.612 136.327 167.108 136.531 167.517C136.74 167.926 137.029 168.239 137.401 168.455C137.772 168.667 138.205 168.773 138.702 168.773C139.024 168.773 139.317 168.727 139.582 168.636C139.848 168.542 140.077 168.402 140.27 168.216C140.463 168.03 140.611 167.801 140.713 167.528L142.321 167.818C142.192 168.292 141.961 168.706 141.628 169.062C141.298 169.415 140.884 169.689 140.384 169.886C139.887 170.08 139.321 170.176 138.685 170.176ZM151.088 170.193C150.535 170.193 150.035 170.091 149.588 169.886C149.141 169.678 148.787 169.377 148.526 168.983C148.268 168.589 148.139 168.106 148.139 167.534C148.139 167.042 148.234 166.636 148.423 166.318C148.613 166 148.868 165.748 149.19 165.562C149.512 165.377 149.872 165.237 150.27 165.142C150.668 165.047 151.073 164.975 151.486 164.926C152.009 164.866 152.433 164.816 152.759 164.778C153.084 164.737 153.321 164.67 153.469 164.58C153.616 164.489 153.69 164.341 153.69 164.136V164.097C153.69 163.6 153.55 163.216 153.27 162.943C152.993 162.67 152.58 162.534 152.031 162.534C151.459 162.534 151.009 162.661 150.679 162.915C150.353 163.165 150.128 163.443 150.003 163.75L148.406 163.386C148.596 162.856 148.872 162.428 149.236 162.102C149.603 161.773 150.026 161.534 150.503 161.386C150.98 161.235 151.482 161.159 152.009 161.159C152.357 161.159 152.726 161.201 153.116 161.284C153.51 161.364 153.878 161.511 154.219 161.727C154.563 161.943 154.846 162.252 155.065 162.653C155.285 163.051 155.395 163.568 155.395 164.205V170H153.736V168.807H153.668C153.558 169.027 153.393 169.242 153.173 169.455C152.954 169.667 152.671 169.843 152.327 169.983C151.982 170.123 151.569 170.193 151.088 170.193ZM151.457 168.83C151.927 168.83 152.329 168.737 152.662 168.551C152.999 168.366 153.255 168.123 153.429 167.824C153.607 167.521 153.696 167.197 153.696 166.852V165.727C153.635 165.788 153.518 165.845 153.344 165.898C153.173 165.947 152.978 165.991 152.759 166.028C152.539 166.062 152.325 166.095 152.116 166.125C151.908 166.152 151.734 166.174 151.594 166.193C151.264 166.235 150.963 166.305 150.69 166.403C150.421 166.502 150.205 166.644 150.043 166.83C149.884 167.011 149.804 167.254 149.804 167.557C149.804 167.977 149.959 168.295 150.27 168.511C150.58 168.723 150.976 168.83 151.457 168.83ZM163.572 164.903V166.375H158.845V164.903H163.572ZM159.322 161.273V170H157.658V161.273H159.322ZM164.76 161.273V170H163.101V161.273H164.76ZM167.033 170V161.273H168.732V164.932H169.55L172.43 161.273H174.533L171.152 165.517L174.572 170H172.464L169.834 166.511H168.732V170H167.033ZM179.294 170.176C178.434 170.176 177.694 169.992 177.072 169.625C176.455 169.254 175.978 168.733 175.641 168.062C175.307 167.388 175.141 166.598 175.141 165.693C175.141 164.799 175.307 164.011 175.641 163.33C175.978 162.648 176.447 162.116 177.05 161.733C177.656 161.35 178.364 161.159 179.175 161.159C179.667 161.159 180.144 161.241 180.607 161.403C181.069 161.566 181.483 161.822 181.851 162.17C182.218 162.519 182.508 162.972 182.72 163.528C182.932 164.081 183.038 164.754 183.038 165.545V166.148H176.101V164.875H181.374C181.374 164.428 181.283 164.032 181.101 163.688C180.919 163.339 180.663 163.064 180.334 162.864C180.008 162.663 179.625 162.562 179.186 162.562C178.709 162.562 178.292 162.68 177.936 162.915C177.584 163.146 177.311 163.449 177.118 163.824C176.929 164.195 176.834 164.598 176.834 165.034V166.028C176.834 166.612 176.936 167.108 177.141 167.517C177.349 167.926 177.639 168.239 178.01 168.455C178.381 168.667 178.815 168.773 179.311 168.773C179.633 168.773 179.927 168.727 180.192 168.636C180.457 168.542 180.686 168.402 180.879 168.216C181.072 168.03 181.22 167.801 181.322 167.528L182.93 167.818C182.802 168.292 182.571 168.706 182.237 169.062C181.908 169.415 181.493 169.689 180.993 169.886C180.497 170.08 179.93 170.176 179.294 170.176ZM184.153 162.739V161.273H191.517V162.739H188.67V170H187.011V162.739H184.153ZM194.388 173.273C194.134 173.273 193.903 173.252 193.695 173.21C193.486 173.172 193.331 173.131 193.229 173.085L193.638 171.693C193.948 171.777 194.225 171.813 194.467 171.801C194.71 171.79 194.924 171.699 195.109 171.528C195.299 171.358 195.465 171.08 195.609 170.693L195.82 170.114L192.626 161.273H194.445L196.655 168.045H196.746L198.956 161.273H200.78L197.183 171.165C197.017 171.619 196.804 172.004 196.547 172.318C196.289 172.636 195.982 172.875 195.626 173.034C195.27 173.193 194.857 173.273 194.388 173.273Z" fill="white"/>
<path d="M36.6705 193.159C35.8902 193.159 35.1932 193.025 34.5795 192.756C33.9697 192.487 33.4867 192.114 33.1307 191.636C32.7784 191.155 32.589 190.598 32.5625 189.966H34.3466C34.3693 190.311 34.4848 190.61 34.6932 190.864C34.9053 191.114 35.1818 191.307 35.5227 191.443C35.8636 191.58 36.2424 191.648 36.6591 191.648C37.1174 191.648 37.5227 191.568 37.875 191.409C38.2311 191.25 38.5095 191.028 38.7102 190.744C38.911 190.456 39.0114 190.125 39.0114 189.75C39.0114 189.36 38.911 189.017 38.7102 188.722C38.5133 188.422 38.2235 188.187 37.8409 188.017C37.4621 187.847 37.0038 187.761 36.4659 187.761H35.483V186.33H36.4659C36.8977 186.33 37.2765 186.252 37.6023 186.097C37.9318 185.941 38.1894 185.725 38.375 185.449C38.5606 185.169 38.6534 184.841 38.6534 184.466C38.6534 184.106 38.572 183.794 38.4091 183.528C38.25 183.259 38.0227 183.049 37.7273 182.898C37.4356 182.746 37.0909 182.67 36.6932 182.67C36.3144 182.67 35.9602 182.741 35.6307 182.881C35.3049 183.017 35.0398 183.214 34.8352 183.472C34.6307 183.725 34.5208 184.03 34.5057 184.386H32.8068C32.8258 183.758 33.0114 183.205 33.3636 182.727C33.7197 182.25 34.1894 181.877 34.7727 181.608C35.3561 181.339 36.0038 181.205 36.7159 181.205C37.4621 181.205 38.1061 181.35 38.6477 181.642C39.1932 181.93 39.6136 182.314 39.9091 182.795C40.2083 183.277 40.3561 183.803 40.3523 184.375C40.3561 185.027 40.1742 185.58 39.8068 186.034C39.4432 186.489 38.9583 186.794 38.3523 186.949V187.04C39.125 187.157 39.7235 187.464 40.1477 187.96C40.5758 188.456 40.7879 189.072 40.7841 189.807C40.7879 190.447 40.6098 191.021 40.25 191.528C39.8939 192.036 39.4072 192.436 38.7898 192.727C38.1723 193.015 37.4659 193.159 36.6705 193.159ZM45.4943 193.193C44.9413 193.193 44.4413 193.091 43.9943 192.886C43.5473 192.678 43.1932 192.377 42.9318 191.983C42.6742 191.589 42.5455 191.106 42.5455 190.534C42.5455 190.042 42.6402 189.636 42.8295 189.318C43.0189 189 43.2746 188.748 43.5966 188.562C43.9186 188.377 44.2784 188.237 44.6761 188.142C45.0739 188.047 45.4792 187.975 45.892 187.926C46.4148 187.866 46.839 187.816 47.1648 187.778C47.4905 187.737 47.7273 187.67 47.875 187.58C48.0227 187.489 48.0966 187.341 48.0966 187.136V187.097C48.0966 186.6 47.9564 186.216 47.6761 185.943C47.3996 185.67 46.9867 185.534 46.4375 185.534C45.8655 185.534 45.4148 185.661 45.0852 185.915C44.7595 186.165 44.5341 186.443 44.4091 186.75L42.8125 186.386C43.0019 185.856 43.2784 185.428 43.642 185.102C44.0095 184.773 44.4318 184.534 44.9091 184.386C45.3864 184.235 45.8883 184.159 46.4148 184.159C46.7633 184.159 47.1326 184.201 47.5227 184.284C47.9167 184.364 48.2841 184.511 48.625 184.727C48.9697 184.943 49.2519 185.252 49.4716 185.653C49.6913 186.051 49.8011 186.568 49.8011 187.205V193H48.142V191.807H48.0739C47.964 192.027 47.7992 192.242 47.5795 192.455C47.3598 192.667 47.0777 192.843 46.733 192.983C46.3883 193.123 45.9754 193.193 45.4943 193.193ZM45.8636 191.83C46.3333 191.83 46.7348 191.737 47.0682 191.551C47.4053 191.366 47.661 191.123 47.8352 190.824C48.0133 190.521 48.1023 190.197 48.1023 189.852V188.727C48.0417 188.788 47.9242 188.845 47.75 188.898C47.5795 188.947 47.3845 188.991 47.1648 189.028C46.9451 189.062 46.7311 189.095 46.5227 189.125C46.3144 189.152 46.1402 189.174 46 189.193C45.6705 189.235 45.3693 189.305 45.0966 189.403C44.8277 189.502 44.6117 189.644 44.4489 189.83C44.2898 190.011 44.2102 190.254 44.2102 190.557C44.2102 190.977 44.3655 191.295 44.6761 191.511C44.9867 191.723 45.3826 191.83 45.8636 191.83ZM57.6435 184.273V185.739H53.7401V193H52.0639V184.273H57.6435ZM59.4389 196.273V184.273H61.098V185.688H61.2401C61.3385 185.506 61.4806 185.295 61.6662 185.057C61.8518 184.818 62.1094 184.61 62.4389 184.432C62.7685 184.25 63.2041 184.159 63.7457 184.159C64.4503 184.159 65.0791 184.337 65.6321 184.693C66.1851 185.049 66.6188 185.562 66.9332 186.233C67.2514 186.903 67.4105 187.71 67.4105 188.653C67.4105 189.597 67.2533 190.405 66.9389 191.08C66.6245 191.75 66.1927 192.267 65.6435 192.631C65.0942 192.991 64.4673 193.17 63.7628 193.17C63.2325 193.17 62.7988 193.081 62.4616 192.903C62.1283 192.725 61.867 192.517 61.6776 192.278C61.4882 192.04 61.3423 191.828 61.2401 191.642H61.1378V196.273H59.4389ZM61.1037 188.636C61.1037 189.25 61.1927 189.788 61.3707 190.25C61.5488 190.712 61.8063 191.074 62.1435 191.335C62.4806 191.593 62.8935 191.722 63.3821 191.722C63.8897 191.722 64.3139 191.587 64.6548 191.318C64.9957 191.045 65.2533 190.676 65.4276 190.21C65.6056 189.744 65.6946 189.22 65.6946 188.636C65.6946 188.061 65.6075 187.544 65.4332 187.085C65.2628 186.627 65.0052 186.265 64.6605 186C64.3196 185.735 63.8935 185.602 63.3821 185.602C62.8897 185.602 62.473 185.729 62.1321 185.983C61.795 186.237 61.5393 186.591 61.3651 187.045C61.1908 187.5 61.1037 188.03 61.1037 188.636ZM70.0909 196.273C69.8371 196.273 69.6061 196.252 69.3977 196.21C69.1894 196.172 69.0341 196.131 68.9318 196.085L69.3409 194.693C69.6515 194.777 69.928 194.813 70.1705 194.801C70.4129 194.79 70.6269 194.699 70.8125 194.528C71.0019 194.358 71.1686 194.08 71.3125 193.693L71.5227 193.114L68.3295 184.273H70.1477L72.358 191.045H72.4489L74.6591 184.273H76.483L72.8864 194.165C72.7197 194.619 72.5076 195.004 72.25 195.318C71.9924 195.636 71.6856 195.875 71.3295 196.034C70.9735 196.193 70.5606 196.273 70.0909 196.273ZM77.5227 193L80.9034 188.534L77.5625 184.273H79.5398L82.2386 187.898H82.8466V184.273H84.5455V187.898H85.1364L87.8352 184.273H89.8125L86.4886 188.534L89.8523 193H87.8352L85.1136 189.364H84.5455V193H82.8466V189.364H82.2784L79.5398 193H77.5227ZM94.1037 193.193C93.5507 193.193 93.0507 193.091 92.6037 192.886C92.1567 192.678 91.8026 192.377 91.5412 191.983C91.2836 191.589 91.1548 191.106 91.1548 190.534C91.1548 190.042 91.2495 189.636 91.4389 189.318C91.6283 189 91.884 188.748 92.206 188.562C92.5279 188.377 92.8878 188.237 93.2855 188.142C93.6832 188.047 94.0885 187.975 94.5014 187.926C95.0241 187.866 95.4484 187.816 95.7741 187.778C96.0999 187.737 96.3366 187.67 96.4844 187.58C96.6321 187.489 96.706 187.341 96.706 187.136V187.097C96.706 186.6 96.5658 186.216 96.2855 185.943C96.009 185.67 95.5961 185.534 95.0469 185.534C94.4749 185.534 94.0241 185.661 93.6946 185.915C93.3688 186.165 93.1435 186.443 93.0185 186.75L91.4219 186.386C91.6113 185.856 91.8878 185.428 92.2514 185.102C92.6188 184.773 93.0412 184.534 93.5185 184.386C93.9957 184.235 94.4976 184.159 95.0241 184.159C95.3726 184.159 95.742 184.201 96.1321 184.284C96.526 184.364 96.8935 184.511 97.2344 184.727C97.5791 184.943 97.8613 185.252 98.081 185.653C98.3007 186.051 98.4105 186.568 98.4105 187.205V193H96.7514V191.807H96.6832C96.5734 192.027 96.4086 192.242 96.1889 192.455C95.9692 192.667 95.687 192.843 95.3423 192.983C94.9976 193.123 94.5848 193.193 94.1037 193.193ZM94.473 191.83C94.9427 191.83 95.3442 191.737 95.6776 191.551C96.0147 191.366 96.2704 191.123 96.4446 190.824C96.6226 190.521 96.7116 190.197 96.7116 189.852V188.727C96.651 188.788 96.5336 188.845 96.3594 188.898C96.1889 188.947 95.9938 188.991 95.7741 189.028C95.5545 189.062 95.3404 189.095 95.1321 189.125C94.9238 189.152 94.7495 189.174 94.6094 189.193C94.2798 189.235 93.9787 189.305 93.706 189.403C93.437 189.502 93.2211 189.644 93.0582 189.83C92.8991 190.011 92.8196 190.254 92.8196 190.557C92.8196 190.977 92.9749 191.295 93.2855 191.511C93.5961 191.723 93.992 191.83 94.473 191.83ZM104.435 193.176C103.575 193.176 102.834 192.992 102.213 192.625C101.596 192.254 101.118 191.733 100.781 191.062C100.448 190.388 100.281 189.598 100.281 188.693C100.281 187.799 100.448 187.011 100.781 186.33C101.118 185.648 101.588 185.116 102.19 184.733C102.796 184.35 103.505 184.159 104.315 184.159C104.808 184.159 105.285 184.241 105.747 184.403C106.209 184.566 106.624 184.822 106.991 185.17C107.359 185.519 107.649 185.972 107.861 186.528C108.073 187.081 108.179 187.754 108.179 188.545V189.148H101.241V187.875H106.514C106.514 187.428 106.423 187.032 106.241 186.688C106.06 186.339 105.804 186.064 105.474 185.864C105.149 185.663 104.766 185.562 104.327 185.562C103.849 185.562 103.433 185.68 103.077 185.915C102.724 186.146 102.452 186.449 102.259 186.824C102.069 187.195 101.974 187.598 101.974 188.034V189.028C101.974 189.612 102.077 190.108 102.281 190.517C102.49 190.926 102.779 191.239 103.151 191.455C103.522 191.667 103.955 191.773 104.452 191.773C104.774 191.773 105.067 191.727 105.332 191.636C105.598 191.542 105.827 191.402 106.02 191.216C106.213 191.03 106.361 190.801 106.463 190.528L108.071 190.818C107.942 191.292 107.711 191.706 107.378 192.062C107.048 192.415 106.634 192.689 106.134 192.886C105.637 193.08 105.071 193.176 104.435 193.176ZM109.294 185.739V184.273H116.658V185.739H113.811V193H112.152V185.739H109.294ZM121.81 193.176C120.95 193.176 120.209 192.992 119.588 192.625C118.971 192.254 118.493 191.733 118.156 191.062C117.823 190.388 117.656 189.598 117.656 188.693C117.656 187.799 117.823 187.011 118.156 186.33C118.493 185.648 118.963 185.116 119.565 184.733C120.171 184.35 120.88 184.159 121.69 184.159C122.183 184.159 122.66 184.241 123.122 184.403C123.584 184.566 123.999 184.822 124.366 185.17C124.734 185.519 125.024 185.972 125.236 186.528C125.448 187.081 125.554 187.754 125.554 188.545V189.148H118.616V187.875H123.889C123.889 187.428 123.798 187.032 123.616 186.688C123.435 186.339 123.179 186.064 122.849 185.864C122.524 185.663 122.141 185.562 121.702 185.562C121.224 185.562 120.808 185.68 120.452 185.915C120.099 186.146 119.827 186.449 119.634 186.824C119.444 187.195 119.349 187.598 119.349 188.034V189.028C119.349 189.612 119.452 190.108 119.656 190.517C119.865 190.926 120.154 191.239 120.526 191.455C120.897 191.667 121.33 191.773 121.827 191.773C122.149 191.773 122.442 191.727 122.707 191.636C122.973 191.542 123.202 191.402 123.395 191.216C123.588 191.03 123.736 190.801 123.838 190.528L125.446 190.818C125.317 191.292 125.086 191.706 124.753 192.062C124.423 192.415 124.009 192.689 123.509 192.886C123.012 193.08 122.446 193.176 121.81 193.176ZM130.821 195.517V191.528H131.531C131.713 191.362 131.866 191.163 131.991 190.932C132.12 190.701 132.228 190.426 132.315 190.108C132.406 189.79 132.482 189.419 132.543 188.994C132.603 188.566 132.656 188.078 132.702 187.528L132.974 184.273H138.906V191.528H140.247V195.517H138.588V193H132.503V195.517H130.821ZM133.349 191.528H137.247V185.727H134.497L134.315 187.528C134.228 188.445 134.118 189.241 133.986 189.915C133.853 190.585 133.641 191.123 133.349 191.528ZM145.584 193.176C144.766 193.176 144.052 192.989 143.442 192.614C142.832 192.239 142.358 191.714 142.021 191.04C141.684 190.366 141.516 189.578 141.516 188.676C141.516 187.771 141.684 186.979 142.021 186.301C142.358 185.623 142.832 185.097 143.442 184.722C144.052 184.347 144.766 184.159 145.584 184.159C146.402 184.159 147.116 184.347 147.726 184.722C148.336 185.097 148.809 185.623 149.146 186.301C149.483 186.979 149.652 187.771 149.652 188.676C149.652 189.578 149.483 190.366 149.146 191.04C148.809 191.714 148.336 192.239 147.726 192.614C147.116 192.989 146.402 193.176 145.584 193.176ZM145.589 191.75C146.12 191.75 146.559 191.61 146.908 191.33C147.256 191.049 147.514 190.676 147.68 190.21C147.851 189.744 147.936 189.231 147.936 188.67C147.936 188.114 147.851 187.602 147.68 187.136C147.514 186.667 147.256 186.29 146.908 186.006C146.559 185.722 146.12 185.58 145.589 185.58C145.055 185.58 144.612 185.722 144.26 186.006C143.911 186.29 143.652 186.667 143.482 187.136C143.315 187.602 143.232 188.114 143.232 188.67C143.232 189.231 143.315 189.744 143.482 190.21C143.652 190.676 143.911 191.049 144.26 191.33C144.612 191.61 145.055 191.75 145.589 191.75ZM151.548 193V184.273H153.247V187.932H154.065L156.946 184.273H159.048L155.668 188.517L159.088 193H156.98L154.349 189.511H153.247V193H151.548ZM161.528 196.273C161.275 196.273 161.044 196.252 160.835 196.21C160.627 196.172 160.472 196.131 160.369 196.085L160.778 194.693C161.089 194.777 161.366 194.813 161.608 194.801C161.85 194.79 162.064 194.699 162.25 194.528C162.439 194.358 162.606 194.08 162.75 193.693L162.96 193.114L159.767 184.273H161.585L163.795 191.045H163.886L166.097 184.273H167.92L164.324 194.165C164.157 194.619 163.945 195.004 163.688 195.318C163.43 195.636 163.123 195.875 162.767 196.034C162.411 196.193 161.998 196.273 161.528 196.273ZM174.415 190.898L177.233 184.273H178.699L175.045 193H173.784L170.205 184.273H171.653L174.415 190.898ZM171.182 184.273V193H169.517V184.273H171.182ZM177.693 193V184.273H179.347V193H177.693ZM185.372 193.176C184.512 193.176 183.772 192.992 183.151 192.625C182.533 192.254 182.056 191.733 181.719 191.062C181.385 190.388 181.219 189.598 181.219 188.693C181.219 187.799 181.385 187.011 181.719 186.33C182.056 185.648 182.526 185.116 183.128 184.733C183.734 184.35 184.442 184.159 185.253 184.159C185.745 184.159 186.223 184.241 186.685 184.403C187.147 184.566 187.562 184.822 187.929 185.17C188.296 185.519 188.586 185.972 188.798 186.528C189.01 187.081 189.116 187.754 189.116 188.545V189.148H182.179V187.875H187.452C187.452 187.428 187.361 187.032 187.179 186.688C186.997 186.339 186.741 186.064 186.412 185.864C186.086 185.663 185.704 185.562 185.264 185.562C184.787 185.562 184.37 185.68 184.014 185.915C183.662 186.146 183.389 186.449 183.196 186.824C183.007 187.195 182.912 187.598 182.912 188.034V189.028C182.912 189.612 183.014 190.108 183.219 190.517C183.427 190.926 183.717 191.239 184.088 191.455C184.459 191.667 184.893 191.773 185.389 191.773C185.711 191.773 186.005 191.727 186.27 191.636C186.535 191.542 186.764 191.402 186.957 191.216C187.151 191.03 187.298 190.801 187.401 190.528L189.009 190.818C188.88 191.292 188.649 191.706 188.315 192.062C187.986 192.415 187.571 192.689 187.071 192.886C186.575 193.08 186.009 193.176 185.372 193.176ZM196.916 187.903V189.375H192.189V187.903H196.916ZM192.666 184.273V193H191.001V184.273H192.666ZM198.104 184.273V193H196.445V184.273H198.104ZM199.294 185.739V184.273H206.658V185.739H203.811V193H202.152V185.739H199.294ZM209.733 187.273H212.267C213.335 187.273 214.157 187.538 214.733 188.068C215.309 188.598 215.597 189.282 215.597 190.119C215.597 190.665 215.468 191.155 215.21 191.591C214.953 192.027 214.576 192.371 214.08 192.625C213.583 192.875 212.979 193 212.267 193H208.455V184.273H210.119V191.534H212.267C212.756 191.534 213.157 191.407 213.472 191.153C213.786 190.896 213.943 190.568 213.943 190.17C213.943 189.75 213.786 189.407 213.472 189.142C213.157 188.873 212.756 188.739 212.267 188.739H209.733V187.273ZM216.835 193V184.273H218.534V193H216.835Z" fill="white"/>
<circle cx="126" cy="249" r="18" fill="#DCF472" stroke="#DCF472" stroke-width="4"/>
<path d="M123.605 247.191H125.293C125.949 247.191 126.492 247.078 126.922 246.852C127.359 246.625 127.684 246.312 127.895 245.914C128.105 245.516 128.211 245.059 128.211 244.543C128.211 244.004 128.113 243.543 127.918 243.16C127.73 242.77 127.441 242.469 127.051 242.258C126.668 242.047 126.18 241.941 125.586 241.941C125.086 241.941 124.633 242.043 124.227 242.246C123.828 242.441 123.512 242.723 123.277 243.09C123.043 243.449 122.926 243.879 122.926 244.379H120.09C120.09 243.473 120.328 242.668 120.805 241.965C121.281 241.262 121.93 240.711 122.75 240.312C123.578 239.906 124.508 239.703 125.539 239.703C126.641 239.703 127.602 239.887 128.422 240.254C129.25 240.613 129.895 241.152 130.355 241.871C130.816 242.59 131.047 243.48 131.047 244.543C131.047 245.027 130.934 245.52 130.707 246.02C130.48 246.52 130.145 246.977 129.699 247.391C129.254 247.797 128.699 248.129 128.035 248.387C127.371 248.637 126.602 248.762 125.727 248.762H123.605V247.191ZM123.605 249.395V247.848H125.727C126.727 247.848 127.578 247.965 128.281 248.199C128.992 248.434 129.57 248.758 130.016 249.172C130.461 249.578 130.785 250.043 130.988 250.566C131.199 251.09 131.305 251.645 131.305 252.23C131.305 253.027 131.16 253.738 130.871 254.363C130.59 254.98 130.188 255.504 129.664 255.934C129.141 256.363 128.527 256.688 127.824 256.906C127.129 257.125 126.371 257.234 125.551 257.234C124.816 257.234 124.113 257.133 123.441 256.93C122.77 256.727 122.168 256.426 121.637 256.027C121.105 255.621 120.684 255.117 120.371 254.516C120.066 253.906 119.914 253.203 119.914 252.406H122.738C122.738 252.914 122.855 253.363 123.09 253.754C123.332 254.137 123.668 254.438 124.098 254.656C124.535 254.875 125.035 254.984 125.598 254.984C126.191 254.984 126.703 254.879 127.133 254.668C127.562 254.457 127.891 254.145 128.117 253.73C128.352 253.316 128.469 252.816 128.469 252.23C128.469 251.566 128.34 251.027 128.082 250.613C127.824 250.199 127.457 249.895 126.98 249.699C126.504 249.496 125.941 249.395 125.293 249.395H123.605Z" fill="#12141D"/>
<path d="M23.875 284.364V296H22.125V285.864H16.6477V296H14.8977V284.364H23.875ZM30.0994 296.176C29.2813 296.176 28.5672 295.989 27.9574 295.614C27.3475 295.239 26.8741 294.714 26.5369 294.04C26.1998 293.366 26.0312 292.578 26.0312 291.676C26.0312 290.771 26.1998 289.979 26.5369 289.301C26.8741 288.623 27.3475 288.097 27.9574 287.722C28.5672 287.347 29.2813 287.159 30.0994 287.159C30.9176 287.159 31.6316 287.347 32.2415 287.722C32.8513 288.097 33.3248 288.623 33.6619 289.301C33.9991 289.979 34.1676 290.771 34.1676 291.676C34.1676 292.578 33.9991 293.366 33.6619 294.04C33.3248 294.714 32.8513 295.239 32.2415 295.614C31.6316 295.989 30.9176 296.176 30.0994 296.176ZM30.1051 294.75C30.6354 294.75 31.0748 294.61 31.4233 294.33C31.7718 294.049 32.0294 293.676 32.196 293.21C32.3665 292.744 32.4517 292.231 32.4517 291.67C32.4517 291.114 32.3665 290.602 32.196 290.136C32.0294 289.667 31.7718 289.29 31.4233 289.006C31.0748 288.722 30.6354 288.58 30.1051 288.58C29.571 288.58 29.1278 288.722 28.7756 289.006C28.4271 289.29 28.1676 289.667 27.9972 290.136C27.8305 290.602 27.7472 291.114 27.7472 291.67C27.7472 292.231 27.8305 292.744 27.9972 293.21C28.1676 293.676 28.4271 294.049 28.7756 294.33C29.1278 294.61 29.571 294.75 30.1051 294.75ZM35.2116 298.517V294.528H35.9219C36.1037 294.362 36.2571 294.163 36.3821 293.932C36.5109 293.701 36.6188 293.426 36.706 293.108C36.7969 292.79 36.8726 292.419 36.9332 291.994C36.9938 291.566 37.0469 291.078 37.0923 290.528L37.3651 287.273H43.2969V294.528H44.6378V298.517H42.9787V296H36.8935V298.517H35.2116ZM37.7401 294.528H41.6378V288.727H38.8878L38.706 290.528C38.6188 291.445 38.509 292.241 38.3764 292.915C38.2438 293.585 38.0317 294.123 37.7401 294.528ZM53.0312 284.023L53.7358 285.097C53.4744 285.335 53.1771 285.506 52.8438 285.608C52.5142 285.706 52.1335 285.769 51.7017 285.795C51.2699 285.818 50.7756 285.839 50.2188 285.858C49.59 285.877 49.0729 286.013 48.6676 286.267C48.2623 286.517 47.9498 286.888 47.7301 287.381C47.5142 287.869 47.3741 288.483 47.3097 289.222H47.4176C47.7017 288.68 48.0956 288.275 48.5994 288.006C49.107 287.737 49.6771 287.602 50.3097 287.602C51.0142 287.602 51.6411 287.763 52.1903 288.085C52.7396 288.407 53.1714 288.879 53.4858 289.5C53.804 290.117 53.9631 290.873 53.9631 291.767C53.9631 292.672 53.7964 293.455 53.4631 294.114C53.1335 294.773 52.6676 295.282 52.0653 295.642C51.4669 295.998 50.7604 296.176 49.946 296.176C49.1316 296.176 48.4214 295.992 47.8153 295.625C47.2131 295.254 46.7453 294.705 46.4119 293.977C46.0824 293.25 45.9176 292.352 45.9176 291.284V290.42C45.9176 288.424 46.2737 286.922 46.9858 285.915C47.6979 284.907 48.7623 284.39 50.179 284.364C50.6373 284.352 51.0464 284.35 51.4062 284.358C51.7661 284.362 52.0805 284.345 52.3494 284.307C52.6222 284.265 52.8494 284.17 53.0312 284.023ZM49.9517 294.75C50.4252 294.75 50.8324 294.631 51.1733 294.392C51.518 294.15 51.7831 293.807 51.9688 293.364C52.1544 292.92 52.2472 292.398 52.2472 291.795C52.2472 291.205 52.1544 290.703 51.9688 290.29C51.7831 289.877 51.518 289.562 51.1733 289.347C50.8286 289.127 50.4157 289.017 49.9347 289.017C49.5786 289.017 49.2604 289.08 48.9801 289.205C48.6998 289.326 48.4593 289.506 48.2585 289.744C48.0616 289.983 47.9081 290.275 47.7983 290.619C47.6922 290.96 47.6354 291.352 47.6278 291.795C47.6278 292.697 47.8343 293.415 48.2472 293.949C48.6638 294.483 49.232 294.75 49.9517 294.75ZM57.5256 293.619L61.3722 287.273H63.2017V296H61.5369V289.648L57.7074 296H55.8608V287.273H57.5256V293.619ZM65.4858 299.273V287.273H67.1449V288.688H67.2869C67.3854 288.506 67.5275 288.295 67.7131 288.057C67.8987 287.818 68.1563 287.61 68.4858 287.432C68.8153 287.25 69.2509 287.159 69.7926 287.159C70.4972 287.159 71.1259 287.337 71.679 287.693C72.232 288.049 72.6657 288.562 72.9801 289.233C73.2983 289.903 73.4574 290.71 73.4574 291.653C73.4574 292.597 73.3002 293.405 72.9858 294.08C72.6714 294.75 72.2396 295.267 71.6903 295.631C71.1411 295.991 70.5142 296.17 69.8097 296.17C69.2794 296.17 68.8456 296.081 68.5085 295.903C68.1752 295.725 67.9138 295.517 67.7244 295.278C67.535 295.04 67.3892 294.828 67.2869 294.642H67.1847V299.273H65.4858ZM67.1506 291.636C67.1506 292.25 67.2396 292.788 67.4176 293.25C67.5956 293.712 67.8532 294.074 68.1903 294.335C68.5275 294.593 68.9403 294.722 69.429 294.722C69.9366 294.722 70.3608 294.587 70.7017 294.318C71.0426 294.045 71.3002 293.676 71.4744 293.21C71.6525 292.744 71.7415 292.22 71.7415 291.636C71.7415 291.061 71.6544 290.544 71.4801 290.085C71.3097 289.627 71.0521 289.265 70.7074 289C70.3665 288.735 69.9403 288.602 69.429 288.602C68.9366 288.602 68.5199 288.729 68.179 288.983C67.8419 289.237 67.5862 289.591 67.4119 290.045C67.2377 290.5 67.1506 291.03 67.1506 291.636ZM77.9006 296.193C77.3475 296.193 76.8475 296.091 76.4006 295.886C75.9536 295.678 75.5994 295.377 75.3381 294.983C75.0805 294.589 74.9517 294.106 74.9517 293.534C74.9517 293.042 75.0464 292.636 75.2358 292.318C75.4252 292 75.6809 291.748 76.0028 291.562C76.3248 291.377 76.6847 291.237 77.0824 291.142C77.4801 291.047 77.8854 290.975 78.2983 290.926C78.821 290.866 79.2453 290.816 79.571 290.778C79.8968 290.737 80.1335 290.67 80.2812 290.58C80.429 290.489 80.5028 290.341 80.5028 290.136V290.097C80.5028 289.6 80.3627 289.216 80.0824 288.943C79.8059 288.67 79.393 288.534 78.8438 288.534C78.2718 288.534 77.821 288.661 77.4915 288.915C77.1657 289.165 76.9403 289.443 76.8153 289.75L75.2188 289.386C75.4081 288.856 75.6847 288.428 76.0483 288.102C76.4157 287.773 76.8381 287.534 77.3153 287.386C77.7926 287.235 78.2945 287.159 78.821 287.159C79.1695 287.159 79.5388 287.201 79.929 287.284C80.3229 287.364 80.6903 287.511 81.0312 287.727C81.3759 287.943 81.6581 288.252 81.8778 288.653C82.0975 289.051 82.2074 289.568 82.2074 290.205V296H80.5483V294.807H80.4801C80.3703 295.027 80.2055 295.242 79.9858 295.455C79.7661 295.667 79.4839 295.843 79.1392 295.983C78.7945 296.123 78.3816 296.193 77.9006 296.193ZM78.2699 294.83C78.7396 294.83 79.1411 294.737 79.4744 294.551C79.8116 294.366 80.0672 294.123 80.2415 293.824C80.4195 293.521 80.5085 293.197 80.5085 292.852V291.727C80.4479 291.788 80.3305 291.845 80.1562 291.898C79.9858 291.947 79.7907 291.991 79.571 292.028C79.3513 292.062 79.1373 292.095 78.929 292.125C78.7206 292.152 78.5464 292.174 78.4062 292.193C78.0767 292.235 77.7756 292.305 77.5028 292.403C77.2339 292.502 77.018 292.644 76.8551 292.83C76.696 293.011 76.6165 293.254 76.6165 293.557C76.6165 293.977 76.7718 294.295 77.0824 294.511C77.393 294.723 77.7888 294.83 78.2699 294.83ZM88.2315 296.176C87.3717 296.176 86.6312 295.992 86.0099 295.625C85.3925 295.254 84.9152 294.733 84.5781 294.062C84.2448 293.388 84.0781 292.598 84.0781 291.693C84.0781 290.799 84.2448 290.011 84.5781 289.33C84.9152 288.648 85.3849 288.116 85.9872 287.733C86.5933 287.35 87.3016 287.159 88.1122 287.159C88.6046 287.159 89.0819 287.241 89.544 287.403C90.0062 287.566 90.4209 287.822 90.7884 288.17C91.1558 288.519 91.4455 288.972 91.6577 289.528C91.8698 290.081 91.9759 290.754 91.9759 291.545V292.148H85.0384V290.875H90.3111C90.3111 290.428 90.2202 290.032 90.0384 289.688C89.8565 289.339 89.6009 289.064 89.2713 288.864C88.9455 288.663 88.563 288.562 88.1236 288.562C87.6463 288.562 87.2296 288.68 86.8736 288.915C86.5213 289.146 86.2486 289.449 86.0554 289.824C85.866 290.195 85.7713 290.598 85.7713 291.034V292.028C85.7713 292.612 85.8736 293.108 86.0781 293.517C86.2865 293.926 86.5762 294.239 86.9474 294.455C87.3187 294.667 87.7524 294.773 88.2486 294.773C88.5705 294.773 88.8641 294.727 89.1293 294.636C89.3944 294.542 89.6236 294.402 89.8168 294.216C90.0099 294.03 90.1577 293.801 90.2599 293.528L91.8679 293.818C91.7391 294.292 91.508 294.706 91.1747 295.062C90.8452 295.415 90.4304 295.689 89.9304 295.886C89.4342 296.08 88.8679 296.176 88.2315 296.176ZM98.7585 293.898L101.577 287.273H103.043L99.3892 296H98.1278L94.5483 287.273H95.9972L98.7585 293.898ZM95.5256 287.273V296H93.8608V287.273H95.5256ZM102.037 296V287.273H103.69V296H102.037ZM109.501 296L109.496 294.528H109.808C110.051 294.528 110.253 294.477 110.416 294.375C110.583 294.269 110.719 294.091 110.825 293.841C110.931 293.591 111.013 293.246 111.07 292.807C111.126 292.364 111.168 291.807 111.195 291.136L111.348 287.273H117.439V296H115.774V288.739H112.922L112.786 291.705C112.751 292.424 112.678 293.053 112.564 293.591C112.454 294.129 112.293 294.578 112.081 294.938C111.869 295.294 111.596 295.561 111.263 295.739C110.929 295.913 110.524 296 110.047 296H109.501ZM120.466 299.273C120.212 299.273 119.981 299.252 119.773 299.21C119.564 299.172 119.409 299.131 119.307 299.085L119.716 297.693C120.027 297.777 120.303 297.813 120.545 297.801C120.788 297.79 121.002 297.699 121.188 297.528C121.377 297.358 121.544 297.08 121.688 296.693L121.898 296.114L118.705 287.273H120.523L122.733 294.045H122.824L125.034 287.273H126.858L123.261 297.165C123.095 297.619 122.883 298.004 122.625 298.318C122.367 298.636 122.061 298.875 121.705 299.034C121.348 299.193 120.936 299.273 120.466 299.273ZM135.21 287.273V296H133.551V287.273H135.21ZM134.489 291.324V292.79C134.227 292.896 133.951 292.991 133.659 293.074C133.367 293.153 133.061 293.216 132.739 293.261C132.417 293.307 132.081 293.33 131.733 293.33C130.653 293.33 129.795 293.066 129.159 292.54C128.523 292.009 128.205 291.199 128.205 290.108V287.256H129.858V290.108C129.858 290.521 129.934 290.856 130.085 291.114C130.237 291.371 130.453 291.561 130.733 291.682C131.013 291.803 131.347 291.864 131.733 291.864C132.244 291.864 132.716 291.816 133.148 291.722C133.583 291.623 134.03 291.491 134.489 291.324ZM137.47 287.273H139.135V294.528H142.152V287.273H143.817V294.528H146.834V287.273H148.499V296H137.47V287.273ZM152.432 293.619L156.278 287.273H158.108V296H156.443V289.648L152.614 296H150.767V287.273H152.432V293.619ZM164.153 296.176C163.294 296.176 162.553 295.992 161.932 295.625C161.314 295.254 160.837 294.733 160.5 294.062C160.167 293.388 160 292.598 160 291.693C160 290.799 160.167 290.011 160.5 289.33C160.837 288.648 161.307 288.116 161.909 287.733C162.515 287.35 163.223 287.159 164.034 287.159C164.527 287.159 165.004 287.241 165.466 287.403C165.928 287.566 166.343 287.822 166.71 288.17C167.078 288.519 167.367 288.972 167.58 289.528C167.792 290.081 167.898 290.754 167.898 291.545V292.148H160.96V290.875H166.233C166.233 290.428 166.142 290.032 165.96 289.688C165.778 289.339 165.523 289.064 165.193 288.864C164.867 288.663 164.485 288.562 164.045 288.562C163.568 288.562 163.152 288.68 162.795 288.915C162.443 289.146 162.17 289.449 161.977 289.824C161.788 290.195 161.693 290.598 161.693 291.034V292.028C161.693 292.612 161.795 293.108 162 293.517C162.208 293.926 162.498 294.239 162.869 294.455C163.241 294.667 163.674 294.773 164.17 294.773C164.492 294.773 164.786 294.727 165.051 294.636C165.316 294.542 165.545 294.402 165.739 294.216C165.932 294.03 166.08 293.801 166.182 293.528L167.79 293.818C167.661 294.292 167.43 294.706 167.097 295.062C166.767 295.415 166.352 295.689 165.852 295.886C165.356 296.08 164.79 296.176 164.153 296.176ZM175.091 299.273C174.837 299.273 174.606 299.252 174.398 299.21C174.189 299.172 174.034 299.131 173.932 299.085L174.341 297.693C174.652 297.777 174.928 297.813 175.17 297.801C175.413 297.79 175.627 297.699 175.812 297.528C176.002 297.358 176.169 297.08 176.312 296.693L176.523 296.114L173.33 287.273H175.148L177.358 294.045H177.449L179.659 287.273H181.483L177.886 297.165C177.72 297.619 177.508 298.004 177.25 298.318C176.992 298.636 176.686 298.875 176.33 299.034C175.973 299.193 175.561 299.273 175.091 299.273ZM186.459 296.176C185.614 296.176 184.887 295.985 184.277 295.602C183.671 295.216 183.205 294.684 182.879 294.006C182.554 293.328 182.391 292.551 182.391 291.676C182.391 290.79 182.557 290.008 182.891 289.33C183.224 288.648 183.694 288.116 184.3 287.733C184.906 287.35 185.62 287.159 186.442 287.159C187.105 287.159 187.696 287.282 188.214 287.528C188.733 287.771 189.152 288.112 189.47 288.551C189.792 288.991 189.983 289.504 190.044 290.091H188.391C188.3 289.682 188.091 289.33 187.766 289.034C187.444 288.739 187.012 288.591 186.47 288.591C185.997 288.591 185.582 288.716 185.226 288.966C184.874 289.212 184.599 289.564 184.402 290.023C184.205 290.477 184.107 291.015 184.107 291.636C184.107 292.273 184.203 292.822 184.396 293.284C184.589 293.746 184.862 294.104 185.214 294.358C185.571 294.612 185.989 294.739 186.47 294.739C186.792 294.739 187.084 294.68 187.345 294.562C187.61 294.441 187.832 294.269 188.01 294.045C188.192 293.822 188.319 293.553 188.391 293.239H190.044C189.983 293.803 189.8 294.307 189.493 294.75C189.186 295.193 188.775 295.542 188.26 295.795C187.749 296.049 187.148 296.176 186.459 296.176ZM191.173 296L191.168 294.528H191.48C191.723 294.528 191.925 294.477 192.088 294.375C192.255 294.269 192.391 294.091 192.497 293.841C192.603 293.591 192.685 293.246 192.741 292.807C192.798 292.364 192.84 291.807 192.866 291.136L193.02 287.273H199.111V296H197.446V288.739H194.594L194.457 291.705C194.423 292.424 194.349 293.053 194.236 293.591C194.126 294.129 193.965 294.578 193.753 294.938C193.541 295.294 193.268 295.561 192.935 295.739C192.601 295.913 192.196 296 191.719 296H191.173ZM205.053 296.176C204.234 296.176 203.52 295.989 202.911 295.614C202.301 295.239 201.827 294.714 201.49 294.04C201.153 293.366 200.984 292.578 200.984 291.676C200.984 290.771 201.153 289.979 201.49 289.301C201.827 288.623 202.301 288.097 202.911 287.722C203.52 287.347 204.234 287.159 205.053 287.159C205.871 287.159 206.585 287.347 207.195 287.722C207.804 288.097 208.278 288.623 208.615 289.301C208.952 289.979 209.121 290.771 209.121 291.676C209.121 292.578 208.952 293.366 208.615 294.04C208.278 294.714 207.804 295.239 207.195 295.614C206.585 295.989 205.871 296.176 205.053 296.176ZM205.058 294.75C205.589 294.75 206.028 294.61 206.376 294.33C206.725 294.049 206.982 293.676 207.149 293.21C207.32 292.744 207.405 292.231 207.405 291.67C207.405 291.114 207.32 290.602 207.149 290.136C206.982 289.667 206.725 289.29 206.376 289.006C206.028 288.722 205.589 288.58 205.058 288.58C204.524 288.58 204.081 288.722 203.729 289.006C203.38 289.29 203.121 289.667 202.95 290.136C202.784 290.602 202.7 291.114 202.7 291.67C202.7 292.231 202.784 292.744 202.95 293.21C203.121 293.676 203.38 294.049 203.729 294.33C204.081 294.61 204.524 294.75 205.058 294.75ZM211.017 296V287.273H214.636C215.621 287.273 216.402 287.483 216.977 287.903C217.553 288.32 217.841 288.886 217.841 289.602C217.841 290.114 217.678 290.519 217.352 290.818C217.027 291.117 216.595 291.318 216.057 291.42C216.447 291.466 216.805 291.583 217.131 291.773C217.456 291.958 217.718 292.208 217.915 292.523C218.116 292.837 218.216 293.212 218.216 293.648C218.216 294.11 218.097 294.519 217.858 294.875C217.619 295.227 217.273 295.504 216.818 295.705C216.367 295.902 215.824 296 215.188 296H211.017ZM212.614 294.58H215.188C215.608 294.58 215.938 294.479 216.176 294.278C216.415 294.078 216.534 293.805 216.534 293.46C216.534 293.055 216.415 292.737 216.176 292.506C215.938 292.271 215.608 292.153 215.188 292.153H212.614V294.58ZM212.614 290.909H214.653C214.972 290.909 215.244 290.864 215.472 290.773C215.703 290.682 215.879 290.553 216 290.386C216.125 290.216 216.188 290.015 216.188 289.784C216.188 289.447 216.049 289.184 215.773 288.994C215.496 288.805 215.117 288.71 214.636 288.71H212.614V290.909ZM221.744 293.619L225.591 287.273H227.42V296H225.756V289.648L221.926 296H220.08V287.273H221.744V293.619ZM234.909 296V288.722H232.818C232.322 288.722 231.936 288.837 231.659 289.068C231.383 289.299 231.244 289.602 231.244 289.977C231.244 290.348 231.371 290.648 231.625 290.875C231.883 291.098 232.242 291.21 232.705 291.21H235.403V292.585H232.705C232.061 292.585 231.504 292.479 231.034 292.267C230.568 292.051 230.208 291.746 229.955 291.352C229.705 290.958 229.58 290.492 229.58 289.955C229.58 289.405 229.708 288.932 229.966 288.534C230.227 288.133 230.6 287.822 231.085 287.602C231.574 287.383 232.152 287.273 232.818 287.273H236.506V296H234.909ZM229.182 296L231.642 291.591H233.381L230.92 296H229.182Z" fill="white"/>
<circle cx="126" cy="352" r="18" fill="#DCF472" stroke="#DCF472" stroke-width="4"/>
<path d="M132.043 353.918V356.168H119.738L119.645 354.469L127.004 342.938H129.266L126.816 347.133L122.586 353.918H132.043ZM129.91 342.938V360H127.086V342.938H129.91Z" fill="#12141D"/>
<path d="M50.875 387.364V399H49.125V388.864H43.6477V399H41.8977V387.364H50.875ZM57.0994 399.176C56.2813 399.176 55.5672 398.989 54.9574 398.614C54.3475 398.239 53.8741 397.714 53.5369 397.04C53.1998 396.366 53.0312 395.578 53.0312 394.676C53.0312 393.771 53.1998 392.979 53.5369 392.301C53.8741 391.623 54.3475 391.097 54.9574 390.722C55.5672 390.347 56.2813 390.159 57.0994 390.159C57.9176 390.159 58.6316 390.347 59.2415 390.722C59.8513 391.097 60.3248 391.623 60.6619 392.301C60.9991 392.979 61.1676 393.771 61.1676 394.676C61.1676 395.578 60.9991 396.366 60.6619 397.04C60.3248 397.714 59.8513 398.239 59.2415 398.614C58.6316 398.989 57.9176 399.176 57.0994 399.176ZM57.1051 397.75C57.6354 397.75 58.0748 397.61 58.4233 397.33C58.7718 397.049 59.0294 396.676 59.196 396.21C59.3665 395.744 59.4517 395.231 59.4517 394.67C59.4517 394.114 59.3665 393.602 59.196 393.136C59.0294 392.667 58.7718 392.29 58.4233 392.006C58.0748 391.722 57.6354 391.58 57.1051 391.58C56.571 391.58 56.1278 391.722 55.7756 392.006C55.4271 392.29 55.1676 392.667 54.9972 393.136C54.8305 393.602 54.7472 394.114 54.7472 394.67C54.7472 395.231 54.8305 395.744 54.9972 396.21C55.1676 396.676 55.4271 397.049 55.7756 397.33C56.1278 397.61 56.571 397.75 57.1051 397.75ZM62.3764 399L62.3707 397.528H62.6832C62.9257 397.528 63.1283 397.477 63.2912 397.375C63.4579 397.269 63.5942 397.091 63.7003 396.841C63.8063 396.591 63.8878 396.246 63.9446 395.807C64.0014 395.364 64.0431 394.807 64.0696 394.136L64.223 390.273H70.3139V399H68.6491V391.739H65.7969L65.6605 394.705C65.6264 395.424 65.5526 396.053 65.4389 396.591C65.3291 397.129 65.1681 397.578 64.956 397.938C64.7438 398.294 64.4711 398.561 64.1378 398.739C63.8045 398.913 63.3991 399 62.9219 399H62.3764ZM73.3409 402.273C73.0871 402.273 72.8561 402.252 72.6477 402.21C72.4394 402.172 72.2841 402.131 72.1818 402.085L72.5909 400.693C72.9015 400.777 73.178 400.813 73.4205 400.801C73.6629 400.79 73.8769 400.699 74.0625 400.528C74.2519 400.358 74.4186 400.08 74.5625 399.693L74.7727 399.114L71.5795 390.273H73.3977L75.608 397.045H75.6989L77.9091 390.273H79.733L76.1364 400.165C75.9697 400.619 75.7576 401.004 75.5 401.318C75.2424 401.636 74.9356 401.875 74.5795 402.034C74.2235 402.193 73.8106 402.273 73.3409 402.273ZM88.0852 390.273V399H86.4261V390.273H88.0852ZM87.3636 394.324V395.79C87.1023 395.896 86.8258 395.991 86.5341 396.074C86.2424 396.153 85.9356 396.216 85.6136 396.261C85.2917 396.307 84.9564 396.33 84.608 396.33C83.5284 396.33 82.6705 396.066 82.0341 395.54C81.3977 395.009 81.0795 394.199 81.0795 393.108V390.256H82.733V393.108C82.733 393.521 82.8087 393.856 82.9602 394.114C83.1117 394.371 83.3277 394.561 83.608 394.682C83.8883 394.803 84.2216 394.864 84.608 394.864C85.1193 394.864 85.5909 394.816 86.0227 394.722C86.4583 394.623 86.9053 394.491 87.3636 394.324ZM92.8849 399.193C92.3319 399.193 91.8319 399.091 91.3849 398.886C90.938 398.678 90.5838 398.377 90.3224 397.983C90.0649 397.589 89.9361 397.106 89.9361 396.534C89.9361 396.042 90.0308 395.636 90.2202 395.318C90.4096 395 90.6652 394.748 90.9872 394.562C91.3092 394.377 91.669 394.237 92.0668 394.142C92.4645 394.047 92.8698 393.975 93.2827 393.926C93.8054 393.866 94.2296 393.816 94.5554 393.778C94.8812 393.737 95.1179 393.67 95.2656 393.58C95.4134 393.489 95.4872 393.341 95.4872 393.136V393.097C95.4872 392.6 95.3471 392.216 95.0668 391.943C94.7902 391.67 94.3774 391.534 93.8281 391.534C93.2562 391.534 92.8054 391.661 92.4759 391.915C92.1501 392.165 91.9247 392.443 91.7997 392.75L90.2031 392.386C90.3925 391.856 90.669 391.428 91.0327 391.102C91.4001 390.773 91.8224 390.534 92.2997 390.386C92.777 390.235 93.2789 390.159 93.8054 390.159C94.1539 390.159 94.5232 390.201 94.9134 390.284C95.3073 390.364 95.6747 390.511 96.0156 390.727C96.3603 390.943 96.6425 391.252 96.8622 391.653C97.0819 392.051 97.1918 392.568 97.1918 393.205V399H95.5327V397.807H95.4645C95.3546 398.027 95.1899 398.242 94.9702 398.455C94.7505 398.667 94.4683 398.843 94.1236 398.983C93.7789 399.123 93.366 399.193 92.8849 399.193ZM93.2543 397.83C93.724 397.83 94.1255 397.737 94.4588 397.551C94.7959 397.366 95.0516 397.123 95.2259 396.824C95.4039 396.521 95.4929 396.197 95.4929 395.852V394.727C95.4323 394.788 95.3149 394.845 95.1406 394.898C94.9702 394.947 94.7751 394.991 94.5554 395.028C94.3357 395.062 94.1217 395.095 93.9134 395.125C93.705 395.152 93.5308 395.174 93.3906 395.193C93.0611 395.235 92.7599 395.305 92.4872 395.403C92.2183 395.502 92.0024 395.644 91.8395 395.83C91.6804 396.011 91.6009 396.254 91.6009 396.557C91.6009 396.977 91.7562 397.295 92.0668 397.511C92.3774 397.723 92.7732 397.83 93.2543 397.83ZM103.216 399.176C102.356 399.176 101.616 398.992 100.994 398.625C100.377 398.254 99.8996 397.733 99.5625 397.062C99.2292 396.388 99.0625 395.598 99.0625 394.693C99.0625 393.799 99.2292 393.011 99.5625 392.33C99.8996 391.648 100.369 391.116 100.972 390.733C101.578 390.35 102.286 390.159 103.097 390.159C103.589 390.159 104.066 390.241 104.528 390.403C104.991 390.566 105.405 390.822 105.773 391.17C106.14 391.519 106.43 391.972 106.642 392.528C106.854 393.081 106.96 393.754 106.96 394.545V395.148H100.023V393.875H105.295C105.295 393.428 105.205 393.032 105.023 392.688C104.841 392.339 104.585 392.064 104.256 391.864C103.93 391.663 103.547 391.562 103.108 391.562C102.631 391.562 102.214 391.68 101.858 391.915C101.506 392.146 101.233 392.449 101.04 392.824C100.85 393.195 100.756 393.598 100.756 394.034V395.028C100.756 395.612 100.858 396.108 101.062 396.517C101.271 396.926 101.561 397.239 101.932 397.455C102.303 397.667 102.737 397.773 103.233 397.773C103.555 397.773 103.848 397.727 104.114 397.636C104.379 397.542 104.608 397.402 104.801 397.216C104.994 397.03 105.142 396.801 105.244 396.528L106.852 396.818C106.723 397.292 106.492 397.706 106.159 398.062C105.83 398.415 105.415 398.689 104.915 398.886C104.419 399.08 103.852 399.176 103.216 399.176ZM113.743 396.898L116.561 390.273H118.027L114.374 399H113.112L109.533 390.273H110.982L113.743 396.898ZM110.51 390.273V399H108.845V390.273H110.51ZM117.021 399V390.273H118.675V399H117.021ZM128.849 399.176C128.031 399.176 127.317 398.989 126.707 398.614C126.098 398.239 125.624 397.714 125.287 397.04C124.95 396.366 124.781 395.578 124.781 394.676C124.781 393.771 124.95 392.979 125.287 392.301C125.624 391.623 126.098 391.097 126.707 390.722C127.317 390.347 128.031 390.159 128.849 390.159C129.668 390.159 130.382 390.347 130.991 390.722C131.601 391.097 132.075 391.623 132.412 392.301C132.749 392.979 132.918 393.771 132.918 394.676C132.918 395.578 132.749 396.366 132.412 397.04C132.075 397.714 131.601 398.239 130.991 398.614C130.382 398.989 129.668 399.176 128.849 399.176ZM128.855 397.75C129.385 397.75 129.825 397.61 130.173 397.33C130.522 397.049 130.779 396.676 130.946 396.21C131.116 395.744 131.202 395.231 131.202 394.67C131.202 394.114 131.116 393.602 130.946 393.136C130.779 392.667 130.522 392.29 130.173 392.006C129.825 391.722 129.385 391.58 128.855 391.58C128.321 391.58 127.878 391.722 127.526 392.006C127.177 392.29 126.918 392.667 126.747 393.136C126.58 393.602 126.497 394.114 126.497 394.67C126.497 395.231 126.58 395.744 126.747 396.21C126.918 396.676 127.177 397.049 127.526 397.33C127.878 397.61 128.321 397.75 128.855 397.75ZM133.962 401.517V397.528H134.672C134.854 397.362 135.007 397.163 135.132 396.932C135.261 396.701 135.369 396.426 135.456 396.108C135.547 395.79 135.623 395.419 135.683 394.994C135.744 394.566 135.797 394.078 135.842 393.528L136.115 390.273H142.047V397.528H143.388V401.517H141.729V399H135.643V401.517H133.962ZM136.49 397.528H140.388V391.727H137.638L137.456 393.528C137.369 394.445 137.259 395.241 137.126 395.915C136.994 396.585 136.782 397.123 136.49 397.528ZM148.724 399.176C147.906 399.176 147.192 398.989 146.582 398.614C145.973 398.239 145.499 397.714 145.162 397.04C144.825 396.366 144.656 395.578 144.656 394.676C144.656 393.771 144.825 392.979 145.162 392.301C145.499 391.623 145.973 391.097 146.582 390.722C147.192 390.347 147.906 390.159 148.724 390.159C149.543 390.159 150.257 390.347 150.866 390.722C151.476 391.097 151.95 391.623 152.287 392.301C152.624 392.979 152.793 393.771 152.793 394.676C152.793 395.578 152.624 396.366 152.287 397.04C151.95 397.714 151.476 398.239 150.866 398.614C150.257 398.989 149.543 399.176 148.724 399.176ZM148.73 397.75C149.26 397.75 149.7 397.61 150.048 397.33C150.397 397.049 150.654 396.676 150.821 396.21C150.991 395.744 151.077 395.231 151.077 394.67C151.077 394.114 150.991 393.602 150.821 393.136C150.654 392.667 150.397 392.29 150.048 392.006C149.7 391.722 149.26 391.58 148.73 391.58C148.196 391.58 147.753 391.722 147.401 392.006C147.052 392.29 146.793 392.667 146.622 393.136C146.455 393.602 146.372 394.114 146.372 394.67C146.372 395.231 146.455 395.744 146.622 396.21C146.793 396.676 147.052 397.049 147.401 397.33C147.753 397.61 148.196 397.75 148.73 397.75ZM161.422 387.023L162.126 388.097C161.865 388.335 161.568 388.506 161.234 388.608C160.905 388.706 160.524 388.769 160.092 388.795C159.661 388.818 159.166 388.839 158.609 388.858C157.981 388.877 157.464 389.013 157.058 389.267C156.653 389.517 156.34 389.888 156.121 390.381C155.905 390.869 155.765 391.483 155.7 392.222H155.808C156.092 391.68 156.486 391.275 156.99 391.006C157.498 390.737 158.068 390.602 158.7 390.602C159.405 390.602 160.032 390.763 160.581 391.085C161.13 391.407 161.562 391.879 161.876 392.5C162.195 393.117 162.354 393.873 162.354 394.767C162.354 395.672 162.187 396.455 161.854 397.114C161.524 397.773 161.058 398.282 160.456 398.642C159.857 398.998 159.151 399.176 158.337 399.176C157.522 399.176 156.812 398.992 156.206 398.625C155.604 398.254 155.136 397.705 154.803 396.977C154.473 396.25 154.308 395.352 154.308 394.284V393.42C154.308 391.424 154.664 389.922 155.376 388.915C156.089 387.907 157.153 387.39 158.57 387.364C159.028 387.352 159.437 387.35 159.797 387.358C160.157 387.362 160.471 387.345 160.74 387.307C161.013 387.265 161.24 387.17 161.422 387.023ZM158.342 397.75C158.816 397.75 159.223 397.631 159.564 397.392C159.909 397.15 160.174 396.807 160.359 396.364C160.545 395.92 160.638 395.398 160.638 394.795C160.638 394.205 160.545 393.703 160.359 393.29C160.174 392.877 159.909 392.562 159.564 392.347C159.219 392.127 158.806 392.017 158.325 392.017C157.969 392.017 157.651 392.08 157.371 392.205C157.09 392.326 156.85 392.506 156.649 392.744C156.452 392.983 156.299 393.275 156.189 393.619C156.083 393.96 156.026 394.352 156.018 394.795C156.018 395.697 156.225 396.415 156.638 396.949C157.054 397.483 157.623 397.75 158.342 397.75ZM164.251 402.273V390.273H165.911V391.688H166.053C166.151 391.506 166.293 391.295 166.479 391.057C166.664 390.818 166.922 390.61 167.251 390.432C167.581 390.25 168.017 390.159 168.558 390.159C169.263 390.159 169.892 390.337 170.445 390.693C170.998 391.049 171.431 391.562 171.746 392.233C172.064 392.903 172.223 393.71 172.223 394.653C172.223 395.597 172.066 396.405 171.751 397.08C171.437 397.75 171.005 398.267 170.456 398.631C169.907 398.991 169.28 399.17 168.575 399.17C168.045 399.17 167.611 399.081 167.274 398.903C166.941 398.725 166.679 398.517 166.49 398.278C166.301 398.04 166.155 397.828 166.053 397.642H165.95V402.273H164.251ZM165.916 394.636C165.916 395.25 166.005 395.788 166.183 396.25C166.361 396.712 166.619 397.074 166.956 397.335C167.293 397.593 167.706 397.722 168.195 397.722C168.702 397.722 169.126 397.587 169.467 397.318C169.808 397.045 170.066 396.676 170.24 396.21C170.418 395.744 170.507 395.22 170.507 394.636C170.507 394.061 170.42 393.544 170.246 393.085C170.075 392.627 169.818 392.265 169.473 392C169.132 391.735 168.706 391.602 168.195 391.602C167.702 391.602 167.286 391.729 166.945 391.983C166.607 392.237 166.352 392.591 166.178 393.045C166.003 393.5 165.916 394.03 165.916 394.636ZM177.888 399.176C177.028 399.176 176.287 398.992 175.666 398.625C175.049 398.254 174.571 397.733 174.234 397.062C173.901 396.388 173.734 395.598 173.734 394.693C173.734 393.799 173.901 393.011 174.234 392.33C174.571 391.648 175.041 391.116 175.643 390.733C176.25 390.35 176.958 390.159 177.768 390.159C178.261 390.159 178.738 390.241 179.2 390.403C179.662 390.566 180.077 390.822 180.445 391.17C180.812 391.519 181.102 391.972 181.314 392.528C181.526 393.081 181.632 393.754 181.632 394.545V395.148H174.695V393.875H179.967C179.967 393.428 179.876 393.032 179.695 392.688C179.513 392.339 179.257 392.064 178.928 391.864C178.602 391.663 178.219 391.562 177.78 391.562C177.303 391.562 176.886 391.68 176.53 391.915C176.178 392.146 175.905 392.449 175.712 392.824C175.522 393.195 175.428 393.598 175.428 394.034V395.028C175.428 395.612 175.53 396.108 175.734 396.517C175.943 396.926 176.232 397.239 176.604 397.455C176.975 397.667 177.409 397.773 177.905 397.773C178.227 397.773 178.52 397.727 178.786 397.636C179.051 397.542 179.28 397.402 179.473 397.216C179.666 397.03 179.814 396.801 179.916 396.528L181.524 396.818C181.395 397.292 181.164 397.706 180.831 398.062C180.501 398.415 180.087 398.689 179.587 398.886C179.09 399.08 178.524 399.176 177.888 399.176ZM189.432 393.903V395.375H184.705V393.903H189.432ZM185.182 390.273V399H183.517V390.273H185.182ZM190.619 390.273V399H188.96V390.273H190.619ZM194.557 396.619L198.403 390.273H200.233V399H198.568V392.648L194.739 399H192.892V390.273H194.557V396.619ZM206.278 399.176C205.419 399.176 204.678 398.992 204.057 398.625C203.439 398.254 202.962 397.733 202.625 397.062C202.292 396.388 202.125 395.598 202.125 394.693C202.125 393.799 202.292 393.011 202.625 392.33C202.962 391.648 203.432 391.116 204.034 390.733C204.64 390.35 205.348 390.159 206.159 390.159C206.652 390.159 207.129 390.241 207.591 390.403C208.053 390.566 208.468 390.822 208.835 391.17C209.203 391.519 209.492 391.972 209.705 392.528C209.917 393.081 210.023 393.754 210.023 394.545V395.148H203.085V393.875H208.358C208.358 393.428 208.267 393.032 208.085 392.688C207.903 392.339 207.648 392.064 207.318 391.864C206.992 391.663 206.61 391.562 206.17 391.562C205.693 391.562 205.277 391.68 204.92 391.915C204.568 392.146 204.295 392.449 204.102 392.824C203.913 393.195 203.818 393.598 203.818 394.034V395.028C203.818 395.612 203.92 396.108 204.125 396.517C204.333 396.926 204.623 397.239 204.994 397.455C205.366 397.667 205.799 397.773 206.295 397.773C206.617 397.773 206.911 397.727 207.176 397.636C207.441 397.542 207.67 397.402 207.864 397.216C208.057 397.03 208.205 396.801 208.307 396.528L209.915 396.818C209.786 397.292 209.555 397.706 209.222 398.062C208.892 398.415 208.477 398.689 207.977 398.886C207.481 399.08 206.915 399.176 206.278 399.176Z" fill="white"/>
</svg>
