<svg width="264" height="712" viewBox="0 0 264 712" fill="none" xmlns="http://www.w3.org/2000/svg">
<rect width="264" height="50" rx="16" fill="#DCF472"/>
<path d="M97.9347 32V17.4545H107.288V19.6634H100.57V23.0724H103.375C104.488 23.0724 105.442 23.2547 106.237 23.6193C107.037 23.9792 107.651 24.4882 108.077 25.1463C108.503 25.8045 108.716 26.5786 108.716 27.4688C108.716 28.3636 108.503 29.152 108.077 29.8338C107.651 30.5109 107.037 31.0412 106.237 31.4247C105.442 31.8082 104.488 32 103.375 32H97.9347ZM100.57 29.8409H103.375C103.962 29.8409 104.459 29.7296 104.866 29.5071C105.274 29.2846 105.581 28.991 105.79 28.6264C106.003 28.2618 106.109 27.8665 106.109 27.4403C106.109 26.8248 105.873 26.3016 105.399 25.8707C104.93 25.4351 104.256 25.2173 103.375 25.2173H100.57V29.8409ZM113.386 28.5199L117.754 21.0909H120.396V32H117.91V24.5639L113.556 32H110.907V21.0909H113.386V28.5199ZM122.432 29.0099H124.982C125.006 29.4171 125.188 29.732 125.529 29.9545C125.87 30.1771 126.312 30.2884 126.857 30.2884C127.411 30.2884 127.877 30.1676 128.256 29.9261C128.64 29.6799 128.831 29.3082 128.831 28.8111C128.831 28.5175 128.758 28.2595 128.611 28.0369C128.464 27.8097 128.258 27.6345 127.993 27.5114C127.728 27.3883 127.416 27.3267 127.056 27.3267H125.387V25.5014H127.056C127.591 25.5014 127.996 25.3783 128.27 25.1321C128.55 24.8859 128.689 24.5758 128.689 24.2017C128.689 23.7992 128.542 23.4725 128.249 23.2216C127.96 22.9706 127.56 22.8452 127.049 22.8452C126.537 22.8452 126.111 22.9612 125.77 23.1932C125.434 23.4252 125.259 23.7235 125.245 24.0881H122.709C122.719 23.4536 122.908 22.902 123.277 22.4332C123.651 21.9645 124.153 21.5999 124.783 21.3395C125.417 21.0791 126.132 20.9489 126.928 20.9489C127.78 20.9489 128.516 21.0767 129.137 21.3324C129.757 21.5881 130.235 21.9455 130.571 22.4048C130.908 22.8594 131.076 23.3944 131.076 24.0099C131.076 24.6018 130.891 25.0919 130.522 25.4801C130.152 25.8636 129.655 26.1383 129.03 26.304V26.4176C129.461 26.4413 129.849 26.5644 130.195 26.7869C130.541 27.0047 130.815 27.3007 131.019 27.6747C131.222 28.0488 131.324 28.482 131.324 28.9744C131.324 29.642 131.132 30.2197 130.749 30.7074C130.365 31.1903 129.837 31.562 129.165 31.8224C128.498 32.0829 127.733 32.2131 126.871 32.2131C126.033 32.2131 125.283 32.0876 124.62 31.8366C123.962 31.581 123.438 31.214 123.05 30.7358C122.662 30.2576 122.456 29.6823 122.432 29.0099ZM140.841 25.4801V27.5895H135.032V25.4801H140.841ZM135.827 21.0909V32H133.348V21.0909H135.827ZM142.525 21.0909V32H140.053V21.0909H142.525ZM149.955 32.2131C148.862 32.2131 147.917 31.9858 147.121 31.5312C146.331 31.072 145.722 30.4233 145.296 29.5852C144.87 28.7424 144.657 27.7505 144.657 26.6094C144.657 25.4872 144.87 24.5024 145.296 23.6548C145.727 22.8026 146.328 22.1397 147.1 21.6662C147.872 21.188 148.779 20.9489 149.82 20.9489C150.493 20.9489 151.127 21.0578 151.724 21.2756C152.325 21.4886 152.855 21.8201 153.315 22.2699C153.779 22.7197 154.143 23.2926 154.408 23.9886C154.674 24.6799 154.806 25.5038 154.806 26.4602V27.2486H145.864V25.5156H152.342C152.337 25.0232 152.23 24.5852 152.022 24.2017C151.814 23.8134 151.522 23.508 151.148 23.2855C150.779 23.063 150.348 22.9517 149.856 22.9517C149.33 22.9517 148.869 23.0795 148.471 23.3352C148.073 23.5862 147.763 23.9176 147.54 24.3295C147.323 24.7367 147.211 25.1842 147.207 25.6719V27.1847C147.207 27.8191 147.323 28.3636 147.555 28.8182C147.787 29.268 148.111 29.6136 148.528 29.8551C148.944 30.0919 149.432 30.2102 149.991 30.2102C150.365 30.2102 150.703 30.1581 151.006 30.054C151.309 29.9451 151.572 29.7865 151.795 29.5781C152.017 29.3698 152.185 29.1117 152.299 28.804L154.7 29.0739C154.548 29.7083 154.259 30.2623 153.833 30.7358C153.412 31.2045 152.872 31.5691 152.214 31.8295C151.556 32.0852 150.803 32.2131 149.955 32.2131ZM161.74 32.2131C160.651 32.2131 159.716 31.974 158.934 31.4957C158.158 31.0175 157.559 30.357 157.137 29.5142C156.721 28.6667 156.512 27.6913 156.512 26.5881C156.512 25.4801 156.725 24.5024 157.152 23.6548C157.578 22.8026 158.179 22.1397 158.956 21.6662C159.737 21.188 160.66 20.9489 161.725 20.9489C162.611 20.9489 163.395 21.1122 164.076 21.4389C164.763 21.7609 165.31 22.2178 165.717 22.8097C166.124 23.3968 166.356 24.0833 166.413 24.8693H163.956C163.856 24.3437 163.619 23.9058 163.245 23.5554C162.876 23.2003 162.381 23.0227 161.761 23.0227C161.235 23.0227 160.774 23.1648 160.376 23.4489C159.978 23.7282 159.668 24.1307 159.446 24.6562C159.228 25.1818 159.119 25.8116 159.119 26.5455C159.119 27.2888 159.228 27.928 159.446 28.4631C159.663 28.9934 159.969 29.4029 160.362 29.6918C160.76 29.9759 161.226 30.1179 161.761 30.1179C162.14 30.1179 162.478 30.0469 162.777 29.9048C163.08 29.758 163.333 29.5473 163.537 29.2727C163.74 28.9981 163.88 28.6643 163.956 28.2713H166.413C166.351 29.0431 166.124 29.7273 165.731 30.3239C165.338 30.9157 164.803 31.3797 164.126 31.7159C163.449 32.0473 162.654 32.2131 161.74 32.2131Z" fill="black"/>
<rect y="107" width="264" height="50" rx="16" fill="#DCF472"/>
<path d="M102.303 124.455V139H99.6889V126.642H93.3253V139H90.7116V124.455H102.303ZM108.48 139.22C107.788 139.22 107.166 139.097 106.612 138.851C106.063 138.6 105.627 138.231 105.305 137.743C104.988 137.255 104.829 136.654 104.829 135.939C104.829 135.323 104.943 134.814 105.17 134.412C105.397 134.009 105.708 133.688 106.1 133.446C106.493 133.205 106.936 133.022 107.429 132.899C107.926 132.771 108.44 132.679 108.97 132.622C109.609 132.556 110.127 132.497 110.525 132.445C110.923 132.388 111.212 132.303 111.392 132.189C111.576 132.071 111.669 131.888 111.669 131.642V131.599C111.669 131.064 111.51 130.65 111.193 130.357C110.876 130.063 110.419 129.916 109.822 129.916C109.192 129.916 108.693 130.054 108.324 130.328C107.959 130.603 107.713 130.927 107.585 131.301L105.184 130.96C105.374 130.297 105.686 129.743 106.122 129.298C106.557 128.848 107.09 128.512 107.72 128.29C108.35 128.062 109.046 127.949 109.808 127.949C110.333 127.949 110.857 128.01 111.377 128.134C111.898 128.257 112.374 128.46 112.805 128.744C113.236 129.024 113.582 129.405 113.842 129.888C114.107 130.371 114.24 130.974 114.24 131.699V139H111.768V137.501H111.683C111.527 137.804 111.306 138.089 111.022 138.354C110.743 138.614 110.39 138.825 109.964 138.986C109.543 139.142 109.048 139.22 108.48 139.22ZM109.147 137.331C109.663 137.331 110.111 137.229 110.49 137.026C110.868 136.817 111.16 136.543 111.363 136.202C111.572 135.861 111.676 135.489 111.676 135.087V133.801C111.595 133.867 111.458 133.929 111.264 133.986C111.074 134.043 110.861 134.092 110.625 134.135C110.388 134.178 110.154 134.215 109.922 134.249C109.69 134.282 109.488 134.31 109.318 134.334C108.934 134.386 108.591 134.471 108.288 134.589C107.985 134.708 107.746 134.874 107.571 135.087C107.395 135.295 107.308 135.565 107.308 135.896C107.308 136.37 107.481 136.727 107.826 136.969C108.172 137.21 108.612 137.331 109.147 137.331ZM116.825 143.091V128.091H119.353V129.895H119.502C119.635 129.63 119.822 129.348 120.064 129.05C120.305 128.747 120.632 128.489 121.044 128.276C121.456 128.058 121.981 127.949 122.62 127.949C123.463 127.949 124.223 128.164 124.9 128.595C125.582 129.021 126.122 129.653 126.52 130.491C126.922 131.325 127.123 132.348 127.123 133.56C127.123 134.758 126.927 135.776 126.534 136.614C126.141 137.452 125.606 138.091 124.929 138.531C124.252 138.972 123.484 139.192 122.627 139.192C122.002 139.192 121.484 139.088 121.072 138.879C120.66 138.671 120.329 138.42 120.078 138.126C119.832 137.828 119.64 137.546 119.502 137.281H119.396V143.091H116.825ZM119.346 133.545C119.346 134.251 119.446 134.869 119.645 135.399C119.848 135.929 120.139 136.344 120.518 136.642C120.902 136.936 121.366 137.082 121.91 137.082C122.478 137.082 122.954 136.931 123.338 136.628C123.721 136.32 124.01 135.901 124.204 135.371C124.403 134.836 124.502 134.227 124.502 133.545C124.502 132.868 124.405 132.267 124.211 131.741C124.017 131.216 123.728 130.804 123.345 130.506C122.961 130.207 122.483 130.058 121.91 130.058C121.361 130.058 120.895 130.203 120.511 130.491C120.127 130.78 119.836 131.185 119.637 131.706C119.443 132.227 119.346 132.84 119.346 133.545ZM128.123 130.2V128.091H137.668V130.2H134.138V139H131.653V130.2H128.123ZM147.208 132.48V134.589H141.399V132.48H147.208ZM142.194 128.091V139H139.716V128.091H142.194ZM148.892 128.091V139H146.42V128.091H148.892ZM156.322 139.213C155.229 139.213 154.284 138.986 153.489 138.531C152.698 138.072 152.089 137.423 151.663 136.585C151.237 135.742 151.024 134.75 151.024 133.609C151.024 132.487 151.237 131.502 151.663 130.655C152.094 129.803 152.696 129.14 153.467 128.666C154.239 128.188 155.146 127.949 156.188 127.949C156.86 127.949 157.494 128.058 158.091 128.276C158.692 128.489 159.223 128.82 159.682 129.27C160.146 129.72 160.51 130.293 160.776 130.989C161.041 131.68 161.173 132.504 161.173 133.46V134.249H152.232V132.516H158.709C158.704 132.023 158.598 131.585 158.389 131.202C158.181 130.813 157.89 130.508 157.516 130.286C157.146 130.063 156.715 129.952 156.223 129.952C155.697 129.952 155.236 130.08 154.838 130.335C154.44 130.586 154.13 130.918 153.908 131.33C153.69 131.737 153.579 132.184 153.574 132.672V134.185C153.574 134.819 153.69 135.364 153.922 135.818C154.154 136.268 154.478 136.614 154.895 136.855C155.312 137.092 155.799 137.21 156.358 137.21C156.732 137.21 157.071 137.158 157.374 137.054C157.677 136.945 157.939 136.786 158.162 136.578C158.384 136.37 158.553 136.112 158.666 135.804L161.067 136.074C160.915 136.708 160.626 137.262 160.2 137.736C159.779 138.205 159.239 138.569 158.581 138.83C157.923 139.085 157.17 139.213 156.322 139.213ZM163.348 143.091V128.091H165.877V129.895H166.026C166.158 129.63 166.346 129.348 166.587 129.05C166.828 128.747 167.155 128.489 167.567 128.276C167.979 128.058 168.505 127.949 169.144 127.949C169.987 127.949 170.747 128.164 171.424 128.595C172.105 129.021 172.645 129.653 173.043 130.491C173.445 131.325 173.647 132.348 173.647 133.56C173.647 134.758 173.45 135.776 173.057 136.614C172.664 137.452 172.129 138.091 171.452 138.531C170.775 138.972 170.008 139.192 169.151 139.192C168.526 139.192 168.007 139.088 167.596 138.879C167.184 138.671 166.852 138.42 166.601 138.126C166.355 137.828 166.163 137.546 166.026 137.281H165.919V143.091H163.348ZM165.87 133.545C165.87 134.251 165.969 134.869 166.168 135.399C166.372 135.929 166.663 136.344 167.042 136.642C167.425 136.936 167.889 137.082 168.434 137.082C169.002 137.082 169.478 136.931 169.861 136.628C170.245 136.32 170.533 135.901 170.728 135.371C170.926 134.836 171.026 134.227 171.026 133.545C171.026 132.868 170.929 132.267 170.735 131.741C170.541 131.216 170.252 130.804 169.868 130.506C169.485 130.207 169.007 130.058 168.434 130.058C167.884 130.058 167.418 130.203 167.034 130.491C166.651 130.78 166.36 131.185 166.161 131.706C165.967 132.227 165.87 132.84 165.87 133.545Z" fill="black"/>
<path d="M132 319V670.5" stroke="#DCF472" stroke-width="3"/>
<path d="M132 154L132 242" stroke="#DCF472" stroke-width="3"/>
<path d="M28.4182 55.5115C28.1484 54.7282 27.2947 54.312 26.5115 54.5818L13.7475 58.9786C12.9643 59.2484 12.548 60.1021 12.8178 60.8853C13.0877 61.6686 13.9413 62.0848 14.7246 61.815L26.0703 57.9067L29.9786 69.2525C30.2484 70.0357 31.1021 70.452 31.8853 70.1822C32.6686 69.9123 33.0848 69.0587 32.815 68.2754L28.4182 55.5115ZM26.5145 102.419C27.2983 102.687 28.1511 102.269 28.4192 101.486L32.7889 88.7123C33.057 87.9284 32.639 87.0756 31.8552 86.8075C31.0713 86.5393 30.2185 86.9574 29.9504 87.7412L26.0663 99.0952L14.7122 95.2111C13.9284 94.943 13.0756 95.361 12.8075 96.1448C12.5393 96.9287 12.9574 97.7815 13.7412 98.0496L26.5145 102.419ZM25.6517 55.3426C18.5398 69.929 18.5071 87.0829 25.6531 101.66L28.3469 100.34C21.6113 86.5995 21.6389 70.4181 28.3483 56.6574L25.6517 55.3426Z" fill="#DCF472"/>
<path d="M235.582 55.5115C235.852 54.7282 236.705 54.312 237.489 54.5818L250.252 58.9786C251.036 59.2484 251.452 60.1021 251.182 60.8853C250.912 61.6686 250.059 62.0848 249.275 61.815L237.93 57.9067L234.021 69.2525C233.752 70.0357 232.898 70.452 232.115 70.1822C231.331 69.9123 230.915 69.0587 231.185 68.2754L235.582 55.5115ZM237.486 102.419C236.702 102.687 235.849 102.269 235.581 101.486L231.211 88.7123C230.943 87.9284 231.361 87.0756 232.145 86.8075C232.929 86.5393 233.781 86.9574 234.05 87.7412L237.934 99.0952L249.288 95.2111C250.072 94.943 250.924 95.361 251.193 96.1448C251.461 96.9287 251.043 97.7815 250.259 98.0496L237.486 102.419ZM238.348 55.3426C245.46 69.929 245.493 87.0829 238.347 101.66L235.653 100.34C242.389 86.5995 242.361 70.4181 235.652 56.6574L238.348 55.3426Z" fill="#DCF472"/>
<circle cx="131.5" cy="261.5" r="80.5" fill="#DCF472"/>
<path fill-rule="evenodd" clip-rule="evenodd" d="M110.154 245.356C106.529 241.945 106.942 236.711 109.375 233.949C112.034 230.928 117.3 230.649 122.543 233.727C123.666 234.348 125.021 235.615 126.343 237.12C129.204 240.372 132.002 244.708 132.002 244.708C132.328 245.212 132.319 245.867 131.978 246.362C131.978 246.362 131.787 246.648 131.455 247.125C131.347 247.281 131.211 247.413 131.051 247.518C128.754 249.041 123.445 252.632 122.069 255.07C122.06 255.082 122.054 255.097 122.045 255.109C121.577 255.884 121.194 256.659 120.901 257.422C120.75 257.815 120.439 258.13 120.044 258.283C115.565 260.037 111.433 259.376 109.194 256.749C106.806 253.95 106.474 248.707 110.154 245.356ZM128.833 245.386C127.888 243.984 125.996 241.285 124.07 239.099C123.008 237.891 121.957 236.834 121.061 236.342L121.022 236.318C119.036 235.153 117.053 234.537 115.305 234.522C113.811 234.51 112.508 234.946 111.644 235.928C109.861 237.955 109.93 242.014 113.449 244.083C113.914 244.356 114.195 244.852 114.192 245.386C114.186 245.924 113.896 246.416 113.428 246.681C109.879 248.692 109.743 252.752 111.494 254.806C112.924 256.482 115.517 256.668 118.348 255.707C118.656 254.995 119.027 254.278 119.458 253.56C120.931 251.011 126.074 247.251 128.833 245.386Z" fill="black"/>
<path fill-rule="evenodd" clip-rule="evenodd" d="M139.799 256.966C138.693 256.323 137.364 255.035 136.071 253.512C133.272 250.215 130.554 245.836 130.554 245.836C130.235 245.323 130.256 244.671 130.605 244.178C130.605 244.178 130.824 243.857 131.206 243.326C131.305 243.187 131.432 243.064 131.573 242.968C133.885 241.37 138.984 237.77 140.298 235.346C140.307 235.331 140.313 235.319 140.322 235.307C140.668 234.709 140.966 234.112 141.209 233.52C141.362 233.157 141.648 232.865 142.012 232.712C146.75 230.703 151.17 231.361 153.464 234.154C155.794 236.989 156.044 242.235 152.328 245.53C155.884 248.999 155.385 254.227 152.923 256.951C150.226 259.93 144.976 260.126 139.799 256.966ZM133.687 245.158C134.598 246.557 136.459 249.326 138.362 251.569C139.402 252.795 140.433 253.867 141.317 254.374L141.356 254.395C143.317 255.594 145.283 256.242 147.021 256.281C148.509 256.317 149.817 255.903 150.692 254.936C152.499 252.936 152.493 248.875 149.02 246.752C148.563 246.473 148.293 245.971 148.305 245.434C148.317 244.899 148.614 244.413 149.083 244.154C152.652 242.196 152.851 238.142 151.14 236.058C149.643 234.238 146.798 234.1 143.729 235.259C143.491 235.776 143.224 236.295 142.923 236.812C141.492 239.394 136.401 243.254 133.687 245.158Z" fill="black"/>
<path fill-rule="evenodd" clip-rule="evenodd" d="M130.815 223.852C134.196 220.052 139.433 220.442 142.213 222.948C145.258 225.689 145.576 231.165 142.541 236.648C141.928 237.82 140.67 239.239 139.178 240.63C135.95 243.632 131.635 246.578 131.635 246.578C131.13 246.923 130.479 246.92 129.98 246.568C129.98 246.568 129.692 246.373 129.214 246.031C129.055 245.921 128.92 245.78 128.815 245.614C127.275 243.236 123.644 237.744 121.194 236.331C121.179 236.322 121.167 236.315 121.155 236.306C120.377 235.826 119.597 235.436 118.834 235.138C118.438 234.984 118.122 234.661 117.966 234.252C116.177 229.605 116.804 225.3 119.414 222.948C122.194 220.442 127.431 220.052 130.815 223.852ZM130.932 243.29C132.325 242.291 135.013 240.3 137.181 238.281C138.382 237.166 139.43 236.064 139.913 235.128L139.937 235.088C141.087 233.012 141.688 230.943 141.688 229.127C141.688 227.57 141.24 226.217 140.256 225.328C138.214 223.488 134.154 223.594 132.112 227.272C131.845 227.758 131.349 228.057 130.815 228.057C130.28 228.057 129.785 227.758 129.515 227.272C127.476 223.594 123.416 223.488 121.374 225.328C119.711 226.829 119.546 229.529 120.531 232.466C121.242 232.78 121.963 233.16 122.684 233.602C125.245 235.113 129.043 240.435 130.932 243.29Z" fill="black"/>
<path fill-rule="evenodd" clip-rule="evenodd" d="M120.143 253.553C120.773 252.439 122.052 251.095 123.566 249.788C126.839 246.96 131.196 244.201 131.196 244.201C131.707 243.878 132.358 243.893 132.854 244.237C132.854 244.237 133.136 244.43 133.611 244.764C133.764 244.875 133.899 245.011 134.001 245.171C135.505 247.478 139.055 252.8 141.481 254.198C141.496 254.204 141.508 254.213 141.52 254.219C142.292 254.692 143.064 255.081 143.823 255.379C144.217 255.532 144.529 255.846 144.679 256.24C146.397 260.725 145.703 264.846 143.058 267.06C140.241 269.418 134.998 269.71 131.674 266.012C128.235 269.602 123.004 269.144 120.26 266.698C117.26 264.021 117.023 258.761 120.143 253.553ZM131.851 247.366C130.442 248.303 127.725 250.168 125.524 252.071C124.311 253.123 123.245 254.162 122.746 255.053L122.722 255.093C121.539 257.066 120.908 259.038 120.881 260.783C120.857 262.274 121.284 263.578 122.257 264.448C124.269 266.244 128.331 266.204 130.427 262.71C130.704 262.249 131.202 261.972 131.737 261.981C132.271 261.99 132.764 262.283 133.025 262.752C135.01 266.313 139.067 266.478 141.136 264.746C142.823 263.334 143.028 260.746 142.088 257.915C141.379 257.602 140.664 257.225 139.953 256.788C137.412 255.3 133.695 250.135 131.851 247.366Z" fill="black"/>
<path d="M101.379 291.581H104.006C103.922 292.583 103.642 293.476 103.166 294.261C102.689 295.039 102.02 295.652 101.158 296.1C100.297 296.548 99.249 296.773 98.0159 296.773C97.07 296.773 96.2187 296.605 95.462 296.268C94.7053 295.925 94.0572 295.441 93.5177 294.818C92.9782 294.187 92.5648 293.427 92.2775 292.537C91.9973 291.647 91.8572 290.652 91.8572 289.552V288.281C91.8572 287.181 92.0008 286.186 92.2881 285.296C92.5823 284.406 93.0027 283.646 93.5492 283.015C94.0957 282.378 94.7509 281.891 95.5146 281.555C96.2853 281.218 97.1506 281.05 98.1105 281.05C99.3296 281.05 100.36 281.274 101.2 281.723C102.041 282.171 102.693 282.791 103.155 283.583C103.625 284.375 103.912 285.282 104.017 286.305H101.39C101.319 285.646 101.165 285.082 100.927 284.613C100.696 284.143 100.353 283.786 99.8972 283.541C99.4417 283.289 98.8462 283.163 98.1105 283.163C97.5079 283.163 96.9824 283.275 96.534 283.499C96.0856 283.723 95.7107 284.052 95.4095 284.487C95.1082 284.921 94.8805 285.457 94.7263 286.095C94.5792 286.725 94.5056 287.447 94.5056 288.26V289.552C94.5056 290.323 94.5722 291.024 94.7053 291.654C94.8454 292.278 95.0556 292.814 95.3359 293.262C95.6232 293.711 95.9875 294.058 96.4289 294.303C96.8703 294.548 97.3993 294.671 98.0159 294.671C98.7656 294.671 99.3717 294.552 99.8341 294.313C100.304 294.075 100.657 293.728 100.896 293.273C101.141 292.811 101.302 292.246 101.379 291.581ZM108.694 287.356V296.562H106.161V285.191H108.578L108.694 287.356ZM112.173 285.117L112.152 287.472C111.997 287.443 111.829 287.422 111.647 287.408C111.472 287.394 111.297 287.387 111.122 287.387C110.687 287.387 110.305 287.451 109.976 287.577C109.647 287.696 109.37 287.871 109.146 288.102C108.929 288.326 108.76 288.6 108.641 288.922C108.522 289.244 108.452 289.605 108.431 290.004L107.853 290.046C107.853 289.332 107.923 288.67 108.063 288.06C108.203 287.451 108.414 286.915 108.694 286.452C108.981 285.99 109.338 285.629 109.766 285.37C110.2 285.11 110.701 284.981 111.269 284.981C111.423 284.981 111.588 284.995 111.763 285.023C111.945 285.051 112.082 285.082 112.173 285.117ZM118.563 296.773C117.722 296.773 116.962 296.636 116.282 296.363C115.609 296.083 115.035 295.694 114.558 295.196C114.089 294.699 113.728 294.114 113.476 293.441C113.224 292.768 113.097 292.043 113.097 291.266V290.845C113.097 289.955 113.227 289.15 113.486 288.428C113.746 287.706 114.106 287.09 114.569 286.578C115.031 286.06 115.578 285.664 116.208 285.391C116.839 285.117 117.522 284.981 118.258 284.981C119.071 284.981 119.782 285.117 120.391 285.391C121.001 285.664 121.505 286.049 121.905 286.547C122.311 287.037 122.612 287.622 122.809 288.302C123.012 288.981 123.113 289.731 123.113 290.551V291.633H114.327V289.815H120.612V289.616C120.598 289.16 120.507 288.733 120.339 288.333C120.178 287.934 119.929 287.612 119.593 287.366C119.256 287.121 118.808 286.999 118.247 286.999C117.827 286.999 117.452 287.09 117.123 287.272C116.8 287.447 116.531 287.703 116.313 288.039C116.096 288.375 115.928 288.782 115.809 289.258C115.697 289.728 115.641 290.257 115.641 290.845V291.266C115.641 291.763 115.707 292.225 115.841 292.653C115.981 293.073 116.184 293.441 116.45 293.756C116.716 294.072 117.039 294.32 117.417 294.503C117.795 294.678 118.226 294.765 118.71 294.765C119.319 294.765 119.862 294.643 120.339 294.397C120.815 294.152 121.229 293.805 121.579 293.357L122.914 294.65C122.668 295.007 122.35 295.35 121.957 295.68C121.565 296.002 121.085 296.265 120.517 296.468C119.957 296.671 119.305 296.773 118.563 296.773ZM132.026 294.208V280.419H134.569V296.562H132.267L132.026 294.208ZM124.627 291.003V290.782C124.627 289.92 124.728 289.136 124.931 288.428C125.135 287.713 125.429 287.1 125.814 286.589C126.2 286.07 126.669 285.674 127.223 285.401C127.776 285.121 128.4 284.981 129.093 284.981C129.78 284.981 130.383 285.114 130.901 285.38C131.42 285.646 131.861 286.028 132.225 286.526C132.59 287.016 132.88 287.605 133.098 288.291C133.315 288.971 133.469 289.728 133.56 290.561V291.266C133.469 292.078 133.315 292.821 133.098 293.494C132.88 294.166 132.59 294.748 132.225 295.238C131.861 295.729 131.416 296.107 130.891 296.373C130.372 296.64 129.766 296.773 129.072 296.773C128.386 296.773 127.766 296.629 127.212 296.342C126.666 296.055 126.2 295.652 125.814 295.133C125.429 294.615 125.135 294.005 124.931 293.304C124.728 292.597 124.627 291.83 124.627 291.003ZM127.16 290.782V291.003C127.16 291.521 127.205 292.005 127.296 292.453C127.394 292.902 127.545 293.297 127.748 293.641C127.951 293.977 128.214 294.243 128.536 294.44C128.866 294.629 129.258 294.723 129.713 294.723C130.288 294.723 130.761 294.597 131.132 294.345C131.504 294.093 131.794 293.753 132.005 293.325C132.222 292.891 132.369 292.408 132.446 291.875V289.973C132.404 289.559 132.316 289.174 132.183 288.817C132.057 288.459 131.885 288.148 131.668 287.881C131.451 287.608 131.181 287.398 130.859 287.251C130.544 287.097 130.169 287.02 129.734 287.02C129.272 287.02 128.88 287.118 128.557 287.314C128.235 287.51 127.969 287.78 127.759 288.123C127.555 288.466 127.405 288.866 127.307 289.321C127.209 289.777 127.16 290.264 127.16 290.782ZM139.929 285.191V296.562H137.386V285.191H139.929ZM137.217 282.206C137.217 281.821 137.344 281.502 137.596 281.25C137.855 280.99 138.212 280.861 138.668 280.861C139.116 280.861 139.47 280.99 139.729 281.25C139.989 281.502 140.118 281.821 140.118 282.206C140.118 282.584 139.989 282.9 139.729 283.152C139.47 283.404 139.116 283.53 138.668 283.53C138.212 283.53 137.855 283.404 137.596 283.152C137.344 282.9 137.217 282.584 137.217 282.206ZM147.916 285.191V287.041H141.505V285.191H147.916ZM143.355 282.406H145.888V293.42C145.888 293.77 145.937 294.04 146.035 294.229C146.14 294.411 146.284 294.534 146.466 294.597C146.648 294.66 146.862 294.692 147.107 294.692C147.282 294.692 147.45 294.681 147.612 294.66C147.773 294.639 147.902 294.618 148 294.597L148.011 296.531C147.801 296.594 147.556 296.65 147.275 296.699C147.002 296.748 146.687 296.773 146.329 296.773C145.748 296.773 145.233 296.671 144.784 296.468C144.336 296.258 143.986 295.918 143.734 295.448C143.481 294.979 143.355 294.355 143.355 293.578V282.406ZM154.884 296.773C154.044 296.773 153.283 296.636 152.604 296.363C151.931 296.083 151.357 295.694 150.88 295.196C150.411 294.699 150.05 294.114 149.798 293.441C149.545 292.768 149.419 292.043 149.419 291.266V290.845C149.419 289.955 149.549 289.15 149.808 288.428C150.067 287.706 150.428 287.09 150.891 286.578C151.353 286.06 151.9 285.664 152.53 285.391C153.161 285.117 153.844 284.981 154.58 284.981C155.392 284.981 156.104 285.117 156.713 285.391C157.323 285.664 157.827 286.049 158.227 286.547C158.633 287.037 158.934 287.622 159.13 288.302C159.334 288.981 159.435 289.731 159.435 290.551V291.633H150.649V289.815H156.934V289.616C156.92 289.16 156.829 288.733 156.661 288.333C156.499 287.934 156.251 287.612 155.914 287.366C155.578 287.121 155.13 286.999 154.569 286.999C154.149 286.999 153.774 287.09 153.445 287.272C153.122 287.447 152.853 287.703 152.635 288.039C152.418 288.375 152.25 288.782 152.131 289.258C152.019 289.728 151.963 290.257 151.963 290.845V291.266C151.963 291.763 152.029 292.225 152.162 292.653C152.303 293.073 152.506 293.441 152.772 293.756C153.038 294.072 153.36 294.32 153.739 294.503C154.117 294.678 154.548 294.765 155.032 294.765C155.641 294.765 156.184 294.643 156.661 294.397C157.137 294.152 157.55 293.805 157.901 293.357L159.235 294.65C158.99 295.007 158.671 295.35 158.279 295.68C157.887 296.002 157.407 296.265 156.839 296.468C156.279 296.671 155.627 296.773 154.884 296.773ZM163.345 285.191L165.51 288.964L167.717 285.191H170.502L167.055 290.772L170.639 296.562H167.854L165.541 292.632L163.229 296.562H160.434L164.007 290.772L160.57 285.191H163.345Z" fill="black"/>
<rect y="366" width="264" height="50" rx="16" fill="#DCF472"/>
<path d="M101.935 398V383.455H111.288V385.663H104.57V389.072H107.375C108.488 389.072 109.442 389.255 110.237 389.619C111.037 389.979 111.651 390.488 112.077 391.146C112.503 391.804 112.716 392.579 112.716 393.469C112.716 394.364 112.503 395.152 112.077 395.834C111.651 396.511 111.037 397.041 110.237 397.425C109.442 397.808 108.488 398 107.375 398H101.935ZM104.57 395.841H107.375C107.962 395.841 108.459 395.73 108.866 395.507C109.274 395.285 109.581 394.991 109.79 394.626C110.003 394.262 110.109 393.866 110.109 393.44C110.109 392.825 109.873 392.302 109.399 391.871C108.93 391.435 108.256 391.217 107.375 391.217H104.57V395.841ZM118.046 398.22C117.355 398.22 116.732 398.097 116.178 397.851C115.629 397.6 115.193 397.231 114.871 396.743C114.554 396.255 114.396 395.654 114.396 394.939C114.396 394.323 114.509 393.814 114.737 393.412C114.964 393.009 115.274 392.688 115.667 392.446C116.06 392.205 116.503 392.022 116.995 391.899C117.492 391.771 118.006 391.679 118.536 391.622C119.175 391.556 119.694 391.497 120.092 391.445C120.489 391.388 120.778 391.303 120.958 391.189C121.143 391.071 121.235 390.888 121.235 390.642V390.599C121.235 390.064 121.076 389.65 120.759 389.357C120.442 389.063 119.985 388.916 119.388 388.916C118.759 388.916 118.259 389.054 117.89 389.328C117.525 389.603 117.279 389.927 117.151 390.301L114.751 389.96C114.94 389.297 115.253 388.743 115.688 388.298C116.124 387.848 116.656 387.512 117.286 387.29C117.916 387.062 118.612 386.949 119.374 386.949C119.9 386.949 120.423 387.01 120.944 387.134C121.465 387.257 121.941 387.46 122.371 387.744C122.802 388.024 123.148 388.405 123.408 388.888C123.674 389.371 123.806 389.974 123.806 390.699V398H121.335V396.501H121.249C121.093 396.804 120.873 397.089 120.589 397.354C120.309 397.614 119.957 397.825 119.531 397.986C119.109 398.142 118.614 398.22 118.046 398.22ZM118.714 396.331C119.23 396.331 119.677 396.229 120.056 396.026C120.435 395.817 120.726 395.543 120.93 395.202C121.138 394.861 121.242 394.489 121.242 394.087V392.801C121.162 392.867 121.024 392.929 120.83 392.986C120.641 393.043 120.428 393.092 120.191 393.135C119.954 393.178 119.72 393.215 119.488 393.249C119.256 393.282 119.055 393.31 118.884 393.334C118.501 393.386 118.157 393.471 117.854 393.589C117.551 393.708 117.312 393.874 117.137 394.087C116.962 394.295 116.874 394.565 116.874 394.896C116.874 395.37 117.047 395.727 117.393 395.969C117.738 396.21 118.179 396.331 118.714 396.331ZM133.884 391.48V393.589H128.075V391.48H133.884ZM128.87 387.091V398H126.391V387.091H128.87ZM135.567 387.091V398H133.096V387.091H135.567ZM138.169 398V387.091H140.74V391.494H141.677L144.958 387.091H148.055L144.014 392.446L148.098 398H144.987L141.997 393.888H140.74V398H138.169ZM160.404 383.455V398H157.769V386.018H157.684L154.282 388.192V385.777L157.897 383.455H160.404Z" fill="black"/>
<rect y="440" width="264" height="50" rx="16" fill="#DCF472"/>
<path d="M100.435 472V457.455H109.788V459.663H103.07V463.072H105.875C106.988 463.072 107.942 463.255 108.737 463.619C109.537 463.979 110.151 464.488 110.577 465.146C111.003 465.804 111.216 466.579 111.216 467.469C111.216 468.364 111.003 469.152 110.577 469.834C110.151 470.511 109.537 471.041 108.737 471.425C107.942 471.808 106.988 472 105.875 472H100.435ZM103.07 469.841H105.875C106.462 469.841 106.959 469.73 107.366 469.507C107.774 469.285 108.081 468.991 108.29 468.626C108.503 468.262 108.609 467.866 108.609 467.44C108.609 466.825 108.373 466.302 107.899 465.871C107.43 465.435 106.756 465.217 105.875 465.217H103.07V469.841ZM116.546 472.22C115.855 472.22 115.232 472.097 114.678 471.851C114.129 471.6 113.693 471.231 113.371 470.743C113.054 470.255 112.896 469.654 112.896 468.939C112.896 468.323 113.009 467.814 113.237 467.412C113.464 467.009 113.774 466.688 114.167 466.446C114.56 466.205 115.003 466.022 115.495 465.899C115.992 465.771 116.506 465.679 117.036 465.622C117.675 465.556 118.194 465.497 118.592 465.445C118.989 465.388 119.278 465.303 119.458 465.189C119.643 465.071 119.735 464.888 119.735 464.642V464.599C119.735 464.064 119.576 463.65 119.259 463.357C118.942 463.063 118.485 462.916 117.888 462.916C117.259 462.916 116.759 463.054 116.39 463.328C116.025 463.603 115.779 463.927 115.651 464.301L113.251 463.96C113.44 463.297 113.753 462.743 114.188 462.298C114.624 461.848 115.156 461.512 115.786 461.29C116.416 461.062 117.112 460.949 117.874 460.949C118.4 460.949 118.923 461.01 119.444 461.134C119.965 461.257 120.441 461.46 120.871 461.744C121.302 462.024 121.648 462.405 121.908 462.888C122.174 463.371 122.306 463.974 122.306 464.699V472H119.835V470.501H119.749C119.593 470.804 119.373 471.089 119.089 471.354C118.809 471.614 118.457 471.825 118.031 471.986C117.609 472.142 117.114 472.22 116.546 472.22ZM117.214 470.331C117.73 470.331 118.177 470.229 118.556 470.026C118.935 469.817 119.226 469.543 119.43 469.202C119.638 468.861 119.742 468.489 119.742 468.087V466.801C119.662 466.867 119.524 466.929 119.33 466.986C119.141 467.043 118.928 467.092 118.691 467.135C118.454 467.178 118.22 467.215 117.988 467.249C117.756 467.282 117.555 467.31 117.384 467.334C117.001 467.386 116.657 467.471 116.354 467.589C116.051 467.708 115.812 467.874 115.637 468.087C115.462 468.295 115.374 468.565 115.374 468.896C115.374 469.37 115.547 469.727 115.893 469.969C116.238 470.21 116.679 470.331 117.214 470.331ZM132.384 465.48V467.589H126.575V465.48H132.384ZM127.37 461.091V472H124.891V461.091H127.37ZM134.067 461.091V472H131.596V461.091H134.067ZM136.669 472V461.091H139.24V465.494H140.177L143.458 461.091H146.555L142.514 466.446L146.598 472H143.487L140.497 467.888H139.24V472H136.669ZM152.988 472V470.097L158.038 465.146C158.521 464.659 158.923 464.225 159.245 463.847C159.567 463.468 159.808 463.101 159.969 462.746C160.13 462.391 160.211 462.012 160.211 461.609C160.211 461.15 160.107 460.757 159.898 460.43C159.69 460.099 159.404 459.843 159.039 459.663C158.674 459.483 158.26 459.393 157.796 459.393C157.318 459.393 156.899 459.493 156.539 459.692C156.179 459.886 155.9 460.163 155.701 460.523C155.507 460.883 155.41 461.311 155.41 461.808H152.903C152.903 460.885 153.113 460.082 153.535 459.401C153.956 458.719 154.536 458.191 155.275 457.817C156.018 457.443 156.871 457.256 157.832 457.256C158.807 457.256 159.664 457.438 160.403 457.803C161.141 458.167 161.714 458.667 162.121 459.301C162.533 459.936 162.739 460.66 162.739 461.474C162.739 462.019 162.635 462.554 162.427 463.08C162.219 463.605 161.852 464.187 161.326 464.827C160.805 465.466 160.074 466.24 159.131 467.149L156.624 469.699V469.798H162.96V472H152.988Z" fill="black"/>
<rect y="514" width="264" height="50" rx="16" fill="#DCF472"/>
<path d="M100.435 546V531.455H109.788V533.663H103.07V537.072H105.875C106.988 537.072 107.942 537.255 108.737 537.619C109.537 537.979 110.151 538.488 110.577 539.146C111.003 539.804 111.216 540.579 111.216 541.469C111.216 542.364 111.003 543.152 110.577 543.834C110.151 544.511 109.537 545.041 108.737 545.425C107.942 545.808 106.988 546 105.875 546H100.435ZM103.07 543.841H105.875C106.462 543.841 106.959 543.73 107.366 543.507C107.774 543.285 108.081 542.991 108.29 542.626C108.503 542.262 108.609 541.866 108.609 541.44C108.609 540.825 108.373 540.302 107.899 539.871C107.43 539.435 106.756 539.217 105.875 539.217H103.07V543.841ZM116.546 546.22C115.855 546.22 115.232 546.097 114.678 545.851C114.129 545.6 113.693 545.231 113.371 544.743C113.054 544.255 112.896 543.654 112.896 542.939C112.896 542.323 113.009 541.814 113.237 541.412C113.464 541.009 113.774 540.688 114.167 540.446C114.56 540.205 115.003 540.022 115.495 539.899C115.992 539.771 116.506 539.679 117.036 539.622C117.675 539.556 118.194 539.497 118.592 539.445C118.989 539.388 119.278 539.303 119.458 539.189C119.643 539.071 119.735 538.888 119.735 538.642V538.599C119.735 538.064 119.576 537.65 119.259 537.357C118.942 537.063 118.485 536.916 117.888 536.916C117.259 536.916 116.759 537.054 116.39 537.328C116.025 537.603 115.779 537.927 115.651 538.301L113.251 537.96C113.44 537.297 113.753 536.743 114.188 536.298C114.624 535.848 115.156 535.512 115.786 535.29C116.416 535.062 117.112 534.949 117.874 534.949C118.4 534.949 118.923 535.01 119.444 535.134C119.965 535.257 120.441 535.46 120.871 535.744C121.302 536.024 121.648 536.405 121.908 536.888C122.174 537.371 122.306 537.974 122.306 538.699V546H119.835V544.501H119.749C119.593 544.804 119.373 545.089 119.089 545.354C118.809 545.614 118.457 545.825 118.031 545.986C117.609 546.142 117.114 546.22 116.546 546.22ZM117.214 544.331C117.73 544.331 118.177 544.229 118.556 544.026C118.935 543.817 119.226 543.543 119.43 543.202C119.638 542.861 119.742 542.489 119.742 542.087V540.801C119.662 540.867 119.524 540.929 119.33 540.986C119.141 541.043 118.928 541.092 118.691 541.135C118.454 541.178 118.22 541.215 117.988 541.249C117.756 541.282 117.555 541.31 117.384 541.334C117.001 541.386 116.657 541.471 116.354 541.589C116.051 541.708 115.812 541.874 115.637 542.087C115.462 542.295 115.374 542.565 115.374 542.896C115.374 543.37 115.547 543.727 115.893 543.969C116.238 544.21 116.679 544.331 117.214 544.331ZM132.384 539.48V541.589H126.575V539.48H132.384ZM127.37 535.091V546H124.891V535.091H127.37ZM134.067 535.091V546H131.596V535.091H134.067ZM136.669 546V535.091H139.24V539.494H140.177L143.458 535.091H146.555L142.514 540.446L146.598 546H143.487L140.497 541.888H139.24V546H136.669ZM158.208 546.199C157.185 546.199 156.276 546.024 155.481 545.673C154.69 545.323 154.065 544.835 153.606 544.21C153.147 543.585 152.903 542.863 152.874 542.044H155.545C155.568 542.437 155.699 542.78 155.935 543.074C156.172 543.363 156.487 543.588 156.88 543.749C157.273 543.91 157.713 543.99 158.201 543.99C158.722 543.99 159.183 543.9 159.586 543.72C159.988 543.536 160.303 543.28 160.531 542.953C160.758 542.626 160.869 542.25 160.864 541.824C160.869 541.384 160.755 540.995 160.523 540.659C160.291 540.323 159.955 540.06 159.515 539.871C159.079 539.681 158.554 539.587 157.938 539.587H156.653V537.555H157.938C158.445 537.555 158.888 537.468 159.266 537.293C159.65 537.117 159.951 536.871 160.168 536.554C160.386 536.232 160.493 535.86 160.488 535.439C160.493 535.027 160.4 534.67 160.211 534.366C160.026 534.059 159.763 533.82 159.423 533.649C159.086 533.479 158.691 533.393 158.237 533.393C157.791 533.393 157.379 533.474 157.001 533.635C156.622 533.796 156.317 534.026 156.085 534.324C155.853 534.617 155.729 534.968 155.715 535.375H153.18C153.199 534.561 153.433 533.846 153.883 533.23C154.337 532.61 154.943 532.127 155.701 531.781C156.459 531.431 157.308 531.256 158.251 531.256C159.221 531.256 160.064 531.438 160.779 531.803C161.499 532.162 162.055 532.648 162.448 533.259C162.841 533.869 163.038 534.544 163.038 535.283C163.042 536.102 162.801 536.788 162.313 537.342C161.83 537.896 161.196 538.259 160.41 538.429V538.543C161.433 538.685 162.216 539.063 162.761 539.679C163.31 540.29 163.582 541.05 163.577 541.959C163.577 542.773 163.345 543.502 162.881 544.146C162.422 544.786 161.788 545.287 160.978 545.652C160.173 546.017 159.25 546.199 158.208 546.199Z" fill="black"/>
<rect y="588" width="264" height="50" rx="16" fill="#DCF472"/>
<path d="M99.9347 620V605.455H109.288V607.663H102.57V611.072H105.375C106.488 611.072 107.442 611.255 108.237 611.619C109.037 611.979 109.651 612.488 110.077 613.146C110.503 613.804 110.716 614.579 110.716 615.469C110.716 616.364 110.503 617.152 110.077 617.834C109.651 618.511 109.037 619.041 108.237 619.425C107.442 619.808 106.488 620 105.375 620H99.9347ZM102.57 617.841H105.375C105.962 617.841 106.459 617.73 106.866 617.507C107.274 617.285 107.581 616.991 107.79 616.626C108.003 616.262 108.109 615.866 108.109 615.44C108.109 614.825 107.873 614.302 107.399 613.871C106.93 613.435 106.256 613.217 105.375 613.217H102.57V617.841ZM116.046 620.22C115.355 620.22 114.732 620.097 114.178 619.851C113.629 619.6 113.193 619.231 112.871 618.743C112.554 618.255 112.396 617.654 112.396 616.939C112.396 616.323 112.509 615.814 112.737 615.412C112.964 615.009 113.274 614.688 113.667 614.446C114.06 614.205 114.503 614.022 114.995 613.899C115.492 613.771 116.006 613.679 116.536 613.622C117.175 613.556 117.694 613.497 118.092 613.445C118.489 613.388 118.778 613.303 118.958 613.189C119.143 613.071 119.235 612.888 119.235 612.642V612.599C119.235 612.064 119.076 611.65 118.759 611.357C118.442 611.063 117.985 610.916 117.388 610.916C116.759 610.916 116.259 611.054 115.89 611.328C115.525 611.603 115.279 611.927 115.151 612.301L112.751 611.96C112.94 611.297 113.253 610.743 113.688 610.298C114.124 609.848 114.656 609.512 115.286 609.29C115.916 609.062 116.612 608.949 117.374 608.949C117.9 608.949 118.423 609.01 118.944 609.134C119.465 609.257 119.941 609.46 120.371 609.744C120.802 610.024 121.148 610.405 121.408 610.888C121.674 611.371 121.806 611.974 121.806 612.699V620H119.335V618.501H119.249C119.093 618.804 118.873 619.089 118.589 619.354C118.309 619.614 117.957 619.825 117.531 619.986C117.109 620.142 116.614 620.22 116.046 620.22ZM116.714 618.331C117.23 618.331 117.677 618.229 118.056 618.026C118.435 617.817 118.726 617.543 118.93 617.202C119.138 616.861 119.242 616.489 119.242 616.087V614.801C119.162 614.867 119.024 614.929 118.83 614.986C118.641 615.043 118.428 615.092 118.191 615.135C117.954 615.178 117.72 615.215 117.488 615.249C117.256 615.282 117.055 615.31 116.884 615.334C116.501 615.386 116.157 615.471 115.854 615.589C115.551 615.708 115.312 615.874 115.137 616.087C114.962 616.295 114.874 616.565 114.874 616.896C114.874 617.37 115.047 617.727 115.393 617.969C115.738 618.21 116.179 618.331 116.714 618.331ZM131.884 613.48V615.589H126.075V613.48H131.884ZM126.87 609.091V620H124.391V609.091H126.87ZM133.567 609.091V620H131.096V609.091H133.567ZM136.169 620V609.091H138.74V613.494H139.677L142.958 609.091H146.055L142.014 614.446L146.098 620H142.987L139.997 615.888H138.74V620H136.169ZM152.225 617.301V615.206L158.397 605.455H160.144V608.438H159.079L154.924 615.021V615.135H163.539V617.301H152.225ZM159.164 620V616.662L159.192 615.724V605.455H161.678V620H159.164Z" fill="black"/>
<rect y="662" width="264" height="50" rx="16" fill="#DCF472"/>
<path d="M100.435 694V679.455H109.788V681.663H103.07V685.072H105.875C106.988 685.072 107.942 685.255 108.737 685.619C109.537 685.979 110.151 686.488 110.577 687.146C111.003 687.804 111.216 688.579 111.216 689.469C111.216 690.364 111.003 691.152 110.577 691.834C110.151 692.511 109.537 693.041 108.737 693.425C107.942 693.808 106.988 694 105.875 694H100.435ZM103.07 691.841H105.875C106.462 691.841 106.959 691.73 107.366 691.507C107.774 691.285 108.081 690.991 108.29 690.626C108.503 690.262 108.609 689.866 108.609 689.44C108.609 688.825 108.373 688.302 107.899 687.871C107.43 687.435 106.756 687.217 105.875 687.217H103.07V691.841ZM116.546 694.22C115.855 694.22 115.232 694.097 114.678 693.851C114.129 693.6 113.693 693.231 113.371 692.743C113.054 692.255 112.896 691.654 112.896 690.939C112.896 690.323 113.009 689.814 113.237 689.412C113.464 689.009 113.774 688.688 114.167 688.446C114.56 688.205 115.003 688.022 115.495 687.899C115.992 687.771 116.506 687.679 117.036 687.622C117.675 687.556 118.194 687.497 118.592 687.445C118.989 687.388 119.278 687.303 119.458 687.189C119.643 687.071 119.735 686.888 119.735 686.642V686.599C119.735 686.064 119.576 685.65 119.259 685.357C118.942 685.063 118.485 684.916 117.888 684.916C117.259 684.916 116.759 685.054 116.39 685.328C116.025 685.603 115.779 685.927 115.651 686.301L113.251 685.96C113.44 685.297 113.753 684.743 114.188 684.298C114.624 683.848 115.156 683.512 115.786 683.29C116.416 683.062 117.112 682.949 117.874 682.949C118.4 682.949 118.923 683.01 119.444 683.134C119.965 683.257 120.441 683.46 120.871 683.744C121.302 684.024 121.648 684.405 121.908 684.888C122.174 685.371 122.306 685.974 122.306 686.699V694H119.835V692.501H119.749C119.593 692.804 119.373 693.089 119.089 693.354C118.809 693.614 118.457 693.825 118.031 693.986C117.609 694.142 117.114 694.22 116.546 694.22ZM117.214 692.331C117.73 692.331 118.177 692.229 118.556 692.026C118.935 691.817 119.226 691.543 119.43 691.202C119.638 690.861 119.742 690.489 119.742 690.087V688.801C119.662 688.867 119.524 688.929 119.33 688.986C119.141 689.043 118.928 689.092 118.691 689.135C118.454 689.178 118.22 689.215 117.988 689.249C117.756 689.282 117.555 689.31 117.384 689.334C117.001 689.386 116.657 689.471 116.354 689.589C116.051 689.708 115.812 689.874 115.637 690.087C115.462 690.295 115.374 690.565 115.374 690.896C115.374 691.37 115.547 691.727 115.893 691.969C116.238 692.21 116.679 692.331 117.214 692.331ZM132.384 687.48V689.589H126.575V687.48H132.384ZM127.37 683.091V694H124.891V683.091H127.37ZM134.067 683.091V694H131.596V683.091H134.067ZM136.669 694V683.091H139.24V687.494H140.177L143.458 683.091H146.555L142.514 688.446L146.598 694H143.487L140.497 689.888H139.24V694H136.669ZM158.045 694.199C157.098 694.199 156.25 694.021 155.502 693.666C154.754 693.306 154.16 692.814 153.719 692.189C153.284 691.564 153.052 690.849 153.023 690.044H155.58C155.628 690.641 155.886 691.128 156.354 691.507C156.823 691.881 157.387 692.068 158.045 692.068C158.561 692.068 159.02 691.95 159.423 691.713C159.825 691.476 160.142 691.147 160.374 690.726C160.606 690.304 160.72 689.824 160.715 689.284C160.72 688.735 160.604 688.247 160.367 687.821C160.13 687.395 159.806 687.061 159.394 686.82C158.982 686.573 158.509 686.45 157.974 686.45C157.538 686.446 157.11 686.526 156.688 686.692C156.267 686.857 155.933 687.075 155.687 687.345L153.308 686.955L154.067 679.455H162.505V681.656H156.248L155.829 685.513H155.914C156.184 685.196 156.565 684.933 157.058 684.724C157.55 684.511 158.09 684.405 158.677 684.405C159.558 684.405 160.344 684.613 161.035 685.03C161.726 685.442 162.271 686.01 162.668 686.734C163.066 687.459 163.265 688.287 163.265 689.22C163.265 690.181 163.042 691.038 162.597 691.791C162.157 692.539 161.544 693.129 160.758 693.56C159.977 693.986 159.072 694.199 158.045 694.199Z" fill="black"/>
</svg>
