<svg width="24" height="26" viewBox="0 0 24 26" fill="none" xmlns="http://www.w3.org/2000/svg">
<path fill-rule="evenodd" clip-rule="evenodd" d="M1.38674 12.9077C-0.43389 11.1435 -0.226208 8.43663 0.995628 7.00788C2.33116 5.44557 4.97645 5.30114 7.60961 6.89296C8.17354 7.21443 8.85419 7.86979 9.51816 8.64784C10.9553 10.3297 12.3605 12.5722 12.3605 12.5722C12.5242 12.8331 12.5197 13.1717 12.3484 13.4279C12.3484 13.4279 12.2529 13.5755 12.0861 13.8224C12.0316 13.9032 11.9634 13.9715 11.883 14.0258C10.7294 14.8132 8.06287 16.6706 7.37161 17.9316C7.36706 17.9378 7.36403 17.9456 7.35948 17.9518C7.12452 18.3525 6.93199 18.7531 6.78495 19.1476C6.70915 19.351 6.55301 19.5141 6.35443 19.5933C4.10479 20.5003 2.02949 20.1586 0.904673 18.7997C-0.294424 17.3523 -0.461176 14.6408 1.38674 12.9077ZM10.7688 12.9232C10.2943 12.198 9.34383 10.8018 8.37667 9.67125C7.84307 9.04695 7.31552 8.5003 6.86529 8.24561L6.84559 8.23319C5.84811 7.63063 4.85214 7.31226 3.97442 7.3045C3.22404 7.29829 2.56916 7.52347 2.13561 8.0313C1.23969 9.07957 1.27456 11.1792 3.04213 12.2492C3.27558 12.3905 3.41656 12.6468 3.41505 12.9232C3.41201 13.2012 3.26649 13.4559 3.03152 13.5926C1.24879 14.6331 1.18057 16.7327 2.05981 17.7949C2.77836 18.6615 4.08054 18.7578 5.50248 18.2608C5.6571 17.8928 5.84356 17.5216 6.06034 17.1505C6.80011 15.832 9.38325 13.8876 10.7688 12.9232Z" fill="black"/>
<path fill-rule="evenodd" clip-rule="evenodd" d="M16.2765 18.9121C15.7208 18.5797 15.0533 17.9134 14.4039 17.1259C12.998 15.4205 11.6328 13.1559 11.6328 13.1559C11.4727 12.8903 11.4833 12.5532 11.6585 12.2985C11.6585 12.2985 11.7687 12.1323 11.9605 11.8574C12.0103 11.7859 12.0737 11.7223 12.1447 11.6726C13.306 10.8462 15.8672 8.98395 16.5272 7.73051C16.5317 7.72274 16.5347 7.71653 16.5393 7.71031C16.7129 7.40122 16.8624 7.09214 16.9847 6.78615C17.0618 6.59822 17.2052 6.44755 17.388 6.36834C19.7679 5.32924 21.9879 5.6694 23.1401 7.11388C24.3105 8.58011 24.4358 11.2936 22.5693 12.9974C24.3558 14.7914 24.1051 17.4955 22.8683 18.9043C21.5137 20.4451 18.877 20.546 16.2765 18.9121ZM13.2064 12.8048C13.6639 13.5286 14.5987 14.9607 15.5546 16.1209C16.0771 16.7547 16.5951 17.3092 17.0391 17.5716L17.0587 17.5825C18.0434 18.2023 19.031 18.5377 19.9039 18.5579C20.6514 18.5766 21.3083 18.3622 21.7478 17.8621C22.6554 16.8277 22.6523 14.7277 20.9081 13.6296C20.6786 13.4852 20.5427 13.2258 20.5487 12.9477C20.5547 12.6713 20.7042 12.4196 20.9398 12.2861C22.7324 11.2734 22.832 9.17654 21.9728 8.09862C21.2207 7.15737 19.7921 7.08592 18.2503 7.68546C18.1309 7.95261 17.9965 8.22132 17.8455 8.48847C17.1267 9.82423 14.57 11.8201 13.2064 12.8048Z" fill="black"/>
<path fill-rule="evenodd" clip-rule="evenodd" d="M11.7632 1.78696C13.4614 -0.178157 16.0917 0.0232262 17.4883 1.31923C19.0176 2.73703 19.1775 5.56939 17.6527 8.405C17.345 9.01078 16.7131 9.74485 15.9635 10.4643C14.3422 12.0169 12.1749 13.5403 12.1749 13.5403C11.9216 13.7189 11.5943 13.7173 11.3439 13.5354C11.3439 13.5354 11.1991 13.4347 10.9593 13.2577C10.8794 13.2009 10.8115 13.1278 10.7588 13.0417C9.98505 11.8123 8.16164 8.9718 6.93096 8.24097C6.92342 8.2361 6.91738 8.23285 6.91135 8.22798C6.52073 7.9795 6.1286 7.77812 5.74552 7.62383C5.54644 7.54425 5.38807 7.37697 5.30965 7.16584C4.41076 4.76223 4.72598 2.53565 6.0366 1.31923C7.43319 0.0232262 10.0635 -0.178157 11.7632 1.78696ZM11.822 11.8399C12.5218 11.3234 13.8717 10.2938 14.9606 9.24951C15.5639 8.67297 16.0902 8.10293 16.333 7.61896L16.3451 7.59784C16.9227 6.52434 17.2244 5.45408 17.2244 4.51538C17.2244 3.70984 16.9997 3.00987 16.505 2.55026C15.4794 1.59856 13.4403 1.65378 12.4148 3.55556C12.2805 3.80729 12.0317 3.96157 11.7632 3.96157C11.4948 3.96157 11.2459 3.80729 11.1102 3.55556C10.0861 1.65378 8.04702 1.59856 7.02145 2.55026C6.18591 3.32657 6.10296 4.72326 6.59765 6.24175C6.95509 6.40416 7.31705 6.60067 7.67902 6.82966C8.96551 7.61084 10.8734 10.3636 11.822 11.8399Z" fill="black"/>
<path fill-rule="evenodd" clip-rule="evenodd" d="M6.40159 17.1484C6.71833 16.572 7.36085 15.8772 8.12101 15.2011C9.76502 13.7383 11.9535 12.3114 11.9535 12.3114C12.2099 12.1447 12.5372 12.1525 12.7861 12.33C12.7861 12.33 12.9279 12.4297 13.1662 12.6027C13.2431 12.6603 13.311 12.7304 13.3622 12.813C14.1179 14.0063 15.9006 16.759 17.1193 17.4818C17.1269 17.4849 17.1329 17.4896 17.1389 17.4927C17.5266 17.7373 17.9142 17.9382 18.2958 18.0925C18.4934 18.1719 18.6502 18.3339 18.7256 18.538C19.5884 20.8576 19.2399 22.9887 17.9112 24.1337C16.4964 25.3535 13.863 25.5046 12.1933 23.5916C10.4664 25.4486 7.83897 25.2118 6.46041 23.9468C4.95365 22.5619 4.8345 19.8419 6.40159 17.1484ZM12.2823 13.9486C11.5749 14.4331 10.21 15.3974 9.1044 16.382C8.49506 16.9257 7.95963 17.4631 7.70926 17.9242L7.69719 17.9445C7.10293 18.9649 6.7862 19.9852 6.77262 20.8872C6.76056 21.6583 6.97473 22.3329 7.46341 22.7831C8.47395 23.7116 10.5146 23.6913 11.5674 21.8842C11.7062 21.6459 11.9565 21.5026 12.225 21.5072C12.4935 21.5119 12.7408 21.663 12.872 21.906C13.869 23.7474 15.9067 23.8331 16.9459 22.9373C17.7935 22.2067 17.8961 20.8685 17.424 19.4042C17.068 19.2422 16.7091 19.0474 16.3516 18.8215C15.0756 18.052 13.2084 15.3803 12.2823 13.9486Z" fill="black"/>
</svg>
