<svg width="53" height="66" viewBox="0 0 53 66" fill="none" xmlns="http://www.w3.org/2000/svg">
<path d="M49.7783 9.68767C47.0732 6.98928 42.3504 6.72386 36.4746 8.84719C33.8582 3.36193 30.3548 0 26.4302 0C22.5056 0 18.9801 3.33981 16.3859 8.84719C10.4657 6.63539 5.74291 6.98928 3.08216 9.68767C-1.21938 13.9786 0.864872 23.2017 7.51674 33.0221C0.864872 42.8425 -1.17503 52.0657 3.08216 56.3566C3.9311 57.1252 4.92548 57.7168 6.00687 58.0966C7.08826 58.4764 8.23485 58.6368 9.37927 58.5684C11.7854 58.4951 14.1619 58.0165 16.4081 57.1528C19.0245 62.6381 22.5278 66 26.4524 66C30.377 66 33.9025 62.6602 36.4967 57.1528C38.7429 58.0165 41.1194 58.4951 43.5255 58.5684C44.67 58.6368 45.8165 58.4764 46.8979 58.0966C47.9793 57.7168 48.9737 57.1252 49.8226 56.3566C54.1242 52.0657 52.0399 42.8425 45.3881 33.0221C52.0399 23.2017 54.0798 13.9786 49.7783 9.68767ZM43.459 9.68767C44.3176 9.63109 45.179 9.74463 45.9933 10.0218C46.8077 10.2989 47.5591 10.7341 48.204 11.3023C51.5743 14.6642 49.5787 22.5824 43.9912 31.2084C43.0156 29.8814 41.9513 28.5469 40.7983 27.2051C40.4555 21.6292 39.2823 16.1353 37.3171 10.9042C39.2805 10.1483 41.356 9.7223 43.459 9.64343V9.68767ZM35.255 54.366C32.8449 53.3049 30.5304 52.0396 28.3371 50.5838C31.3254 48.3895 34.1421 45.9717 36.7628 43.3512C37.295 42.8204 37.8049 42.2895 38.2927 41.7587C37.8038 46.0697 36.7835 50.3041 35.255 54.366ZM35.255 41.8693C32.5097 44.6003 29.5433 47.1007 26.3859 49.3452C23.2285 47.1007 20.262 44.6003 17.5167 41.8693C16.2972 40.6528 15.1442 39.4142 14.0577 38.1535C13.9469 36.4946 13.8582 34.8137 13.8582 33.0885C13.8582 31.3633 13.8582 29.6823 14.0577 28.0235C15.1442 26.7627 16.275 25.5241 17.5167 24.3076C20.262 21.5767 23.2285 19.0763 26.3859 16.8318C29.5382 19.0339 32.5045 21.4899 35.255 24.1749C36.4746 25.3914 37.6275 26.63 38.714 27.8908C38.8249 29.5496 38.9136 31.2306 38.9136 32.9558C38.9136 34.681 38.9136 36.3619 38.714 38.0208C37.4723 39.3257 36.408 40.5865 35.255 41.8693ZM14.5456 41.8693C15.0555 42.4001 15.5433 42.931 16.0755 43.4618C18.6961 46.0823 21.5128 48.5001 24.5012 50.6944C22.2827 52.1154 19.9459 53.3438 17.5167 54.366C15.9971 50.3396 14.9769 46.1428 14.479 41.8693H14.5456ZM11.7739 35.2339C11.1974 34.4967 10.6431 33.7594 10.111 33.0221C10.6431 32.2849 11.1974 31.5476 11.7739 30.8103C11.7739 31.5402 11.7739 32.2701 11.7739 33.0221C11.7739 33.7741 11.7518 34.504 11.7739 35.2339ZM17.5167 11.6783C19.9269 12.7393 22.2414 14.0047 24.4347 15.4605C21.4463 17.6547 18.6296 20.0725 16.009 22.693C15.4768 23.2239 14.9668 23.7547 14.479 24.2855C14.968 19.9745 15.9883 15.7401 17.5167 11.6783ZM38.2927 24.1749C37.7828 23.6441 37.295 23.1133 36.7628 22.5824C34.1421 19.962 31.3254 17.5441 28.3371 15.3499C30.5343 13.9322 32.8487 12.7039 35.255 11.6783C36.7747 15.7047 37.7948 19.9014 38.2927 24.1749ZM40.9978 30.8103C41.5743 31.5476 42.1287 32.2849 42.6608 33.0221C42.1287 33.7594 41.5743 34.4967 40.9978 35.2339C40.9978 34.504 40.9978 33.7741 40.9978 33.0221C40.9978 32.2701 41.02 31.5402 40.9978 30.8103ZM26.3859 2.23391C29.4014 2.23391 32.1952 5.06501 34.3681 9.64343C31.5757 10.8681 28.9035 12.349 26.3859 14.067C23.8683 12.349 21.196 10.8681 18.4036 9.64343C20.5766 5.06501 23.3704 2.23391 26.3859 2.23391ZM4.56775 11.258C5.21269 10.6898 5.96403 10.2546 6.77842 9.97752C7.59281 9.7004 8.45415 9.58685 9.31275 9.64343C11.4158 9.7223 13.4912 10.1483 15.4546 10.9042C13.5023 16.0931 12.3293 21.5414 11.9735 27.0724C10.8353 28.3995 9.77099 29.7339 8.7806 31.0757C3.19303 22.5382 1.19747 14.5979 4.56775 11.258ZM4.56775 54.7862C1.19747 51.4243 3.19303 43.506 8.7806 34.88C9.75621 36.2071 10.8205 37.5416 11.9735 38.8834C12.3206 44.4443 13.4938 49.923 15.4546 55.1401C10.5101 56.9095 6.58548 56.7989 4.56775 54.7862ZM26.3859 63.8103C23.3704 63.8103 20.5766 60.9792 18.4036 56.4008C21.196 55.1762 23.8683 53.6953 26.3859 51.9772C28.9035 53.6953 31.5757 55.1762 34.3681 56.4008C32.1952 60.9792 29.4014 63.8103 26.3859 63.8103ZM48.204 54.7862C46.1863 56.7989 42.2617 56.998 37.3171 55.1622C39.2716 49.9662 40.4447 44.5104 40.7983 38.9719C41.9365 37.6448 43.0008 36.3103 43.9912 34.9685C49.5787 43.506 51.5743 51.4464 48.204 54.7862Z" fill="black"/>
<path d="M26.386 30.4564C26.092 30.4564 25.81 30.5729 25.6021 30.7803C25.3941 30.9877 25.2773 31.269 25.2773 31.5623V34.4819C25.2773 34.7752 25.3941 35.0565 25.6021 35.2639C25.81 35.4713 26.092 35.5878 26.386 35.5878C26.68 35.5878 26.962 35.4713 27.1699 35.2639C27.3778 35.0565 27.4946 34.7752 27.4946 34.4819V31.5623C27.4946 31.269 27.3778 30.9877 27.1699 30.7803C26.962 30.5729 26.68 30.4564 26.386 30.4564Z" fill="black"/>
<path d="M8.64771 47.9739C8.35368 47.9739 8.07169 48.0904 7.86378 48.2978C7.65587 48.5052 7.53906 48.7865 7.53906 49.0798V51.9993C7.53906 52.2926 7.65587 52.5739 7.86378 52.7813C8.07169 52.9887 8.35368 53.1052 8.64771 53.1052C8.94174 53.1052 9.22373 52.9887 9.43164 52.7813C9.63955 52.5739 9.75635 52.2926 9.75635 51.9993V49.0798C9.75635 48.7865 9.63955 48.5052 9.43164 48.2978C9.22373 48.0904 8.94174 47.9739 8.64771 47.9739Z" fill="black"/>
<path d="M8.64771 14.7969C8.35368 14.7969 8.07169 14.9134 7.86378 15.1208C7.65587 15.3282 7.53906 15.6095 7.53906 15.9028V18.8223C7.53906 19.1156 7.65587 19.3969 7.86378 19.6043C8.07169 19.8117 8.35368 19.9282 8.64771 19.9282C8.94174 19.9282 9.22373 19.8117 9.43164 19.6043C9.63955 19.3969 9.75635 19.1156 9.75635 18.8223V15.9028C9.75635 15.6095 9.63955 15.3282 9.43164 15.1208C9.22373 14.9134 8.94174 14.7969 8.64771 14.7969Z" fill="black"/>
<path d="M44.1243 52.1763C44.4183 52.1763 44.7003 52.0598 44.9082 51.8524C45.1161 51.645 45.2329 51.3637 45.2329 51.0704V48.1508C45.2329 47.8575 45.1161 47.5762 44.9082 47.3688C44.7003 47.1614 44.4183 47.0449 44.1243 47.0449C43.8302 47.0449 43.5483 47.1614 43.3403 47.3688C43.1324 47.5762 43.0156 47.8575 43.0156 48.1508V51.0704C43.0156 51.3637 43.1324 51.645 43.3403 51.8524C43.5483 52.0598 43.8302 52.1763 44.1243 52.1763Z" fill="black"/>
<path d="M44.1243 18.9993C44.4183 18.9993 44.7003 18.8828 44.9082 18.6754C45.1161 18.468 45.2329 18.1867 45.2329 17.8934V14.9738C45.2329 14.6805 45.1161 14.3992 44.9082 14.1918C44.7003 13.9844 44.4183 13.8679 44.1243 13.8679C43.8302 13.8679 43.5483 13.9844 43.3403 14.1918C43.1324 14.3992 43.0156 14.6805 43.0156 14.9738V17.8934C43.0156 18.1867 43.1324 18.468 43.3403 18.6754C43.5483 18.8828 43.8302 18.9993 44.1243 18.9993Z" fill="black"/>
</svg>
