<svg width="63" height="66" viewBox="0 0 63 66" fill="none" xmlns="http://www.w3.org/2000/svg">
<path d="M31.5613 34.4435C32.5368 32.7063 32.8138 30.6024 32.3337 28.6621C32.0906 27.6919 31.6629 26.7612 31.0813 25.9366C30.7889 25.5243 30.4504 25.1363 30.0873 24.7876L29.2534 23.9811C25.0713 19.861 22.1232 14.6072 20.8649 9.0712C20.5972 7.84642 20.2341 6.02131 19.4771 4.81772C18.72 3.59293 17.563 2.85322 15.6797 3.43531C14.1349 3.90825 13.7255 5.06638 13.7902 6.42458C13.821 7.10671 13.9779 7.82826 14.1687 8.54981C14.2703 8.90755 14.3749 9.26529 14.4764 9.61394C14.5934 9.98684 14.7042 10.3506 14.815 10.6993C16.7937 16.9476 20.4803 22.6444 25.2934 27.0977C25.5858 27.3858 25.8997 27.6495 26.2074 27.9193L26.6567 28.3165C26.7367 28.3771 26.8075 28.4499 26.8783 28.5196C27.1552 28.7985 27.3891 29.132 27.5491 29.4988C27.8815 30.2295 27.9123 31.0965 27.6445 31.8575C27.386 32.6245 26.8106 33.3006 26.0782 33.7038C25.275 34.1373 24.761 34.1313 22.9423 34.1161H21.6991C20.3912 34.1313 19.108 34.8316 18.3971 35.9018C18.034 36.4384 17.8063 37.066 17.7447 37.7087C17.7294 37.8421 17.7201 38.0816 17.7201 38.1361V39.7581V44.4754V49.1926V51.4664C17.7109 51.7696 17.6247 52.0576 17.4616 52.3122C17.3047 52.5669 17.0585 52.7791 16.8 52.9186C16.6646 52.9883 16.5231 53.0338 16.3815 53.0732C16.3107 53.0884 16.2307 53.0974 16.1599 53.1035C16.0738 53.1035 16.0584 53.1187 15.7968 53.1126H11.0085H8.61432H8.31582H8.04809C7.93115 53.1126 7.81114 53.1278 7.6942 53.1429C7.22029 53.1975 6.75562 53.3218 6.31556 53.5158C5.44158 53.8887 4.68458 54.5314 4.1737 55.3227C4.04752 55.5167 3.93674 55.735 3.84134 55.9442L3.7244 56.217L3.4813 56.7597L2.992 57.839L2.02262 59.9975C1.1733 61.8923 -0.805406 64.3905 1.7949 65.6698C4.59835 67.0522 5.12767 63.7599 5.97085 61.9742L7.93112 57.7844C8.02651 57.5995 8.11884 57.5813 8.24501 57.5661L10.5622 57.5813L15.249 57.5964C15.886 57.6116 17.1723 57.6207 18.1571 57.2235C19.1818 56.8658 20.0865 56.2292 20.7881 55.4227C21.4898 54.6163 21.9698 53.6219 22.176 52.5729C22.216 52.3092 22.2622 52.0454 22.2714 51.7817L22.2868 51.3936V51.1056V49.9505L22.2714 45.3333V40.716V38.5726H24.2409C24.4132 38.5878 24.6502 38.5726 24.9117 38.5726C25.1641 38.5635 25.4072 38.5484 25.6534 38.5029C26.1488 38.4423 26.6381 38.324 27.112 38.1694C29.0108 37.5479 30.6418 36.1988 31.6111 34.4677L31.5613 34.4435Z" fill="black"/>
<path d="M61.6239 30.8027C57.3926 30.354 53.1646 31.4939 48.9333 29.3748C48.4379 29.1262 47.7271 28.8321 47.7424 32.7127C47.7578 35.896 48.4287 35.5382 48.8841 35.5534C50.9551 35.6141 53.02 35.1745 55.0911 35.1745C57.1621 35.1745 59.4147 35.1896 61.5812 35.1593C61.9351 35.1593 62.4644 35.9203 62.4859 33.0644C62.5105 29.9751 61.9566 30.8452 61.618 30.8058L61.6239 30.8027Z" fill="black"/>
<path d="M34.5706 0.946328C34.4136 1.21008 34.3582 1.51326 34.3429 1.80735C34.3336 1.9559 34.3336 2.10142 34.3429 2.25604C34.3521 2.43491 34.3582 2.60469 34.3736 2.77749C34.3736 4.2691 34.706 5.74853 35.146 7.17044C35.6661 8.57412 36.3185 9.92627 37.1956 11.1299C38.9281 13.5431 41.2608 15.4925 43.9319 16.7476C45.3105 17.4388 46.8153 17.8876 48.3355 18.1604L49.4864 18.3301L50.6435 18.3908L51.2097 18.415H51.6898H52.6499L60.3463 18.3999C61.1895 18.3999 62.442 19.1608 62.4974 16.305C62.5528 13.2157 61.2449 14.0858 60.4417 14.0463C57.9368 13.9372 55.4226 13.922 52.9115 13.9311H51.0435C50.4989 13.9008 49.9419 13.916 49.4064 13.8159C48.3109 13.6916 47.2554 13.349 46.2645 12.9155C45.2551 12.488 44.3565 11.8362 43.538 11.1389C42.7348 10.4082 42.0732 9.54722 41.5285 8.63164C40.5129 6.76105 40.1498 4.60253 40.6391 2.66225C40.7253 2.28329 40.8822 1.48294 40.4883 0.946338C40.1037 0.388507 39.1959 -0.014722 37.2264 0.000412182C35.6108 0.0155704 34.8938 0.418783 34.5799 0.946338L34.5706 0.946328Z" fill="black"/>
<path d="M60.3311 51.9215C61.1742 51.9215 62.4267 52.6825 62.4821 49.8266C62.5375 46.7464 61.2297 47.6074 60.4265 47.568C57.9215 47.4589 55.4073 47.4437 52.8962 47.4528L50.9975 47.4679C50.2959 47.5134 49.588 47.5134 48.8864 47.6529C47.4832 47.8378 46.1292 48.2744 44.8306 48.8261C39.6391 51.0938 35.7709 55.9203 34.4781 61.9052C34.3058 62.6722 34.1858 63.2876 34.5643 63.8697C34.949 64.4275 35.8568 64.8307 37.8262 64.8156C39.4419 64.8004 40.1588 64.3972 40.4728 63.8697C40.6297 63.6059 40.6851 63.3028 40.7005 63.0087C40.7097 62.8601 40.7005 62.7055 40.7005 62.5751C40.7005 62.466 40.7097 62.3568 40.7159 62.2568C40.7251 61.3261 40.9282 60.4166 41.1344 59.5162C41.4175 58.631 41.7345 57.7457 42.2299 56.9393C43.1838 55.3264 44.6025 53.8742 46.3658 53.0496C47.2705 52.5827 48.2553 52.3038 49.2493 52.125L50.0063 52.0097L50.7695 51.9794L51.1634 51.9552H51.6435H52.6036L60.3 51.94L60.3311 51.9215Z" fill="black"/>
</svg>
