<svg width="63" height="66" viewBox="0 0 63 66" fill="none" xmlns="http://www.w3.org/2000/svg">
<path d="M0.166016 11.7114C0.166016 55.314 30.9657 65.8503 31.1637 65.9376C31.3914 66.0208 31.6406 66.0208 31.8684 65.9376C32.1777 65.9376 62.866 55.2927 62.866 11.7114C62.866 11.4287 62.75 11.1584 62.5437 10.9588C62.3375 10.7592 62.0582 10.647 61.766 10.647C50.981 10.5887 40.5484 6.91709 32.2423 0.255725C31.8256 -0.0852417 31.2068 -0.0852417 30.79 0.255725C22.4842 6.91709 12.0517 10.5887 1.26636 10.647C0.660505 10.647 0.166016 11.1251 0.166016 11.7114ZM31.5157 2.47199C39.8258 8.86308 50.056 12.4723 60.6654 12.7552C60.1154 51.4174 34.8156 62.5073 31.5157 63.8092C28.1943 62.5326 2.91599 51.4845 2.36599 12.7137C12.9705 12.4392 23.2009 8.84648 31.5157 2.47199Z" fill="black"/>
<path d="M31.0075 35.9155C30.3759 36.0818 29.8818 36.56 29.7099 37.1754C29.4822 38.0611 29.972 38.9759 30.8529 39.3044V41.5165C30.8529 41.87 31.1494 42.1569 31.5146 42.1569C31.8798 42.1569 32.1763 41.87 32.1763 41.5165V39.3875C32.9154 39.1256 33.4095 38.4478 33.4052 37.6827C33.4095 37.113 33.1302 36.5724 32.6619 36.2231C32.1892 35.878 31.579 35.7658 31.0075 35.9155Z" fill="black"/>
<path d="M22.7152 46.8399H40.315C40.6072 46.8399 40.8865 46.7276 41.0928 46.528C41.299 46.3284 41.415 46.0582 41.415 45.7754V32.1489C41.415 31.8661 41.299 31.5958 41.0928 31.3962C40.8865 31.1967 40.6072 31.0844 40.315 31.0844H38.7768V26.1902C38.7768 22.3065 35.5241 19.1628 31.5151 19.1628C27.5061 19.1628 24.2534 22.3064 24.2534 26.1902V31.0885L22.7152 31.0844C22.1094 31.0844 21.6152 31.5626 21.6152 32.1489V45.7754C21.6152 46.0582 21.7312 46.3284 21.9375 46.528C22.1437 46.7276 22.423 46.8399 22.7152 46.8399ZM26.4534 26.1909C26.4534 23.4839 28.7221 21.2926 31.5151 21.2926C34.3081 21.2926 36.5768 23.4839 36.5768 26.1909V31.0893L26.4535 31.0851L26.4534 26.1909ZM23.8152 33.2183H39.215V44.7158H23.8152V33.2183Z" fill="black"/>
</svg>
