<svg width="15" height="24" viewBox="0 0 15 24" fill="none" xmlns="http://www.w3.org/2000/svg">
<path fill-rule="evenodd" clip-rule="evenodd" d="M1.34036 20.5221C1.34036 21.048 1.93953 21.6253 2.94295 22.0687C4.35847 22.6325 5.87273 22.9065 7.39607 22.8746C8.9194 22.9066 10.4337 22.6326 11.8492 22.0687C12.8526 21.6266 13.4518 21.0493 13.4518 20.5221C13.4518 19.8352 12.4633 19.0985 10.9327 18.6438C10.7935 18.5982 10.6777 18.5001 10.6097 18.3704C10.5417 18.2407 10.527 18.0896 10.5687 17.9492C10.6103 17.8088 10.7051 17.6901 10.8328 17.6185C10.9605 17.5469 11.1112 17.5278 11.2527 17.5655C13.3646 18.1929 14.576 19.2705 14.576 20.5221C14.576 21.537 13.7683 22.4514 12.3017 23.0972C10.7434 23.7232 9.07513 24.0296 7.39607 23.9982C5.71674 24.0296 4.04824 23.7232 2.48964 23.0972C1.02304 22.4514 0.215614 21.537 0.215614 20.5221C0.215614 19.2705 1.42702 18.1929 3.53892 17.5655C3.68192 17.523 3.83592 17.5392 3.96703 17.6103C4.09815 17.6814 4.19565 17.8017 4.23809 17.9447C4.28052 18.0877 4.26441 18.2417 4.1933 18.3728C4.12219 18.5039 4.0019 18.6014 3.8589 18.6438C2.32858 19.0971 1.33983 19.8352 1.33983 20.5221H1.34036ZM11.9265 12.3359C14.2096 8.73951 14.2384 5.25888 12.0038 3.02379C10.7808 1.80374 9.12384 1.11858 7.39633 1.11858C5.66883 1.11858 4.01184 1.80374 2.78882 3.02379C0.554264 5.25888 0.583063 8.73951 2.86589 12.3359L7.39607 19.4721L11.9265 12.3359ZM12.7993 2.22969C11.3636 0.801895 9.42112 0.000427246 7.39633 0.000427246C5.37154 0.000427246 3.42907 0.801895 1.99339 2.22969C1.30875 2.90916 0.77782 3.72759 0.436452 4.62975C0.0950832 5.53191 -0.0487847 6.4968 0.014557 7.4593C0.0982863 9.21655 0.755854 11.1125 1.91606 12.9396L6.92116 20.8232C6.97186 20.9033 7.04199 20.9692 7.12502 21.0149C7.20805 21.0606 7.30129 21.0846 7.39607 21.0846C7.49085 21.0846 7.58408 21.0606 7.66712 21.0149C7.75015 20.9692 7.82027 20.9033 7.87098 20.8232L12.8766 12.9385C14.0365 11.1103 14.6941 9.21549 14.7781 7.45824C14.8413 6.49573 14.6973 5.53087 14.3559 4.62874C14.0145 3.7266 13.4836 2.90816 12.799 2.22862L12.7993 2.22969ZM7.39607 9.98318C6.93104 9.98313 6.47646 9.84519 6.08983 9.5868C5.70319 9.32841 5.40185 8.96117 5.22392 8.53153C5.04598 8.10189 4.99944 7.62913 5.09017 7.17304C5.18091 6.71694 5.40485 6.298 5.73368 5.96917C6.0625 5.64035 6.48145 5.41641 6.93754 5.32567C7.39363 5.23493 7.86639 5.28148 8.29603 5.45941C8.72568 5.63735 9.09291 5.93868 9.3513 6.32532C9.60969 6.71196 9.74763 7.16653 9.74769 7.63156C9.74705 8.25506 9.49909 8.85283 9.05821 9.29371C8.61734 9.73458 8.01956 9.98255 7.39607 9.98318ZM7.39607 4.15546C8.08364 4.15546 8.75577 4.35936 9.32746 4.74136C9.89915 5.12336 10.3447 5.66631 10.6078 6.30154C10.8709 6.93678 10.9398 7.63578 10.8056 8.31013C10.6715 8.98449 10.3403 9.60392 9.85413 10.0901C9.36793 10.5763 8.74847 10.9073 8.07411 11.0414C7.39974 11.1755 6.70075 11.1067 6.06553 10.8435C5.43032 10.5803 4.8874 10.1347 4.50545 9.563C4.12349 8.99128 3.91965 8.31913 3.9197 7.63156C3.9209 6.70997 4.28755 5.82646 4.93925 5.17482C5.59094 4.52318 6.47447 4.15659 7.39607 4.15546Z" fill="black"/>
</svg>
