<svg width="24" height="24" viewBox="0 0 24 24" fill="none" xmlns="http://www.w3.org/2000/svg">
<path fill-rule="evenodd" clip-rule="evenodd" d="M11.6264 14.9411C10.0555 14.9411 8.77693 13.6215 8.77693 12.0001C8.77693 10.3783 10.0555 9.05868 11.6264 9.05868C13.1983 9.05868 14.4764 10.3783 14.4764 12.0001C14.4764 13.6215 13.1983 14.9411 11.6264 14.9411ZM11.6264 7.88221C9.42705 7.88221 7.63681 9.72943 7.63681 12.0001C7.63681 14.2703 9.42705 16.1175 11.6264 16.1175C13.0075 16.1175 14.2271 15.3899 14.9435 14.2857C15.6712 15.7593 17.1572 16.7737 18.8572 16.7737C20.0329 16.7737 21.1355 16.2945 21.9616 15.4242C22.7899 14.5514 23.2472 13.3793 23.25 12.1225C23.2514 8.86496 22.0443 5.81424 19.8492 3.53211C17.6593 1.25411 14.7393 0 11.6264 0C8.52085 0 5.60134 1.24779 3.40527 3.51459C1.20945 5.78114 0 8.79486 0 12.0001C0 15.2049 1.20945 18.2186 3.40504 20.4849C5.6011 22.7517 8.52061 24 11.6262 24C13.2983 24 14.9119 23.641 16.4229 22.9343C17.8823 22.2511 19.1696 21.2805 20.2496 20.0498C20.4604 19.8088 20.4425 19.437 20.2093 19.2184C19.9758 19.0006 19.6155 19.0188 19.404 19.2598C17.4188 21.5244 14.5837 22.8235 11.6264 22.8235C5.84398 22.8238 1.13989 17.9679 1.13989 12.0001C1.13989 6.03182 5.84398 1.17648 11.6264 1.17648C14.433 1.17648 17.066 2.30696 19.0399 4.36032C21.0212 6.42049 22.1115 9.17696 22.1096 12.1208C22.1059 14.0708 20.6778 15.597 18.8572 15.597C17.087 15.597 15.6297 14.1114 15.6085 12.2854C15.6085 12.1907 15.6163 12.0958 15.6163 12.0001C15.6163 9.72943 13.8265 7.88221 11.6264 7.88221Z" fill="black"/>
</svg>
