<svg width="245" height="24" viewBox="0 0 245 24" fill="none" xmlns="http://www.w3.org/2000/svg">
<path fill-rule="evenodd" clip-rule="evenodd" d="M11.6264 14.9411C10.0555 14.9411 8.77693 13.6215 8.77693 12.0001C8.77693 10.3783 10.0555 9.05868 11.6264 9.05868C13.1983 9.05868 14.4764 10.3783 14.4764 12.0001C14.4764 13.6215 13.1983 14.9411 11.6264 14.9411ZM11.6264 7.88221C9.42705 7.88221 7.63681 9.72943 7.63681 12.0001C7.63681 14.2703 9.42705 16.1175 11.6264 16.1175C13.0075 16.1175 14.2271 15.3899 14.9435 14.2857C15.6712 15.7593 17.1572 16.7737 18.8572 16.7737C20.0329 16.7737 21.1355 16.2945 21.9616 15.4242C22.7899 14.5514 23.2472 13.3793 23.25 12.1225C23.2514 8.86496 22.0443 5.81424 19.8492 3.53211C17.6593 1.25411 14.7393 0 11.6264 0C8.52085 0 5.60134 1.24779 3.40527 3.51459C1.20945 5.78114 0 8.79486 0 12.0001C0 15.2049 1.20945 18.2186 3.40504 20.4849C5.6011 22.7517 8.52061 24 11.6262 24C13.2983 24 14.9119 23.641 16.4229 22.9343C17.8823 22.2511 19.1696 21.2805 20.2496 20.0498C20.4604 19.8088 20.4425 19.437 20.2093 19.2184C19.9758 19.0006 19.6155 19.0188 19.404 19.2598C17.4188 21.5244 14.5837 22.8235 11.6264 22.8235C5.84398 22.8238 1.13989 17.9679 1.13989 12.0001C1.13989 6.03182 5.84398 1.17648 11.6264 1.17648C14.433 1.17648 17.066 2.30696 19.0399 4.36032C21.0212 6.42049 22.1115 9.17696 22.1096 12.1208C22.1059 14.0708 20.6778 15.597 18.8572 15.597C17.087 15.597 15.6297 14.1114 15.6085 12.2854C15.6085 12.1907 15.6163 12.0958 15.6163 12.0001C15.6163 9.72943 13.8265 7.88221 11.6264 7.88221Z" fill="black"/>
<path d="M32.6591 18V6.36364H39.6818V7.61364H34.0682V11.5455H39.3182V12.7955H34.0682V16.75H39.7727V18H32.6591ZM42.0398 18V9.27273H43.3352V10.6364H43.4489C43.6307 10.1705 43.9242 9.80871 44.3295 9.55114C44.7348 9.28977 45.2216 9.15909 45.7898 9.15909C46.3655 9.15909 46.8447 9.28977 47.2273 9.55114C47.6136 9.80871 47.9148 10.1705 48.1307 10.6364H48.2216C48.4451 10.1856 48.7803 9.82765 49.2273 9.5625C49.6742 9.29356 50.2102 9.15909 50.8352 9.15909C51.6155 9.15909 52.2538 9.40341 52.75 9.89205C53.2462 10.3769 53.4943 11.1326 53.4943 12.1591V18H52.1534V12.1591C52.1534 11.5152 51.9773 11.0549 51.625 10.7784C51.2727 10.5019 50.858 10.3636 50.3807 10.3636C49.767 10.3636 49.2917 10.5492 48.9545 10.9205C48.6174 11.2879 48.4489 11.7538 48.4489 12.3182V18H47.0852V12.0227C47.0852 11.5265 46.9242 11.1269 46.6023 10.8239C46.2803 10.517 45.8655 10.3636 45.358 10.3636C45.0095 10.3636 44.6837 10.4564 44.3807 10.642C44.0814 10.8277 43.839 11.0852 43.6534 11.4148C43.4716 11.7405 43.3807 12.1174 43.3807 12.5455V18H42.0398ZM58.5142 18.2045C57.9612 18.2045 57.4593 18.1004 57.0085 17.892C56.5578 17.6799 56.1998 17.375 55.9347 16.9773C55.6695 16.5758 55.5369 16.0909 55.5369 15.5227C55.5369 15.0227 55.6354 14.6174 55.8324 14.3068C56.0294 13.9924 56.2926 13.7462 56.6222 13.5682C56.9517 13.3902 57.3153 13.2576 57.7131 13.1705C58.1146 13.0795 58.518 13.0076 58.9233 12.9545C59.4536 12.8864 59.8835 12.8352 60.2131 12.8011C60.5464 12.7633 60.7888 12.7008 60.9403 12.6136C61.0956 12.5265 61.1733 12.375 61.1733 12.1591V12.1136C61.1733 11.553 61.0199 11.1174 60.7131 10.8068C60.41 10.4962 59.9498 10.3409 59.3324 10.3409C58.6922 10.3409 58.1903 10.4811 57.8267 10.7614C57.4631 11.0417 57.2074 11.3409 57.0597 11.6591L55.7869 11.2045C56.0142 10.6742 56.3172 10.2614 56.696 9.96591C57.0786 9.66667 57.4953 9.45833 57.946 9.34091C58.4006 9.2197 58.8475 9.15909 59.2869 9.15909C59.5672 9.15909 59.8892 9.19318 60.2528 9.26136C60.6203 9.32576 60.9744 9.46023 61.3153 9.66477C61.66 9.86932 61.946 10.178 62.1733 10.5909C62.4006 11.0038 62.5142 11.5568 62.5142 12.25V18H61.1733V16.8182H61.1051C61.0142 17.0076 60.8627 17.2102 60.6506 17.4261C60.4384 17.642 60.1563 17.8258 59.804 17.9773C59.4517 18.1288 59.0218 18.2045 58.5142 18.2045ZM58.7188 17C59.2491 17 59.696 16.8958 60.0597 16.6875C60.4271 16.4792 60.7036 16.2102 60.8892 15.8807C61.0786 15.5511 61.1733 15.2045 61.1733 14.8409V13.6136C61.1165 13.6818 60.9915 13.7443 60.7983 13.8011C60.6089 13.8542 60.3892 13.9015 60.1392 13.9432C59.893 13.9811 59.6525 14.0152 59.4176 14.0455C59.1866 14.072 58.9991 14.0947 58.8551 14.1136C58.5066 14.1591 58.1809 14.233 57.8778 14.3352C57.5786 14.4337 57.3362 14.5833 57.1506 14.7841C56.9688 14.9811 56.8778 15.25 56.8778 15.5909C56.8778 16.0568 57.0502 16.4091 57.3949 16.6477C57.7434 16.8826 58.1847 17 58.7188 17ZM64.9616 18V9.27273H66.3026V18H64.9616ZM65.6435 7.81818C65.3821 7.81818 65.1567 7.72917 64.9673 7.55114C64.7817 7.37311 64.6889 7.15909 64.6889 6.90909C64.6889 6.65909 64.7817 6.44508 64.9673 6.26705C65.1567 6.08902 65.3821 6 65.6435 6C65.9048 6 66.1283 6.08902 66.3139 6.26705C66.5033 6.44508 66.598 6.65909 66.598 6.90909C66.598 7.15909 66.5033 7.37311 66.3139 7.55114C66.1283 7.72917 65.9048 7.81818 65.6435 7.81818ZM70.0994 6.36364V18H68.7585V6.36364H70.0994ZM73.5327 18.0909C73.2524 18.0909 73.0118 17.9905 72.8111 17.7898C72.6103 17.589 72.5099 17.3485 72.5099 17.0682C72.5099 16.7879 72.6103 16.5473 72.8111 16.3466C73.0118 16.1458 73.2524 16.0455 73.5327 16.0455C73.813 16.0455 74.0535 16.1458 74.2543 16.3466C74.455 16.5473 74.5554 16.7879 74.5554 17.0682C74.5554 17.2538 74.508 17.4242 74.4134 17.5795C74.3224 17.7348 74.1993 17.8598 74.044 17.9545C73.8925 18.0455 73.7221 18.0909 73.5327 18.0909ZM73.5327 11.6136C73.2524 11.6136 73.0118 11.5133 72.8111 11.3125C72.6103 11.1117 72.5099 10.8712 72.5099 10.5909C72.5099 10.3106 72.6103 10.0701 72.8111 9.86932C73.0118 9.66856 73.2524 9.56818 73.5327 9.56818C73.813 9.56818 74.0535 9.66856 74.2543 9.86932C74.455 10.0701 74.5554 10.3106 74.5554 10.5909C74.5554 10.7765 74.508 10.947 74.4134 11.1023C74.3224 11.2576 74.1993 11.3826 74.044 11.4773C73.8925 11.5682 73.7221 11.6136 73.5327 11.6136Z" fill="#5F5F5F"/>
<path d="M81.2912 18V9.27273H83.348V18H81.2912ZM82.3253 8.03409C81.9995 8.03409 81.7192 7.92614 81.4844 7.71023C81.2495 7.49053 81.1321 7.22727 81.1321 6.92045C81.1321 6.60985 81.2495 6.34659 81.4844 6.13068C81.7192 5.91098 81.9995 5.80114 82.3253 5.80114C82.6548 5.80114 82.9351 5.91098 83.1662 6.13068C83.401 6.34659 83.5185 6.60985 83.5185 6.92045C83.5185 7.22727 83.401 7.49053 83.1662 7.71023C82.9351 7.92614 82.6548 8.03409 82.3253 8.03409ZM87.5199 12.8864V18H85.4631V9.27273H87.429V10.7557H87.5312C87.732 10.267 88.0521 9.87879 88.4915 9.59091C88.9347 9.30303 89.482 9.15909 90.1335 9.15909C90.7358 9.15909 91.2604 9.28788 91.7074 9.54545C92.1581 9.80303 92.5066 10.1761 92.7528 10.6648C93.0028 11.1534 93.1259 11.7462 93.1222 12.4432V18H91.0653V12.7614C91.0653 12.178 90.9138 11.7216 90.6108 11.392C90.3116 11.0625 89.8968 10.8977 89.3665 10.8977C89.0066 10.8977 88.6866 10.9773 88.4062 11.1364C88.1297 11.2917 87.9119 11.517 87.7528 11.8125C87.5975 12.108 87.5199 12.4659 87.5199 12.8864ZM99.6335 9.27273V10.8636H94.4744V9.27273H99.6335ZM95.7642 18V8.44886C95.7642 7.86174 95.8854 7.37311 96.1278 6.98295C96.3741 6.5928 96.7036 6.30114 97.1165 6.10795C97.5294 5.91477 97.9877 5.81818 98.4915 5.81818C98.8475 5.81818 99.1638 5.84659 99.4403 5.90341C99.7169 5.96023 99.9214 6.01136 100.054 6.05682L99.6449 7.64773C99.5578 7.62121 99.4479 7.5947 99.3153 7.56818C99.1828 7.53788 99.035 7.52273 98.8722 7.52273C98.4896 7.52273 98.2188 7.61553 98.0597 7.80114C97.9044 7.98295 97.8267 8.24432 97.8267 8.58523V18H95.7642ZM104.723 18.1705C103.871 18.1705 103.132 17.983 102.507 17.608C101.882 17.233 101.397 16.7083 101.053 16.0341C100.712 15.3598 100.541 14.572 100.541 13.6705C100.541 12.7689 100.712 11.9792 101.053 11.3011C101.397 10.6231 101.882 10.0966 102.507 9.72159C103.132 9.34659 103.871 9.15909 104.723 9.15909C105.575 9.15909 106.314 9.34659 106.939 9.72159C107.564 10.0966 108.047 10.6231 108.388 11.3011C108.732 11.9792 108.905 12.7689 108.905 13.6705C108.905 14.572 108.732 15.3598 108.388 16.0341C108.047 16.7083 107.564 17.233 106.939 17.608C106.314 17.983 105.575 18.1705 104.723 18.1705ZM104.734 16.5227C105.196 16.5227 105.583 16.3958 105.893 16.142C106.204 15.8845 106.435 15.5398 106.587 15.108C106.742 14.6761 106.82 14.1951 106.82 13.6648C106.82 13.1307 106.742 12.6477 106.587 12.2159C106.435 11.7803 106.204 11.4337 105.893 11.1761C105.583 10.9186 105.196 10.7898 104.734 10.7898C104.261 10.7898 103.867 10.9186 103.553 11.1761C103.242 11.4337 103.009 11.7803 102.854 12.2159C102.702 12.6477 102.626 13.1307 102.626 13.6648C102.626 14.1951 102.702 14.6761 102.854 15.108C103.009 15.5398 103.242 15.8845 103.553 16.142C103.867 16.3958 104.261 16.5227 104.734 16.5227ZM117.963 21.2614C116.77 21.2614 115.709 21.0985 114.781 20.7727C113.857 20.4508 113.077 19.9754 112.44 19.3466C111.804 18.7216 111.321 17.9583 110.991 17.0568C110.662 16.1553 110.495 15.125 110.491 13.9659C110.495 12.8333 110.664 11.8125 110.997 10.9034C111.33 9.99053 111.817 9.21023 112.457 8.5625C113.098 7.91098 113.88 7.41098 114.804 7.0625C115.728 6.71401 116.779 6.53977 117.957 6.53977C119.067 6.53977 120.05 6.70833 120.906 7.04545C121.766 7.38258 122.491 7.85227 123.082 8.45455C123.677 9.05303 124.126 9.75379 124.429 10.5568C124.736 11.3561 124.889 12.2235 124.889 13.1591C124.889 13.8068 124.84 14.4205 124.741 15C124.643 15.5758 124.474 16.0871 124.236 16.5341C124.001 16.9811 123.681 17.3371 123.276 17.6023C122.87 17.8636 122.363 18.0057 121.753 18.0284C121.37 18.0473 121.035 18.0114 120.747 17.9205C120.459 17.8295 120.226 17.6875 120.048 17.4943C119.874 17.2973 119.764 17.0568 119.719 16.7727H119.651C119.563 17 119.399 17.2083 119.156 17.3977C118.918 17.5833 118.622 17.7292 118.27 17.8352C117.918 17.9375 117.526 17.9792 117.094 17.9602C116.632 17.9375 116.204 17.8314 115.81 17.642C115.42 17.4489 115.079 17.1799 114.787 16.8352C114.499 16.4867 114.276 16.0663 114.116 15.5739C113.957 15.0814 113.878 14.5227 113.878 13.8977C113.878 13.2879 113.965 12.75 114.139 12.2841C114.313 11.8182 114.546 11.4205 114.838 11.0909C115.134 10.7614 115.467 10.5038 115.838 10.3182C116.209 10.1288 116.592 10.0076 116.986 9.95455C117.395 9.89773 117.779 9.90341 118.139 9.97159C118.499 10.0398 118.798 10.1439 119.037 10.2841C119.279 10.4242 119.431 10.5777 119.491 10.7443H119.571V10.108H121.156V15.517C121.16 15.8011 121.228 16.0303 121.361 16.2045C121.497 16.3788 121.687 16.4659 121.929 16.4659C122.232 16.4659 122.476 16.3466 122.662 16.108C122.851 15.8655 122.988 15.4943 123.071 14.9943C123.158 14.4905 123.2 13.8466 123.196 13.0625C123.2 12.4186 123.115 11.8352 122.94 11.3125C122.77 10.786 122.527 10.3239 122.213 9.92614C121.899 9.52841 121.522 9.19697 121.082 8.93182C120.647 8.66288 120.162 8.46023 119.628 8.32386C119.094 8.1875 118.524 8.11932 117.918 8.11932C116.99 8.11932 116.173 8.26136 115.469 8.54545C114.764 8.82576 114.173 9.22538 113.696 9.74432C113.223 10.2633 112.865 10.8788 112.622 11.5909C112.384 12.2992 112.264 13.0833 112.264 13.9432C112.264 14.8636 112.389 15.6799 112.639 16.392C112.893 17.1004 113.264 17.697 113.753 18.1818C114.241 18.6667 114.846 19.0341 115.565 19.2841C116.289 19.5341 117.12 19.6591 118.06 19.6591C118.491 19.6591 118.914 19.625 119.327 19.5568C119.74 19.4886 120.111 19.4091 120.44 19.3182C120.77 19.2273 121.024 19.1477 121.202 19.0795L121.685 20.5227C121.45 20.6439 121.132 20.7614 120.73 20.875C120.332 20.9886 119.893 21.0814 119.412 21.1534C118.935 21.2254 118.452 21.2614 117.963 21.2614ZM117.565 16.3295C118.046 16.3295 118.431 16.2367 118.719 16.0511C119.007 15.8617 119.213 15.5814 119.338 15.2102C119.463 14.839 119.524 14.3769 119.52 13.8239C119.52 13.3087 119.455 12.8864 119.327 12.5568C119.198 12.2273 118.991 11.983 118.707 11.8239C118.423 11.6648 118.046 11.5852 117.577 11.5852C117.152 11.5852 116.791 11.6818 116.491 11.875C116.196 12.0682 115.969 12.3352 115.81 12.6761C115.654 13.0133 115.577 13.3977 115.577 13.8295C115.577 14.2614 115.639 14.6686 115.764 15.0511C115.893 15.4299 116.101 15.7386 116.389 15.9773C116.681 16.2121 117.073 16.3295 117.565 16.3295ZM130.442 18.1705C129.571 18.1705 128.822 17.9792 128.197 17.5966C127.576 17.214 127.097 16.6856 126.76 16.0114C126.427 15.3333 126.26 14.553 126.26 13.6705C126.26 12.7841 126.43 12.0019 126.771 11.3239C127.112 10.642 127.593 10.1117 128.214 9.73295C128.839 9.35038 129.578 9.15909 130.43 9.15909C131.139 9.15909 131.766 9.28977 132.311 9.55114C132.86 9.80871 133.298 10.1742 133.624 10.6477C133.949 11.1174 134.135 11.6667 134.18 12.2955H132.214C132.135 11.875 131.946 11.5246 131.646 11.2443C131.351 10.9602 130.955 10.8182 130.459 10.8182C130.038 10.8182 129.669 10.9318 129.351 11.1591C129.033 11.3826 128.785 11.7045 128.607 12.125C128.432 12.5455 128.345 13.0492 128.345 13.6364C128.345 14.2311 128.432 14.7424 128.607 15.1705C128.781 15.5947 129.025 15.9223 129.339 16.1534C129.658 16.3807 130.031 16.4943 130.459 16.4943C130.762 16.4943 131.033 16.4375 131.271 16.3239C131.514 16.2064 131.716 16.0379 131.879 15.8182C132.042 15.5985 132.154 15.3314 132.214 15.017H134.18C134.131 15.6345 133.949 16.1818 133.635 16.6591C133.321 17.1326 132.893 17.5038 132.351 17.7727C131.809 18.0379 131.173 18.1705 130.442 18.1705ZM135.869 18V9.27273H137.864V10.7273H137.955C138.114 10.2235 138.386 9.83523 138.773 9.5625C139.163 9.28598 139.608 9.14773 140.108 9.14773C140.222 9.14773 140.348 9.15341 140.489 9.16477C140.633 9.17235 140.752 9.18561 140.847 9.20455V11.0966C140.759 11.0663 140.621 11.0398 140.432 11.017C140.246 10.9905 140.066 10.9773 139.892 10.9773C139.517 10.9773 139.18 11.0587 138.881 11.2216C138.585 11.3807 138.352 11.6023 138.182 11.8864C138.011 12.1705 137.926 12.4981 137.926 12.8693V18H135.869ZM145.717 18.1705C144.842 18.1705 144.087 17.9886 143.45 17.625C142.818 17.2576 142.331 16.7386 141.99 16.0682C141.649 15.3939 141.479 14.6004 141.479 13.6875C141.479 12.7898 141.649 12.0019 141.99 11.3239C142.335 10.642 142.816 10.1117 143.433 9.73295C144.051 9.35038 144.776 9.15909 145.609 9.15909C146.147 9.15909 146.655 9.24621 147.132 9.42045C147.613 9.59091 148.037 9.85606 148.405 10.2159C148.776 10.5758 149.068 11.0341 149.28 11.5909C149.492 12.1439 149.598 12.803 149.598 13.5682V14.1989H142.445V12.8125H147.626C147.623 12.4186 147.537 12.0682 147.371 11.7614C147.204 11.4508 146.971 11.2064 146.672 11.0284C146.376 10.8504 146.032 10.7614 145.638 10.7614C145.217 10.7614 144.848 10.8636 144.53 11.0682C144.212 11.2689 143.964 11.5341 143.786 11.8636C143.611 12.1894 143.522 12.5473 143.518 12.9375V14.1477C143.518 14.6553 143.611 15.0909 143.797 15.4545C143.982 15.8144 144.242 16.0909 144.575 16.2841C144.909 16.4735 145.299 16.5682 145.746 16.5682C146.045 16.5682 146.316 16.5265 146.558 16.4432C146.801 16.3561 147.011 16.2292 147.189 16.0625C147.367 15.8958 147.501 15.6894 147.592 15.4432L149.513 15.6591C149.392 16.1667 149.161 16.6098 148.82 16.9886C148.482 17.3636 148.051 17.6553 147.524 17.8636C146.998 18.0682 146.395 18.1705 145.717 18.1705ZM154.577 18.1534C153.891 18.1534 153.277 17.9773 152.736 17.625C152.194 17.2727 151.766 16.7614 151.452 16.0909C151.137 15.4205 150.98 14.6061 150.98 13.6477C150.98 12.678 151.139 11.8598 151.457 11.1932C151.779 10.5227 152.213 10.017 152.759 9.67614C153.304 9.33144 153.912 9.15909 154.582 9.15909C155.094 9.15909 155.514 9.24621 155.844 9.42045C156.173 9.59091 156.435 9.79735 156.628 10.0398C156.821 10.2784 156.971 10.5038 157.077 10.7159H157.162V6.36364H159.224V18H157.202V16.625H157.077C156.971 16.8371 156.817 17.0625 156.616 17.3011C156.416 17.536 156.151 17.7367 155.821 17.9034C155.491 18.0701 155.077 18.1534 154.577 18.1534ZM155.151 16.4659C155.586 16.4659 155.957 16.3485 156.264 16.1136C156.571 15.875 156.804 15.5436 156.963 15.1193C157.122 14.6951 157.202 14.2008 157.202 13.6364C157.202 13.072 157.122 12.5814 156.963 12.1648C156.808 11.7481 156.577 11.4242 156.27 11.1932C155.967 10.9621 155.594 10.8466 155.151 10.8466C154.692 10.8466 154.31 10.9659 154.003 11.2045C153.696 11.4432 153.465 11.7727 153.31 12.1932C153.154 12.6136 153.077 13.0947 153.077 13.6364C153.077 14.1818 153.154 14.6686 153.31 15.0966C153.469 15.5208 153.702 15.8561 154.009 16.1023C154.319 16.3447 154.7 16.4659 155.151 16.4659ZM161.416 18V9.27273H163.473V18H161.416ZM162.45 8.03409C162.125 8.03409 161.844 7.92614 161.609 7.71023C161.375 7.49053 161.257 7.22727 161.257 6.92045C161.257 6.60985 161.375 6.34659 161.609 6.13068C161.844 5.91098 162.125 5.80114 162.45 5.80114C162.78 5.80114 163.06 5.91098 163.291 6.13068C163.526 6.34659 163.643 6.60985 163.643 6.92045C163.643 7.22727 163.526 7.49053 163.291 7.71023C163.06 7.92614 162.78 8.03409 162.45 8.03409ZM169.946 9.27273V10.8636H164.929V9.27273H169.946ZM166.168 7.18182H168.224V15.375C168.224 15.6515 168.266 15.8636 168.349 16.0114C168.437 16.1553 168.55 16.2538 168.69 16.3068C168.83 16.3598 168.986 16.3864 169.156 16.3864C169.285 16.3864 169.402 16.3769 169.509 16.358C169.618 16.339 169.702 16.322 169.759 16.3068L170.105 17.9148C169.995 17.9527 169.838 17.9943 169.634 18.0398C169.433 18.0852 169.187 18.1117 168.895 18.1193C168.38 18.1345 167.916 18.0568 167.503 17.8864C167.09 17.7121 166.762 17.4432 166.52 17.0795C166.281 16.7159 166.164 16.2614 166.168 15.7159V7.18182ZM175.436 18.1705C174.561 18.1705 173.805 17.9886 173.169 17.625C172.536 17.2576 172.05 16.7386 171.709 16.0682C171.368 15.3939 171.197 14.6004 171.197 13.6875C171.197 12.7898 171.368 12.0019 171.709 11.3239C172.054 10.642 172.535 10.1117 173.152 9.73295C173.769 9.35038 174.495 9.15909 175.328 9.15909C175.866 9.15909 176.374 9.24621 176.851 9.42045C177.332 9.59091 177.756 9.85606 178.124 10.2159C178.495 10.5758 178.786 11.0341 178.999 11.5909C179.211 12.1439 179.317 12.803 179.317 13.5682V14.1989H172.163V12.8125H177.345C177.341 12.4186 177.256 12.0682 177.089 11.7614C176.923 11.4508 176.69 11.2064 176.391 11.0284C176.095 10.8504 175.75 10.7614 175.357 10.7614C174.936 10.7614 174.567 10.8636 174.249 11.0682C173.93 11.2689 173.682 11.5341 173.504 11.8636C173.33 12.1894 173.241 12.5473 173.237 12.9375V14.1477C173.237 14.6553 173.33 15.0909 173.516 15.4545C173.701 15.8144 173.961 16.0909 174.294 16.2841C174.627 16.4735 175.018 16.5682 175.464 16.5682C175.764 16.5682 176.035 16.5265 176.277 16.4432C176.519 16.3561 176.73 16.2292 176.908 16.0625C177.086 15.8958 177.22 15.6894 177.311 15.4432L179.232 15.6591C179.11 16.1667 178.879 16.6098 178.538 16.9886C178.201 17.3636 177.769 17.6553 177.243 17.8636C176.716 18.0682 176.114 18.1705 175.436 18.1705ZM182.551 9.27273L184.312 12.4943L186.102 9.27273H188.278L185.648 13.6364L188.324 18H186.159L184.312 14.858L182.483 18H180.301L182.96 13.6364L180.369 9.27273H182.551ZM191.136 18.125C190.792 18.125 190.496 18.0038 190.25 17.7614C190.004 17.5189 189.883 17.2235 189.886 16.875C189.883 16.5341 190.004 16.2424 190.25 16C190.496 15.7576 190.792 15.6364 191.136 15.6364C191.47 15.6364 191.759 15.7576 192.006 16C192.256 16.2424 192.383 16.5341 192.386 16.875C192.383 17.1061 192.322 17.3163 192.205 17.5057C192.091 17.6951 191.939 17.8466 191.75 17.9602C191.564 18.0701 191.36 18.125 191.136 18.125ZM194.601 18V6.36364H196.658V10.7159H196.743C196.849 10.5038 196.999 10.2784 197.192 10.0398C197.385 9.79735 197.646 9.59091 197.976 9.42045C198.305 9.24621 198.726 9.15909 199.237 9.15909C199.911 9.15909 200.519 9.33144 201.061 9.67614C201.607 10.017 202.038 10.5227 202.357 11.1932C202.679 11.8598 202.839 12.678 202.839 13.6477C202.839 14.6061 202.682 15.4205 202.368 16.0909C202.054 16.7614 201.625 17.2727 201.084 17.625C200.542 17.9773 199.929 18.1534 199.243 18.1534C198.743 18.1534 198.328 18.0701 197.999 17.9034C197.669 17.7367 197.404 17.536 197.203 17.3011C197.006 17.0625 196.853 16.8371 196.743 16.625H196.624V18H194.601ZM196.618 13.6364C196.618 14.2008 196.697 14.6951 196.857 15.1193C197.019 15.5436 197.252 15.875 197.555 16.1136C197.862 16.3485 198.233 16.4659 198.669 16.4659C199.124 16.4659 199.504 16.3447 199.811 16.1023C200.118 15.8561 200.349 15.5208 200.504 15.0966C200.663 14.6686 200.743 14.1818 200.743 13.6364C200.743 13.0947 200.665 12.6136 200.51 12.1932C200.355 11.7727 200.124 11.4432 199.817 11.2045C199.51 10.9659 199.127 10.8466 198.669 10.8466C198.23 10.8466 197.857 10.9621 197.55 11.1932C197.243 11.4242 197.01 11.7481 196.851 12.1648C196.696 12.5814 196.618 13.072 196.618 13.6364ZM204.588 18V9.27273H206.582V10.7273H206.673C206.832 10.2235 207.105 9.83523 207.491 9.5625C207.882 9.28598 208.327 9.14773 208.827 9.14773C208.94 9.14773 209.067 9.15341 209.207 9.16477C209.351 9.17235 209.471 9.18561 209.565 9.20455V11.0966C209.478 11.0663 209.34 11.0398 209.151 11.017C208.965 10.9905 208.785 10.9773 208.611 10.9773C208.236 10.9773 207.899 11.0587 207.599 11.2216C207.304 11.3807 207.071 11.6023 206.901 11.8864C206.73 12.1705 206.645 12.4981 206.645 12.8693V18H204.588ZM214.379 18.1705C213.527 18.1705 212.788 17.983 212.163 17.608C211.538 17.233 211.054 16.7083 210.709 16.0341C210.368 15.3598 210.197 14.572 210.197 13.6705C210.197 12.7689 210.368 11.9792 210.709 11.3011C211.054 10.6231 211.538 10.0966 212.163 9.72159C212.788 9.34659 213.527 9.15909 214.379 9.15909C215.232 9.15909 215.97 9.34659 216.595 9.72159C217.22 10.0966 217.703 10.6231 218.044 11.3011C218.389 11.9792 218.561 12.7689 218.561 13.6705C218.561 14.572 218.389 15.3598 218.044 16.0341C217.703 16.7083 217.22 17.233 216.595 17.608C215.97 17.983 215.232 18.1705 214.379 18.1705ZM214.391 16.5227C214.853 16.5227 215.239 16.3958 215.55 16.142C215.86 15.8845 216.091 15.5398 216.243 15.108C216.398 14.6761 216.476 14.1951 216.476 13.6648C216.476 13.1307 216.398 12.6477 216.243 12.2159C216.091 11.7803 215.86 11.4337 215.55 11.1761C215.239 10.9186 214.853 10.7898 214.391 10.7898C213.917 10.7898 213.523 10.9186 213.209 11.1761C212.898 11.4337 212.665 11.7803 212.51 12.2159C212.358 12.6477 212.283 13.1307 212.283 13.6648C212.283 14.1951 212.358 14.6761 212.51 15.108C212.665 15.5398 212.898 15.8845 213.209 16.142C213.523 16.3958 213.917 16.5227 214.391 16.5227ZM222.182 15.2614L222.176 12.7784H222.506L225.642 9.27273H228.045L224.188 13.5682H223.761L222.182 15.2614ZM220.307 18V6.36364H222.364V18H220.307ZM225.784 18L222.943 14.0284L224.33 12.5795L228.244 18H225.784ZM232.92 18.1705C232.045 18.1705 231.29 17.9886 230.653 17.625C230.021 17.2576 229.534 16.7386 229.193 16.0682C228.852 15.3939 228.682 14.6004 228.682 13.6875C228.682 12.7898 228.852 12.0019 229.193 11.3239C229.538 10.642 230.019 10.1117 230.636 9.73295C231.254 9.35038 231.979 9.15909 232.812 9.15909C233.35 9.15909 233.858 9.24621 234.335 9.42045C234.816 9.59091 235.241 9.85606 235.608 10.2159C235.979 10.5758 236.271 11.0341 236.483 11.5909C236.695 12.1439 236.801 12.803 236.801 13.5682V14.1989H229.648V12.8125H234.83C234.826 12.4186 234.741 12.0682 234.574 11.7614C234.407 11.4508 234.174 11.2064 233.875 11.0284C233.58 10.8504 233.235 10.7614 232.841 10.7614C232.42 10.7614 232.051 10.8636 231.733 11.0682C231.415 11.2689 231.167 11.5341 230.989 11.8636C230.814 12.1894 230.725 12.5473 230.722 12.9375V14.1477C230.722 14.6553 230.814 15.0909 231 15.4545C231.186 15.8144 231.445 16.0909 231.778 16.2841C232.112 16.4735 232.502 16.5682 232.949 16.5682C233.248 16.5682 233.519 16.5265 233.761 16.4432C234.004 16.3561 234.214 16.2292 234.392 16.0625C234.57 15.8958 234.705 15.6894 234.795 15.4432L236.716 15.6591C236.595 16.1667 236.364 16.6098 236.023 16.9886C235.686 17.3636 235.254 17.6553 234.727 17.8636C234.201 18.0682 233.598 18.1705 232.92 18.1705ZM238.541 18V9.27273H240.536V10.7273H240.626C240.786 10.2235 241.058 9.83523 241.445 9.5625C241.835 9.28598 242.28 9.14773 242.78 9.14773C242.893 9.14773 243.02 9.15341 243.161 9.16477C243.304 9.17235 243.424 9.18561 243.518 9.20455V11.0966C243.431 11.0663 243.293 11.0398 243.104 11.017C242.918 10.9905 242.738 10.9773 242.564 10.9773C242.189 10.9773 241.852 11.0587 241.553 11.2216C241.257 11.3807 241.024 11.6023 240.854 11.8864C240.683 12.1705 240.598 12.4981 240.598 12.8693V18H238.541Z" fill="#292929"/>
</svg>
