<svg width="243" height="45" viewBox="0 0 243 45" fill="none" xmlns="http://www.w3.org/2000/svg">
<mask id="path-1-inside-1_3295_13" fill="white">
<path d="M36.0415 8.95846L35.9888 7.56941C35.8305 3.32319 32.3814 0 28.141 0C26.4092 0 24.774 0.547991 23.4084 1.58245L22.5 2.26524L21.5916 1.58245C20.226 0.548013 18.5908 0 16.8589 0C12.6127 0 9.1695 3.32312 9.01121 7.56941L8.95846 8.95846L7.56941 9.01121C3.32319 9.16946 0 12.6186 0 16.8589C0 18.585 0.547991 20.226 1.58245 21.5916L2.26524 22.5L1.58245 23.4084C0.548013 24.774 0 26.4092 0 28.1411C0 32.3873 3.32312 35.8305 7.56941 35.9888L8.95846 36.0415L9.01121 37.4306C9.16946 41.6768 12.6186 45 16.8589 45C18.5908 45 20.226 44.452 21.5916 43.4175L22.5 42.7348L23.4084 43.4175C24.774 44.452 26.4092 45 28.141 45C32.3873 45 35.8305 41.6769 35.9888 37.4306L36.0415 36.0415L37.4306 35.9888C41.6768 35.8305 45 32.3814 45 28.1411C45 26.415 44.452 24.774 43.4175 23.4084L42.7348 22.5L43.4175 21.5916C44.452 20.226 45 18.5908 45 16.8589C45 12.6127 41.6769 9.1695 37.4306 9.01121L36.0415 8.95846ZM13.6469 4.21704C14.6959 3.29393 16.0938 2.8661 17.4887 3.03902C18.5612 3.17382 19.5663 3.6925 20.3986 4.52477L21.3509 5.47713C21.9898 6.11597 23.0155 6.11597 23.6455 5.47713L24.5978 4.52477C25.4301 3.69251 26.444 3.17383 27.5077 3.03902C28.9027 2.86612 30.3063 3.29396 31.3495 4.21704C32.3986 5.14015 32.9994 6.47639 32.9994 7.87129C32.9994 9.13138 32.5129 10.3328 31.6279 11.2471L31.5312 11.338L23.9851 18.8841C23.5865 19.2827 23.0561 19.4995 22.4935 19.4995C21.9308 19.4995 21.3975 19.2827 21.0019 18.8841L13.4235 11.3057C12.4857 10.3387 11.9904 9.15186 11.9904 7.87128C11.9904 6.47638 12.5912 5.14892 13.6403 4.21703L13.6469 4.21704ZM11.2469 31.6222C10.3238 32.5072 9.12525 33.0024 7.86223 33.0024C6.46733 33.0024 5.13987 32.4017 4.20798 31.3526C3.28487 30.3035 2.85704 28.9057 3.02996 27.5108C3.16476 26.4383 3.68344 25.4332 4.51571 24.6009L5.46808 23.6485C6.10691 23.0097 6.10691 21.984 5.46808 21.354L4.51571 20.4016C3.6893 19.5752 3.16477 18.5496 3.02996 17.4917C2.8512 16.0968 3.27611 14.7019 4.20798 13.6499C5.13109 12.6009 6.46733 12.0001 7.86223 12.0001C9.12232 12.0001 10.3238 12.4866 11.2381 13.3715L11.3289 13.4682L18.8751 21.0144C19.7015 21.8408 19.7015 23.1741 18.8751 23.9918L11.2442 31.6287L11.2469 31.6222ZM31.3527 40.7828C30.3095 41.7059 28.9058 42.1337 27.5109 41.9608C26.4384 41.826 25.4332 41.3073 24.601 40.4751L23.6486 39.5227C23.0098 38.8839 21.9841 38.8839 21.3541 39.5227L20.4017 40.4751C19.5695 41.3073 18.5556 41.826 17.4918 41.9608C17.2808 41.9843 17.0874 41.9608 16.8706 41.9989C15.6867 41.9989 14.5379 41.5711 13.6529 40.7828C12.6039 39.8597 12.0031 38.5234 12.0031 37.1285C12.0031 35.8684 12.4896 34.667 13.3745 33.7527L13.4712 33.6618L21.0174 26.1157C21.4013 25.7318 21.9464 25.5091 22.509 25.5091C23.0716 25.5091 23.6197 25.7259 24.0006 26.1157L31.579 33.6941C32.5168 34.6612 33.012 35.848 33.012 37.1285C33.012 38.5234 32.4113 39.8509 31.3622 40.7828L31.3527 40.7828ZM40.7826 13.6469C41.7057 14.696 42.1335 16.0938 41.9606 17.4887C41.8258 18.5613 41.3071 19.5664 40.4749 20.3986L39.5225 21.351C38.8837 21.9898 38.8837 23.0155 39.5225 23.6455L40.4749 24.5979C41.3013 25.4243 41.8258 26.45 41.9606 27.5078C42.1394 28.9027 41.7145 30.2976 40.7826 31.3496C39.8595 32.3987 38.5232 32.9994 37.1283 32.9994C35.8682 32.9994 34.6668 32.513 33.7525 31.628L33.6616 31.5313L26.1155 23.9851C25.2891 23.1587 25.2891 21.8254 26.1155 20.999L33.6939 13.4206C34.661 12.4829 35.8478 11.9876 37.1283 11.9876C38.5232 11.9876 39.8507 12.5883 40.7826 13.6374L40.7826 13.6469Z"/>
</mask>
<path d="M36.0415 8.95846L35.9888 7.56941C35.8305 3.32319 32.3814 0 28.141 0C26.4092 0 24.774 0.547991 23.4084 1.58245L22.5 2.26524L21.5916 1.58245C20.226 0.548013 18.5908 0 16.8589 0C12.6127 0 9.1695 3.32312 9.01121 7.56941L8.95846 8.95846L7.56941 9.01121C3.32319 9.16946 0 12.6186 0 16.8589C0 18.585 0.547991 20.226 1.58245 21.5916L2.26524 22.5L1.58245 23.4084C0.548013 24.774 0 26.4092 0 28.1411C0 32.3873 3.32312 35.8305 7.56941 35.9888L8.95846 36.0415L9.01121 37.4306C9.16946 41.6768 12.6186 45 16.8589 45C18.5908 45 20.226 44.452 21.5916 43.4175L22.5 42.7348L23.4084 43.4175C24.774 44.452 26.4092 45 28.141 45C32.3873 45 35.8305 41.6769 35.9888 37.4306L36.0415 36.0415L37.4306 35.9888C41.6768 35.8305 45 32.3814 45 28.1411C45 26.415 44.452 24.774 43.4175 23.4084L42.7348 22.5L43.4175 21.5916C44.452 20.226 45 18.5908 45 16.8589C45 12.6127 41.6769 9.1695 37.4306 9.01121L36.0415 8.95846ZM13.6469 4.21704C14.6959 3.29393 16.0938 2.8661 17.4887 3.03902C18.5612 3.17382 19.5663 3.6925 20.3986 4.52477L21.3509 5.47713C21.9898 6.11597 23.0155 6.11597 23.6455 5.47713L24.5978 4.52477C25.4301 3.69251 26.444 3.17383 27.5077 3.03902C28.9027 2.86612 30.3063 3.29396 31.3495 4.21704C32.3986 5.14015 32.9994 6.47639 32.9994 7.87129C32.9994 9.13138 32.5129 10.3328 31.6279 11.2471L31.5312 11.338L23.9851 18.8841C23.5865 19.2827 23.0561 19.4995 22.4935 19.4995C21.9308 19.4995 21.3975 19.2827 21.0019 18.8841L13.4235 11.3057C12.4857 10.3387 11.9904 9.15186 11.9904 7.87128C11.9904 6.47638 12.5912 5.14892 13.6403 4.21703L13.6469 4.21704ZM11.2469 31.6222C10.3238 32.5072 9.12525 33.0024 7.86223 33.0024C6.46733 33.0024 5.13987 32.4017 4.20798 31.3526C3.28487 30.3035 2.85704 28.9057 3.02996 27.5108C3.16476 26.4383 3.68344 25.4332 4.51571 24.6009L5.46808 23.6485C6.10691 23.0097 6.10691 21.984 5.46808 21.354L4.51571 20.4016C3.6893 19.5752 3.16477 18.5496 3.02996 17.4917C2.8512 16.0968 3.27611 14.7019 4.20798 13.6499C5.13109 12.6009 6.46733 12.0001 7.86223 12.0001C9.12232 12.0001 10.3238 12.4866 11.2381 13.3715L11.3289 13.4682L18.8751 21.0144C19.7015 21.8408 19.7015 23.1741 18.8751 23.9918L11.2442 31.6287L11.2469 31.6222ZM31.3527 40.7828C30.3095 41.7059 28.9058 42.1337 27.5109 41.9608C26.4384 41.826 25.4332 41.3073 24.601 40.4751L23.6486 39.5227C23.0098 38.8839 21.9841 38.8839 21.3541 39.5227L20.4017 40.4751C19.5695 41.3073 18.5556 41.826 17.4918 41.9608C17.2808 41.9843 17.0874 41.9608 16.8706 41.9989C15.6867 41.9989 14.5379 41.5711 13.6529 40.7828C12.6039 39.8597 12.0031 38.5234 12.0031 37.1285C12.0031 35.8684 12.4896 34.667 13.3745 33.7527L13.4712 33.6618L21.0174 26.1157C21.4013 25.7318 21.9464 25.5091 22.509 25.5091C23.0716 25.5091 23.6197 25.7259 24.0006 26.1157L31.579 33.6941C32.5168 34.6612 33.012 35.848 33.012 37.1285C33.012 38.5234 32.4113 39.8509 31.3622 40.7828L31.3527 40.7828ZM40.7826 13.6469C41.7057 14.696 42.1335 16.0938 41.9606 17.4887C41.8258 18.5613 41.3071 19.5664 40.4749 20.3986L39.5225 21.351C38.8837 21.9898 38.8837 23.0155 39.5225 23.6455L40.4749 24.5979C41.3013 25.4243 41.8258 26.45 41.9606 27.5078C42.1394 28.9027 41.7145 30.2976 40.7826 31.3496C39.8595 32.3987 38.5232 32.9994 37.1283 32.9994C35.8682 32.9994 34.6668 32.513 33.7525 31.628L33.6616 31.5313L26.1155 23.9851C25.2891 23.1587 25.2891 21.8254 26.1155 20.999L33.6939 13.4206C34.661 12.4829 35.8478 11.9876 37.1283 11.9876C38.5232 11.9876 39.8507 12.5883 40.7826 13.6374L40.7826 13.6469Z" fill="url(#paint0_linear_3295_13)"/>
<path d="M36.0415 8.95846L35.9888 7.56941C35.8305 3.32319 32.3814 0 28.141 0C26.4092 0 24.774 0.547991 23.4084 1.58245L22.5 2.26524L21.5916 1.58245C20.226 0.548013 18.5908 0 16.8589 0C12.6127 0 9.1695 3.32312 9.01121 7.56941L8.95846 8.95846L7.56941 9.01121C3.32319 9.16946 0 12.6186 0 16.8589C0 18.585 0.547991 20.226 1.58245 21.5916L2.26524 22.5L1.58245 23.4084C0.548013 24.774 0 26.4092 0 28.1411C0 32.3873 3.32312 35.8305 7.56941 35.9888L8.95846 36.0415L9.01121 37.4306C9.16946 41.6768 12.6186 45 16.8589 45C18.5908 45 20.226 44.452 21.5916 43.4175L22.5 42.7348L23.4084 43.4175C24.774 44.452 26.4092 45 28.141 45C32.3873 45 35.8305 41.6769 35.9888 37.4306L36.0415 36.0415L37.4306 35.9888C41.6768 35.8305 45 32.3814 45 28.1411C45 26.415 44.452 24.774 43.4175 23.4084L42.7348 22.5L43.4175 21.5916C44.452 20.226 45 18.5908 45 16.8589C45 12.6127 41.6769 9.1695 37.4306 9.01121L36.0415 8.95846ZM13.6469 4.21704C14.6959 3.29393 16.0938 2.8661 17.4887 3.03902C18.5612 3.17382 19.5663 3.6925 20.3986 4.52477L21.3509 5.47713C21.9898 6.11597 23.0155 6.11597 23.6455 5.47713L24.5978 4.52477C25.4301 3.69251 26.444 3.17383 27.5077 3.03902C28.9027 2.86612 30.3063 3.29396 31.3495 4.21704C32.3986 5.14015 32.9994 6.47639 32.9994 7.87129C32.9994 9.13138 32.5129 10.3328 31.6279 11.2471L31.5312 11.338L23.9851 18.8841C23.5865 19.2827 23.0561 19.4995 22.4935 19.4995C21.9308 19.4995 21.3975 19.2827 21.0019 18.8841L13.4235 11.3057C12.4857 10.3387 11.9904 9.15186 11.9904 7.87128C11.9904 6.47638 12.5912 5.14892 13.6403 4.21703L13.6469 4.21704ZM11.2469 31.6222C10.3238 32.5072 9.12525 33.0024 7.86223 33.0024C6.46733 33.0024 5.13987 32.4017 4.20798 31.3526C3.28487 30.3035 2.85704 28.9057 3.02996 27.5108C3.16476 26.4383 3.68344 25.4332 4.51571 24.6009L5.46808 23.6485C6.10691 23.0097 6.10691 21.984 5.46808 21.354L4.51571 20.4016C3.6893 19.5752 3.16477 18.5496 3.02996 17.4917C2.8512 16.0968 3.27611 14.7019 4.20798 13.6499C5.13109 12.6009 6.46733 12.0001 7.86223 12.0001C9.12232 12.0001 10.3238 12.4866 11.2381 13.3715L11.3289 13.4682L18.8751 21.0144C19.7015 21.8408 19.7015 23.1741 18.8751 23.9918L11.2442 31.6287L11.2469 31.6222ZM31.3527 40.7828C30.3095 41.7059 28.9058 42.1337 27.5109 41.9608C26.4384 41.826 25.4332 41.3073 24.601 40.4751L23.6486 39.5227C23.0098 38.8839 21.9841 38.8839 21.3541 39.5227L20.4017 40.4751C19.5695 41.3073 18.5556 41.826 17.4918 41.9608C17.2808 41.9843 17.0874 41.9608 16.8706 41.9989C15.6867 41.9989 14.5379 41.5711 13.6529 40.7828C12.6039 39.8597 12.0031 38.5234 12.0031 37.1285C12.0031 35.8684 12.4896 34.667 13.3745 33.7527L13.4712 33.6618L21.0174 26.1157C21.4013 25.7318 21.9464 25.5091 22.509 25.5091C23.0716 25.5091 23.6197 25.7259 24.0006 26.1157L31.579 33.6941C32.5168 34.6612 33.012 35.848 33.012 37.1285C33.012 38.5234 32.4113 39.8509 31.3622 40.7828L31.3527 40.7828ZM40.7826 13.6469C41.7057 14.696 42.1335 16.0938 41.9606 17.4887C41.8258 18.5613 41.3071 19.5664 40.4749 20.3986L39.5225 21.351C38.8837 21.9898 38.8837 23.0155 39.5225 23.6455L40.4749 24.5979C41.3013 25.4243 41.8258 26.45 41.9606 27.5078C42.1394 28.9027 41.7145 30.2976 40.7826 31.3496C39.8595 32.3987 38.5232 32.9994 37.1283 32.9994C35.8682 32.9994 34.6668 32.513 33.7525 31.628L33.6616 31.5313L26.1155 23.9851C25.2891 23.1587 25.2891 21.8254 26.1155 20.999L33.6939 13.4206C34.661 12.4829 35.8478 11.9876 37.1283 11.9876C38.5232 11.9876 39.8507 12.5883 40.7826 13.6374L40.7826 13.6469Z" fill="url(#paint1_linear_3295_13)"/>
<path d="M36.0415 8.95846L35.9888 7.56941C35.8305 3.32319 32.3814 0 28.141 0C26.4092 0 24.774 0.547991 23.4084 1.58245L22.5 2.26524L21.5916 1.58245C20.226 0.548013 18.5908 0 16.8589 0C12.6127 0 9.1695 3.32312 9.01121 7.56941L8.95846 8.95846L7.56941 9.01121C3.32319 9.16946 0 12.6186 0 16.8589C0 18.585 0.547991 20.226 1.58245 21.5916L2.26524 22.5L1.58245 23.4084C0.548013 24.774 0 26.4092 0 28.1411C0 32.3873 3.32312 35.8305 7.56941 35.9888L8.95846 36.0415L9.01121 37.4306C9.16946 41.6768 12.6186 45 16.8589 45C18.5908 45 20.226 44.452 21.5916 43.4175L22.5 42.7348L23.4084 43.4175C24.774 44.452 26.4092 45 28.141 45C32.3873 45 35.8305 41.6769 35.9888 37.4306L36.0415 36.0415L37.4306 35.9888C41.6768 35.8305 45 32.3814 45 28.1411C45 26.415 44.452 24.774 43.4175 23.4084L42.7348 22.5L43.4175 21.5916C44.452 20.226 45 18.5908 45 16.8589C45 12.6127 41.6769 9.1695 37.4306 9.01121L36.0415 8.95846ZM13.6469 4.21704C14.6959 3.29393 16.0938 2.8661 17.4887 3.03902C18.5612 3.17382 19.5663 3.6925 20.3986 4.52477L21.3509 5.47713C21.9898 6.11597 23.0155 6.11597 23.6455 5.47713L24.5978 4.52477C25.4301 3.69251 26.444 3.17383 27.5077 3.03902C28.9027 2.86612 30.3063 3.29396 31.3495 4.21704C32.3986 5.14015 32.9994 6.47639 32.9994 7.87129C32.9994 9.13138 32.5129 10.3328 31.6279 11.2471L31.5312 11.338L23.9851 18.8841C23.5865 19.2827 23.0561 19.4995 22.4935 19.4995C21.9308 19.4995 21.3975 19.2827 21.0019 18.8841L13.4235 11.3057C12.4857 10.3387 11.9904 9.15186 11.9904 7.87128C11.9904 6.47638 12.5912 5.14892 13.6403 4.21703L13.6469 4.21704ZM11.2469 31.6222C10.3238 32.5072 9.12525 33.0024 7.86223 33.0024C6.46733 33.0024 5.13987 32.4017 4.20798 31.3526C3.28487 30.3035 2.85704 28.9057 3.02996 27.5108C3.16476 26.4383 3.68344 25.4332 4.51571 24.6009L5.46808 23.6485C6.10691 23.0097 6.10691 21.984 5.46808 21.354L4.51571 20.4016C3.6893 19.5752 3.16477 18.5496 3.02996 17.4917C2.8512 16.0968 3.27611 14.7019 4.20798 13.6499C5.13109 12.6009 6.46733 12.0001 7.86223 12.0001C9.12232 12.0001 10.3238 12.4866 11.2381 13.3715L11.3289 13.4682L18.8751 21.0144C19.7015 21.8408 19.7015 23.1741 18.8751 23.9918L11.2442 31.6287L11.2469 31.6222ZM31.3527 40.7828C30.3095 41.7059 28.9058 42.1337 27.5109 41.9608C26.4384 41.826 25.4332 41.3073 24.601 40.4751L23.6486 39.5227C23.0098 38.8839 21.9841 38.8839 21.3541 39.5227L20.4017 40.4751C19.5695 41.3073 18.5556 41.826 17.4918 41.9608C17.2808 41.9843 17.0874 41.9608 16.8706 41.9989C15.6867 41.9989 14.5379 41.5711 13.6529 40.7828C12.6039 39.8597 12.0031 38.5234 12.0031 37.1285C12.0031 35.8684 12.4896 34.667 13.3745 33.7527L13.4712 33.6618L21.0174 26.1157C21.4013 25.7318 21.9464 25.5091 22.509 25.5091C23.0716 25.5091 23.6197 25.7259 24.0006 26.1157L31.579 33.6941C32.5168 34.6612 33.012 35.848 33.012 37.1285C33.012 38.5234 32.4113 39.8509 31.3622 40.7828L31.3527 40.7828ZM40.7826 13.6469C41.7057 14.696 42.1335 16.0938 41.9606 17.4887C41.8258 18.5613 41.3071 19.5664 40.4749 20.3986L39.5225 21.351C38.8837 21.9898 38.8837 23.0155 39.5225 23.6455L40.4749 24.5979C41.3013 25.4243 41.8258 26.45 41.9606 27.5078C42.1394 28.9027 41.7145 30.2976 40.7826 31.3496C39.8595 32.3987 38.5232 32.9994 37.1283 32.9994C35.8682 32.9994 34.6668 32.513 33.7525 31.628L33.6616 31.5313L26.1155 23.9851C25.2891 23.1587 25.2891 21.8254 26.1155 20.999L33.6939 13.4206C34.661 12.4829 35.8478 11.9876 37.1283 11.9876C38.5232 11.9876 39.8507 12.5883 40.7826 13.6374L40.7826 13.6469Z" stroke="url(#paint2_linear_3295_13)" stroke-width="2" mask="url(#path-1-inside-1_3295_13)"/>
<path d="M79.4598 18.8331H75.376C75.3216 18.4138 75.2099 18.0354 75.0411 17.6978C74.8724 17.3602 74.6491 17.0716 74.3714 16.832C74.0937 16.5924 73.7643 16.41 73.3831 16.2848C73.0074 16.1541 72.5909 16.0888 72.1335 16.0888C71.3222 16.0888 70.6225 16.2875 70.0344 16.685C69.4518 17.0825 69.0026 17.657 68.6867 18.4084C68.3764 19.1598 68.2212 20.0691 68.2212 21.1364C68.2212 22.2472 68.3791 23.1783 68.6949 23.9297C69.0162 24.6757 69.4654 25.2392 70.0426 25.6204C70.6252 25.9961 71.314 26.1839 72.109 26.1839C72.5555 26.1839 72.9611 26.1268 73.326 26.0124C73.6962 25.8981 74.0202 25.732 74.2979 25.5142C74.581 25.291 74.8125 25.0214 74.9921 24.7056C75.1773 24.3844 75.3052 24.0223 75.376 23.6193L79.4598 23.6438C79.389 24.3844 79.174 25.114 78.8146 25.8327C78.4607 26.5515 77.9733 27.2076 77.3526 27.8011C76.7318 28.3892 75.975 28.8575 75.082 29.206C74.1944 29.5545 73.1762 29.7287 72.0273 29.7287C70.5136 29.7287 69.1577 29.3965 67.9598 28.7322C66.7674 28.0625 65.8254 27.0878 65.1338 25.8082C64.4423 24.5286 64.0965 22.9714 64.0965 21.1364C64.0965 19.2959 64.4478 17.7359 65.1502 16.4563C65.8526 15.1767 66.8027 14.2048 68.0007 13.5405C69.1986 12.8762 70.5408 12.544 72.0273 12.544C73.0401 12.544 73.9766 12.6856 74.837 12.9688C75.6973 13.2464 76.4541 13.6548 77.1076 14.1939C77.761 14.7275 78.2919 15.3836 78.7002 16.1623C79.1086 16.9409 79.3618 17.8312 79.4598 18.8331ZM81.7733 29.5V16.9545H85.6529V19.2415H85.7836C86.0123 18.4138 86.3853 17.7985 86.9026 17.3956C87.4198 16.9872 88.0215 16.783 88.7076 16.783C88.8927 16.783 89.0833 16.7966 89.2793 16.8239C89.4754 16.8456 89.6578 16.881 89.8266 16.93V20.4013C89.636 20.3359 89.3855 20.2842 89.0752 20.2461C88.7702 20.208 88.498 20.1889 88.2584 20.1889C87.7847 20.1889 87.3572 20.2951 86.9761 20.5075C86.6004 20.7144 86.3036 21.0057 86.0858 21.3814C85.8734 21.7517 85.7673 22.1873 85.7673 22.6882V29.5H81.7733ZM96.6669 29.7369C95.3547 29.7369 94.2221 29.4782 93.2692 28.9609C92.3218 28.4382 91.5921 27.695 91.0803 26.7312C90.5739 25.762 90.3207 24.6103 90.3207 23.2763C90.3207 21.9804 90.5766 20.8478 91.0885 19.8786C91.6003 18.9039 92.3218 18.147 93.2529 17.608C94.184 17.0634 95.2812 16.7912 96.5444 16.7912C97.4374 16.7912 98.2542 16.93 98.9947 17.2077C99.7352 17.4854 100.375 17.8965 100.914 18.4411C101.453 18.9856 101.872 19.658 102.172 20.4585C102.471 21.2534 102.621 22.1655 102.621 23.1946V24.1911H91.7174V21.8714H98.9049C98.8994 21.4467 98.7987 21.0683 98.6027 20.7362C98.4066 20.404 98.1371 20.1454 97.7941 19.9602C97.4565 19.7696 97.0672 19.6744 96.6261 19.6744C96.1796 19.6744 95.7794 19.7751 95.4255 19.9766C95.0715 20.1726 94.7911 20.4421 94.5842 20.7852C94.3773 21.1228 94.2684 21.5066 94.2575 21.9368V24.2972C94.2575 24.8091 94.3582 25.2583 94.5597 25.6449C94.7612 26.026 95.047 26.3228 95.4173 26.5352C95.7876 26.7475 96.2286 26.8537 96.7405 26.8537C97.0944 26.8537 97.4156 26.8047 97.7042 26.7067C97.9928 26.6087 98.2406 26.4644 98.4475 26.2738C98.6544 26.0832 98.8096 25.8491 98.913 25.5714L102.58 25.6776C102.428 26.4998 102.093 27.2158 101.576 27.8256C101.064 28.43 100.391 28.901 99.5583 29.2386C98.7252 29.5708 97.7614 29.7369 96.6669 29.7369ZM109.243 29.6797C108.317 29.6797 107.476 29.4401 106.719 28.9609C105.962 28.4818 105.358 27.763 104.906 26.8047C104.454 25.8464 104.228 24.6566 104.228 23.2354C104.228 21.7598 104.462 20.5456 104.931 19.5927C105.399 18.6398 106.011 17.9347 106.768 17.4773C107.531 17.0199 108.35 16.7912 109.227 16.7912C109.886 16.7912 110.449 16.9055 110.917 17.1342C111.386 17.3575 111.772 17.6461 112.077 18C112.382 18.3539 112.614 18.7215 112.771 19.1026H112.853V12.7727H116.847V29.5H112.894V27.4663H112.771C112.603 27.8529 112.363 28.215 112.053 28.5526C111.742 28.8902 111.353 29.1624 110.885 29.3693C110.422 29.5762 109.875 29.6797 109.243 29.6797ZM110.632 26.5678C111.116 26.5678 111.53 26.4317 111.873 26.1594C112.216 25.8817 112.48 25.4924 112.665 24.9915C112.85 24.4905 112.943 23.9025 112.943 23.2273C112.943 22.5412 112.85 21.9504 112.665 21.4549C112.486 20.9594 112.221 20.5782 111.873 20.3114C111.53 20.0446 111.116 19.9112 110.632 19.9112C110.136 19.9112 109.717 20.0473 109.374 20.3196C109.031 20.5919 108.769 20.9757 108.59 21.4712C108.415 21.9667 108.328 22.5521 108.328 23.2273C108.328 23.9025 108.418 24.4905 108.598 24.9915C108.777 25.4924 109.036 25.8817 109.374 26.1594C109.717 26.4317 110.136 26.5678 110.632 26.5678ZM119.373 29.5V16.9545H123.367V29.5H119.373ZM121.374 15.4925C120.813 15.4925 120.331 15.3074 119.928 14.9371C119.525 14.5614 119.324 14.1095 119.324 13.5813C119.324 13.0586 119.525 12.6121 119.928 12.2418C120.331 11.8661 120.813 11.6783 121.374 11.6783C121.94 11.6783 122.422 11.8661 122.82 12.2418C123.223 12.6121 123.424 13.0586 123.424 13.5813C123.424 14.1095 123.223 14.5614 122.82 14.9371C122.422 15.3074 121.94 15.4925 121.374 15.4925ZM132.99 16.9545V19.8949H125.076V16.9545H132.99ZM126.734 13.9489H130.728V25.555C130.728 25.8001 130.766 25.9988 130.842 26.1513C130.924 26.2983 131.041 26.4045 131.193 26.4698C131.346 26.5297 131.528 26.5597 131.741 26.5597C131.893 26.5597 132.054 26.546 132.223 26.5188C132.397 26.4862 132.528 26.4589 132.615 26.4371L133.219 29.3203C133.028 29.3748 132.759 29.4428 132.41 29.5245C132.067 29.6062 131.656 29.6579 131.177 29.6797C130.241 29.7232 129.437 29.6143 128.768 29.353C128.103 29.0862 127.594 28.6723 127.24 28.1115C126.892 27.5507 126.723 26.8455 126.734 25.9961V13.9489ZM140.758 29.7369C139.446 29.7369 138.313 29.4782 137.36 28.9609C136.413 28.4382 135.683 27.695 135.171 26.7312C134.665 25.762 134.412 24.6103 134.412 23.2763C134.412 21.9804 134.667 20.8478 135.179 19.8786C135.691 18.9039 136.413 18.147 137.344 17.608C138.275 17.0634 139.372 16.7912 140.635 16.7912C141.528 16.7912 142.345 16.93 143.086 17.2077C143.826 17.4854 144.466 17.8965 145.005 18.4411C145.544 18.9856 145.963 19.658 146.263 20.4585C146.562 21.2534 146.712 22.1655 146.712 23.1946V24.1911H135.808V21.8714H142.996C142.99 21.4467 142.89 21.0683 142.693 20.7362C142.497 20.404 142.228 20.1454 141.885 19.9602C141.547 19.7696 141.158 19.6744 140.717 19.6744C140.27 19.6744 139.87 19.7751 139.516 19.9766C139.162 20.1726 138.882 20.4421 138.675 20.7852C138.468 21.1228 138.359 21.5066 138.348 21.9368V24.2972C138.348 24.8091 138.449 25.2583 138.651 25.6449C138.852 26.026 139.138 26.3228 139.508 26.5352C139.878 26.7475 140.319 26.8537 140.831 26.8537C141.185 26.8537 141.506 26.8047 141.795 26.7067C142.084 26.6087 142.331 26.4644 142.538 26.2738C142.745 26.0832 142.9 25.8491 143.004 25.5714L146.671 25.6776C146.519 26.4998 146.184 27.2158 145.667 27.8256C145.155 28.43 144.482 28.901 143.649 29.2386C142.816 29.5708 141.852 29.7369 140.758 29.7369ZM151.97 16.9545L154.036 21.0874L156.176 16.9545H160.203L156.699 23.2273L160.333 29.5H156.34L154.036 25.3345L151.79 29.5H147.739L151.382 23.2273L147.919 16.9545H151.97ZM164.272 29.7369C163.684 29.7369 163.181 29.5299 162.761 29.1161C162.347 28.7023 162.143 28.2013 162.149 27.6133C162.143 27.0361 162.347 26.5433 162.761 26.1349C163.181 25.7211 163.684 25.5142 164.272 25.5142C164.828 25.5142 165.318 25.7211 165.742 26.1349C166.173 26.5433 166.39 27.0361 166.396 27.6133C166.39 28.0053 166.287 28.362 166.086 28.6832C165.89 29.0045 165.631 29.2604 165.31 29.451C164.994 29.6416 164.648 29.7369 164.272 29.7369ZM169.034 29.5V12.7727H176.009C177.262 12.7727 178.31 12.9497 179.154 13.3036C180.003 13.6576 180.64 14.1531 181.065 14.7901C181.495 15.4272 181.71 16.165 181.71 17.0036C181.71 17.6406 181.577 18.2096 181.31 18.7106C181.043 19.2061 180.676 19.6172 180.207 19.9439C179.739 20.2706 179.197 20.4993 178.582 20.63V20.7933C179.257 20.826 179.881 21.0084 180.452 21.3406C181.03 21.6727 181.492 22.1355 181.841 22.729C182.189 23.3171 182.364 24.0141 182.364 24.82C182.364 25.7184 182.135 26.5215 181.678 27.2294C181.22 27.9318 180.559 28.4872 179.693 28.8956C178.827 29.2985 177.776 29.5 176.54 29.5H169.034ZM173.077 26.2411H175.576C176.453 26.2411 177.098 26.075 177.512 25.7429C177.931 25.4107 178.141 24.9479 178.141 24.3544C178.141 23.9242 178.04 23.554 177.839 23.2436C177.637 22.9278 177.351 22.6855 176.981 22.5167C176.611 22.3424 176.167 22.2553 175.65 22.2553H173.077V26.2411ZM173.077 19.6499H175.315C175.756 19.6499 176.148 19.5763 176.491 19.4293C176.834 19.2823 177.101 19.07 177.292 18.7923C177.488 18.5146 177.586 18.1797 177.586 17.7876C177.586 17.2268 177.387 16.7857 176.989 16.4645C176.592 16.1432 176.055 15.9826 175.38 15.9826H173.077V19.6499ZM184.307 29.5V16.9545H188.187V19.2415H188.318C188.546 18.4138 188.919 17.7985 189.437 17.3956C189.954 16.9872 190.556 16.783 191.242 16.783C191.427 16.783 191.617 16.7966 191.814 16.8239C192.01 16.8456 192.192 16.881 192.361 16.93V20.4013C192.17 20.3359 191.92 20.2842 191.609 20.2461C191.304 20.208 191.032 20.1889 190.793 20.1889C190.319 20.1889 189.891 20.2951 189.51 20.5075C189.135 20.7144 188.838 21.0057 188.62 21.3814C188.408 21.7517 188.301 22.1873 188.301 22.6882V29.5H184.307ZM199.193 29.7369C197.875 29.7369 196.743 29.4673 195.795 28.9283C194.853 28.3838 194.126 27.6269 193.614 26.6577C193.108 25.683 192.855 24.5531 192.855 23.2681C192.855 21.9776 193.108 20.8478 193.614 19.8786C194.126 18.9039 194.853 18.147 195.795 17.608C196.743 17.0634 197.875 16.7912 199.193 16.7912C200.511 16.7912 201.641 17.0634 202.583 17.608C203.53 18.147 204.257 18.9039 204.763 19.8786C205.275 20.8478 205.531 21.9776 205.531 23.2681C205.531 24.5531 205.275 25.683 204.763 26.6577C204.257 27.6269 203.53 28.3838 202.583 28.9283C201.641 29.4673 200.511 29.7369 199.193 29.7369ZM199.217 26.723C199.697 26.723 200.102 26.576 200.434 26.282C200.767 25.9879 201.02 25.5795 201.194 25.0568C201.374 24.5341 201.464 23.9297 201.464 23.2436C201.464 22.5466 201.374 21.9368 201.194 21.4141C201.02 20.8913 200.767 20.483 200.434 20.1889C200.102 19.8949 199.697 19.7479 199.217 19.7479C198.722 19.7479 198.303 19.8949 197.96 20.1889C197.622 20.483 197.363 20.8913 197.184 21.4141C197.009 21.9368 196.922 22.5466 196.922 23.2436C196.922 23.9297 197.009 24.5341 197.184 25.0568C197.363 25.5795 197.622 25.9879 197.96 26.282C198.303 26.576 198.722 26.723 199.217 26.723ZM211.179 26.2085L211.195 21.4467H211.751L215.279 16.9545H219.804L214.56 23.3906H213.507L211.179 26.2085ZM207.577 29.5V12.7727H211.571V29.5H207.577ZM215.369 29.5L212.086 24.2891L214.716 21.4549L219.984 29.5H215.369ZM226.581 29.7369C225.269 29.7369 224.136 29.4782 223.183 28.9609C222.236 28.4382 221.506 27.695 220.994 26.7312C220.488 25.762 220.235 24.6103 220.235 23.2763C220.235 21.9804 220.491 20.8478 221.003 19.8786C221.514 18.9039 222.236 18.147 223.167 17.608C224.098 17.0634 225.195 16.7912 226.458 16.7912C227.351 16.7912 228.168 16.93 228.909 17.2077C229.649 17.4854 230.289 17.8965 230.828 18.4411C231.367 18.9856 231.787 19.658 232.086 20.4585C232.385 21.2534 232.535 22.1655 232.535 23.1946V24.1911H221.631V21.8714H228.819C228.813 21.4467 228.713 21.0683 228.517 20.7362C228.321 20.404 228.051 20.1454 227.708 19.9602C227.371 19.7696 226.981 19.6744 226.54 19.6744C226.094 19.6744 225.693 19.7751 225.34 19.9766C224.986 20.1726 224.705 20.4421 224.498 20.7852C224.291 21.1228 224.182 21.5066 224.172 21.9368V24.2972C224.172 24.8091 224.272 25.2583 224.474 25.6449C224.675 26.026 224.961 26.3228 225.331 26.5352C225.702 26.7475 226.143 26.8537 226.655 26.8537C227.008 26.8537 227.33 26.8047 227.618 26.7067C227.907 26.6087 228.155 26.4644 228.362 26.2738C228.568 26.0832 228.724 25.8491 228.827 25.5714L232.494 25.6776C232.342 26.4998 232.007 27.2158 231.49 27.8256C230.978 28.43 230.305 28.901 229.472 29.2386C228.639 29.5708 227.675 29.7369 226.581 29.7369ZM234.575 29.5V16.9545H238.455V19.2415H238.585C238.814 18.4138 239.187 17.7985 239.704 17.3956C240.222 16.9872 240.823 16.783 241.509 16.783C241.694 16.783 241.885 16.7966 242.081 16.8239C242.277 16.8456 242.46 16.881 242.628 16.93V20.4013C242.438 20.3359 242.187 20.2842 241.877 20.2461C241.572 20.208 241.3 20.1889 241.06 20.1889C240.586 20.1889 240.159 20.2951 239.778 20.5075C239.402 20.7144 239.105 21.0057 238.888 21.3814C238.675 21.7517 238.569 22.1873 238.569 22.6882V29.5H234.575Z" fill="#565555"/>
<defs>
<linearGradient id="paint0_linear_3295_13" x1="35.634" y1="7.87699" x2="5.81534" y2="44.8613" gradientUnits="userSpaceOnUse">
<stop stop-color="#FFC56F"/>
<stop offset="1" stop-color="#6D1400"/>
</linearGradient>
<linearGradient id="paint1_linear_3295_13" x1="35.634" y1="7.87699" x2="5.81534" y2="44.8613" gradientUnits="userSpaceOnUse">
<stop stop-color="#76AA87"/>
<stop offset="1" stop-color="#006D3A"/>
</linearGradient>
<linearGradient id="paint2_linear_3295_13" x1="-147.857" y1="8.57143" x2="-147.857" y2="53.5714" gradientUnits="userSpaceOnUse">
<stop stop-color="#BDBDBD"/>
<stop offset="1" stop-color="#BDBDBD" stop-opacity="0"/>
</linearGradient>
</defs>
</svg>
