<svg width="24" height="24" viewBox="0 0 24 24" fill="none" xmlns="http://www.w3.org/2000/svg">
<path d="M17.8296 23.999C17.3911 23.9254 16.9494 23.8678 16.5141 23.775C14.8904 23.3736 13.3343 22.7363 11.8955 21.8834C9.6309 20.6249 7.57863 19.0176 5.81407 17.1207C3.66638 14.7873 1.88037 12.2171 0.753708 9.22766C0.317155 8.15211 0.0660747 7.01035 0.0111378 5.85088C-0.0309309 5.28375 0.0464685 4.7141 0.238334 4.17875C0.430199 3.64341 0.73226 3.15427 1.12499 2.74297C1.79715 2.05481 2.4469 1.34105 3.17026 0.713706C4.28732 -0.246514 5.5036 -0.246514 6.58225 0.758516C7.72171 1.82756 8.82276 2.95102 9.8822 4.09368C10.2709 4.51274 10.487 5.06323 10.487 5.63484C10.487 6.20644 10.2709 6.75693 9.8822 7.17599C9.31887 7.81614 8.69473 8.39867 8.09939 9.01001C8.04498 9.06122 7.98737 9.10603 7.88814 9.19565C9.47802 12.0736 11.8522 14.441 14.7345 16.0228L16.1556 14.5857C16.5047 14.1733 16.9423 13.8451 17.4359 13.6255C17.8236 13.4569 18.2524 13.4064 18.6686 13.4804C19.0848 13.5544 19.4699 13.7496 19.7757 14.0416C20.9685 15.1768 22.1314 16.344 23.2645 17.5432C23.6486 17.9548 23.8672 18.4938 23.8784 19.0567C23.8896 19.6196 23.6927 20.1668 23.3253 20.5935C22.6083 21.4385 21.8145 22.2386 21.0112 23.0132C20.4391 23.5394 19.7108 23.8642 18.9371 23.9382C18.8818 23.9513 18.8273 23.9673 18.7738 23.9862L17.8296 23.999ZM18.1849 22.5555C18.5791 22.5772 18.9734 22.5134 19.3407 22.3687C19.7081 22.224 20.0399 22.0017 20.3134 21.7169C20.8511 21.1536 21.4016 20.6031 21.9458 20.0461C22.016 19.9752 22.0823 19.9004 22.1442 19.8221C22.2368 19.7288 22.3098 19.6179 22.3586 19.4959C22.4075 19.3738 22.4313 19.2432 22.4286 19.1118C22.4259 18.9804 22.3968 18.8509 22.343 18.7309C22.2892 18.611 22.2118 18.5032 22.1154 18.4138C21.6769 17.9401 21.2128 17.492 20.7583 17.0343C20.1662 16.4421 19.5804 15.8468 18.9819 15.2642C18.8948 15.1663 18.7885 15.0872 18.6696 15.0319C18.5508 14.9766 18.4219 14.9462 18.2908 14.9426C18.1598 14.939 18.0294 14.9623 17.9077 15.011C17.786 15.0597 17.6755 15.1328 17.5832 15.2258C17.4935 15.2995 17.4135 15.3827 17.3303 15.4659C16.7606 16.0324 16.1973 16.6054 15.6243 17.1655C15.4591 17.3552 15.2331 17.4816 14.9849 17.523C14.7368 17.5645 14.4819 17.5184 14.264 17.3927C13.9151 17.2167 13.5694 17.0407 13.2334 16.8422C11.7533 15.9372 10.4139 14.8199 9.25806 13.5262C8.18665 12.4289 7.29835 11.1667 6.62706 9.78779C6.28778 9.03882 6.36139 8.67393 6.94713 8.1042C7.53286 7.53447 8.16021 6.92953 8.73954 6.31499C8.83318 6.23087 8.90846 6.12833 8.96069 6.01379C9.01291 5.89926 9.04095 5.77518 9.04305 5.64932C9.04515 5.52346 9.02127 5.39852 8.97291 5.2823C8.92454 5.16608 8.85272 5.06109 8.76195 4.97388C8.69153 4.89066 8.61791 4.81385 8.5443 4.73703L5.73405 1.91398C5.13231 1.32185 4.59779 1.31544 3.99605 1.91398C3.39431 2.51252 2.82778 3.04064 2.28046 3.63918C2.01066 3.91782 1.79375 4.24318 1.64031 4.5994C1.39978 5.36372 1.38976 6.18196 1.6115 6.95194C1.87792 8.14777 2.29748 9.30424 2.85979 10.3927C3.82457 12.3121 5.04798 14.0901 6.49583 15.6771C8.9875 18.5129 12.1407 20.6898 15.6755 22.0146C16.4799 22.3186 17.3263 22.4967 18.1849 22.5427V22.5555Z" fill="black"/>
</svg>
