<svg width="235" height="24" viewBox="0 0 235 24" fill="none" xmlns="http://www.w3.org/2000/svg">
<path d="M17.8296 23.999C17.3911 23.9254 16.9494 23.8678 16.5141 23.775C14.8904 23.3736 13.3343 22.7363 11.8955 21.8833C9.6309 20.6248 7.57863 19.0176 5.81407 17.1206C3.66638 14.7873 1.88037 12.2171 0.753708 9.22764C0.317155 8.15209 0.0660747 7.01033 0.0111378 5.85086C-0.0309309 5.28373 0.0464685 4.71408 0.238334 4.17873C0.430199 3.64338 0.73226 3.15425 1.12499 2.74295C1.79715 2.05479 2.4469 1.34103 3.17026 0.713683C4.28732 -0.246537 5.5036 -0.246537 6.58225 0.758493C7.72171 1.82754 8.82276 2.951 9.8822 4.09366C10.2709 4.51272 10.487 5.06321 10.487 5.63481C10.487 6.20642 10.2709 6.7569 9.8822 7.17597C9.31887 7.81611 8.69473 8.39865 8.09939 9.00999C8.04498 9.0612 7.98737 9.10601 7.88814 9.19563C9.47802 12.0735 11.8522 14.441 14.7345 16.0228L16.1556 14.5857C16.5047 14.1733 16.9423 13.845 17.4359 13.6254C17.8236 13.4568 18.2524 13.4064 18.6686 13.4804C19.0848 13.5544 19.4699 13.7496 19.7757 14.0415C20.9685 15.1767 22.1314 16.3439 23.2645 17.5431C23.6486 17.9548 23.8672 18.4938 23.8784 19.0567C23.8896 19.6196 23.6927 20.1668 23.3253 20.5934C22.6083 21.4384 21.8145 22.2386 21.0112 23.0132C20.4391 23.5393 19.7108 23.8642 18.9371 23.9382C18.8818 23.9513 18.8273 23.9673 18.7738 23.9862L17.8296 23.999ZM18.1849 22.5555C18.5791 22.5771 18.9734 22.5134 19.3407 22.3687C19.7081 22.224 20.0399 22.0016 20.3134 21.7169C20.8511 21.1536 21.4016 20.603 21.9458 20.0461C22.016 19.9752 22.0823 19.9004 22.1442 19.8221C22.2368 19.7288 22.3098 19.6179 22.3586 19.4958C22.4075 19.3738 22.4313 19.2432 22.4286 19.1118C22.4259 18.9804 22.3968 18.8509 22.343 18.7309C22.2892 18.611 22.2118 18.5031 22.1154 18.4137C21.6769 17.94 21.2128 17.4919 20.7583 17.0342C20.1662 16.4421 19.5804 15.8468 18.9819 15.2642C18.8948 15.1663 18.7885 15.0872 18.6696 15.0319C18.5508 14.9766 18.4219 14.9462 18.2908 14.9426C18.1598 14.939 18.0294 14.9623 17.9077 15.011C17.786 15.0597 17.6755 15.1328 17.5832 15.2258C17.4935 15.2994 17.4135 15.3826 17.3303 15.4659C16.7606 16.0324 16.1973 16.6053 15.6243 17.1655C15.4591 17.3552 15.2331 17.4816 14.9849 17.523C14.7368 17.5645 14.4819 17.5184 14.264 17.3927C13.9151 17.2167 13.5694 17.0406 13.2334 16.8422C11.7533 15.9371 10.4139 14.8199 9.25806 13.5262C8.18665 12.4289 7.29835 11.1667 6.62706 9.78776C6.28778 9.03879 6.36139 8.67391 6.94713 8.10418C7.53286 7.53445 8.16021 6.92951 8.73954 6.31497C8.83318 6.23084 8.90846 6.12831 8.96069 6.01377C9.01291 5.89924 9.04095 5.77516 9.04305 5.6493C9.04515 5.52344 9.02127 5.39849 8.97291 5.28228C8.92454 5.16606 8.85272 5.06107 8.76195 4.97386C8.69153 4.89064 8.61791 4.81382 8.5443 4.73701L5.73405 1.91396C5.13231 1.32182 4.59779 1.31542 3.99605 1.91396C3.39431 2.5125 2.82778 3.04062 2.28046 3.63915C2.01066 3.9178 1.79375 4.24316 1.64031 4.59937C1.39978 5.36369 1.38976 6.18194 1.6115 6.95191C1.87792 8.14775 2.29748 9.30422 2.85979 10.3927C3.82457 12.3121 5.04798 14.0901 6.49583 15.6771C8.9875 18.5129 12.1407 20.6898 15.6755 22.0146C16.4799 22.3186 17.3263 22.4967 18.1849 22.5427V22.5555Z" fill="black"/>
<path d="M32.6516 7.61364V6.36364H41.3789V7.61364H37.7198V18H36.3107V7.61364H32.6516ZM45.7653 18.1818C44.9244 18.1818 44.199 17.9962 43.5891 17.625C42.9831 17.25 42.5153 16.7273 42.1857 16.0568C41.86 15.3826 41.6971 14.5985 41.6971 13.7045C41.6971 12.8106 41.86 12.0227 42.1857 11.3409C42.5153 10.6553 42.9736 10.1212 43.5607 9.73864C44.1516 9.35227 44.841 9.15909 45.6289 9.15909C46.0835 9.15909 46.5323 9.23485 46.9755 9.38636C47.4187 9.53788 47.8221 9.78409 48.1857 10.125C48.5494 10.4621 48.8391 10.9091 49.055 11.4659C49.271 12.0227 49.3789 12.7083 49.3789 13.5227V14.0909H42.6516V12.9318H48.0153C48.0153 12.4394 47.9168 12 47.7198 11.6136C47.5266 11.2273 47.2501 10.9223 46.8903 10.6989C46.5342 10.4754 46.1138 10.3636 45.6289 10.3636C45.0948 10.3636 44.6327 10.4962 44.2425 10.7614C43.8562 11.0227 43.5588 11.3636 43.3505 11.7841C43.1422 12.2045 43.038 12.6553 43.038 13.1364V13.9091C43.038 14.5682 43.1516 15.1269 43.3789 15.5852C43.61 16.0398 43.93 16.3864 44.3391 16.625C44.7482 16.8598 45.2236 16.9773 45.7653 16.9773C46.1175 16.9773 46.4357 16.928 46.7198 16.8295C47.0077 16.7273 47.2558 16.5758 47.4641 16.375C47.6725 16.1705 47.8335 15.9167 47.9471 15.6136L49.2425 15.9773C49.1062 16.4167 48.877 16.803 48.555 17.1364C48.2331 17.4659 47.8353 17.7235 47.3619 17.9091C46.8884 18.0909 46.3562 18.1818 45.7653 18.1818ZM50.646 18V16.75H50.9641C51.2255 16.75 51.4433 16.6989 51.6175 16.5966C51.7918 16.4905 51.9319 16.3068 52.038 16.0455C52.1478 15.7803 52.2312 15.4129 52.288 14.9432C52.3486 14.4697 52.3922 13.8674 52.4187 13.1364L52.5778 9.27273H58.396V18H57.055V10.5227H53.8505L53.7141 13.6364C53.6838 14.3523 53.6194 14.983 53.521 15.5284C53.4263 16.0701 53.2804 16.5246 53.0835 16.892C52.8903 17.2595 52.6327 17.536 52.3107 17.7216C51.9888 17.9072 51.5853 18 51.1005 18H50.646ZM64.5153 18.1818C63.6744 18.1818 62.949 17.9962 62.3391 17.625C61.7331 17.25 61.2653 16.7273 60.9357 16.0568C60.61 15.3826 60.4471 14.5985 60.4471 13.7045C60.4471 12.8106 60.61 12.0227 60.9357 11.3409C61.2653 10.6553 61.7236 10.1212 62.3107 9.73864C62.9016 9.35227 63.591 9.15909 64.3789 9.15909C64.8335 9.15909 65.2823 9.23485 65.7255 9.38636C66.1687 9.53788 66.5721 9.78409 66.9357 10.125C67.2994 10.4621 67.5891 10.9091 67.805 11.4659C68.021 12.0227 68.1289 12.7083 68.1289 13.5227V14.0909H61.4016V12.9318H66.7653C66.7653 12.4394 66.6668 12 66.4698 11.6136C66.2766 11.2273 66.0001 10.9223 65.6403 10.6989C65.2842 10.4754 64.8638 10.3636 64.3789 10.3636C63.8448 10.3636 63.3827 10.4962 62.9925 10.7614C62.6062 11.0227 62.3088 11.3636 62.1005 11.7841C61.8922 12.2045 61.788 12.6553 61.788 13.1364V13.9091C61.788 14.5682 61.9016 15.1269 62.1289 15.5852C62.36 16.0398 62.68 16.3864 63.0891 16.625C63.4982 16.8598 63.9736 16.9773 64.5153 16.9773C64.8675 16.9773 65.1857 16.928 65.4698 16.8295C65.7577 16.7273 66.0058 16.5758 66.2141 16.375C66.4225 16.1705 66.5835 15.9167 66.6971 15.6136L67.9925 15.9773C67.8562 16.4167 67.627 16.803 67.305 17.1364C66.9831 17.4659 66.5853 17.7235 66.1119 17.9091C65.6384 18.0909 65.1062 18.1818 64.5153 18.1818ZM73.7141 20.9773V6.36364H75.055V20.9773H73.7141ZM73.7141 18.1818C73.1232 18.1818 72.5853 18.0758 72.1005 17.8636C71.6156 17.6477 71.199 17.3428 70.8505 16.9489C70.502 16.5511 70.2331 16.0758 70.0437 15.5227C69.8543 14.9697 69.7596 14.3561 69.7596 13.6818C69.7596 13 69.8543 12.3826 70.0437 11.8295C70.2331 11.2727 70.502 10.7955 70.8505 10.3977C71.199 10 71.6156 9.69508 72.1005 9.48295C72.5853 9.26705 73.1232 9.15909 73.7141 9.15909H74.1232V18.1818H73.7141ZM73.7141 16.9773H73.9414V10.3636H73.7141C73.2672 10.3636 72.8789 10.4545 72.5494 10.6364C72.2198 10.8144 71.9471 11.0587 71.7312 11.3693C71.5191 11.6761 71.36 12.0284 71.2539 12.4261C71.1516 12.8239 71.1005 13.2424 71.1005 13.6818C71.1005 14.2652 71.1933 14.8068 71.3789 15.3068C71.5645 15.8068 71.8505 16.2102 72.2369 16.517C72.6232 16.8239 73.1156 16.9773 73.7141 16.9773ZM75.055 18.1818H74.646V9.15909H75.055C75.646 9.15909 76.1838 9.26705 76.6687 9.48295C77.1535 9.69508 77.5702 10 77.9187 10.3977C78.2672 10.7955 78.5361 11.2727 78.7255 11.8295C78.9149 12.3826 79.0096 13 79.0096 13.6818C79.0096 14.3561 78.9149 14.9697 78.7255 15.5227C78.5361 16.0758 78.2672 16.5511 77.9187 16.9489C77.5702 17.3428 77.1535 17.6477 76.6687 17.8636C76.1838 18.0758 75.646 18.1818 75.055 18.1818ZM75.055 16.9773C75.5058 16.9773 75.8941 16.8902 76.2198 16.7159C76.5494 16.5379 76.8202 16.2955 77.0323 15.9886C77.2482 15.678 77.4073 15.3258 77.5096 14.9318C77.6156 14.5341 77.6687 14.1174 77.6687 13.6818C77.6687 13.0985 77.5759 12.5549 77.3903 12.0511C77.2047 11.5473 76.9187 11.1402 76.5323 10.8295C76.146 10.5189 75.6535 10.3636 75.055 10.3636H74.8278V16.9773H75.055ZM84.6048 18.1818C83.8169 18.1818 83.1256 17.9943 82.5309 17.6193C81.94 17.2443 81.4779 16.7197 81.1445 16.0455C80.815 15.3712 80.6502 14.5833 80.6502 13.6818C80.6502 12.7727 80.815 11.9792 81.1445 11.3011C81.4779 10.6231 81.94 10.0966 82.5309 9.72159C83.1256 9.34659 83.8169 9.15909 84.6048 9.15909C85.3926 9.15909 86.082 9.34659 86.6729 9.72159C87.2676 10.0966 87.7298 10.6231 88.0593 11.3011C88.3926 11.9792 88.5593 12.7727 88.5593 13.6818C88.5593 14.5833 88.3926 15.3712 88.0593 16.0455C87.7298 16.7197 87.2676 17.2443 86.6729 17.6193C86.082 17.9943 85.3926 18.1818 84.6048 18.1818ZM84.6048 16.9773C85.2032 16.9773 85.6957 16.8239 86.082 16.517C86.4684 16.2102 86.7544 15.8068 86.94 15.3068C87.1256 14.8068 87.2184 14.2652 87.2184 13.6818C87.2184 13.0985 87.1256 12.5549 86.94 12.0511C86.7544 11.5473 86.4684 11.1402 86.082 10.8295C85.6957 10.5189 85.2032 10.3636 84.6048 10.3636C84.0063 10.3636 83.5138 10.5189 83.1275 10.8295C82.7411 11.1402 82.4551 11.5473 82.2695 12.0511C82.0839 12.5549 81.9911 13.0985 81.9911 13.6818C81.9911 14.2652 82.0839 14.8068 82.2695 15.3068C82.4551 15.8068 82.7411 16.2102 83.1275 16.517C83.5138 16.8239 84.0063 16.9773 84.6048 16.9773ZM96.4471 13.0227V14.2727H91.6289V13.0227H96.4471ZM91.9471 9.27273V18H90.6062V9.27273H91.9471ZM97.4698 9.27273V18H96.1289V9.27273H97.4698ZM100.896 18.0909C100.616 18.0909 100.375 17.9905 100.174 17.7898C99.9736 17.589 99.8732 17.3485 99.8732 17.0682C99.8732 16.7879 99.9736 16.5473 100.174 16.3466C100.375 16.1458 100.616 16.0455 100.896 16.0455C101.176 16.0455 101.417 16.1458 101.618 16.3466C101.818 16.5473 101.919 16.7879 101.919 17.0682C101.919 17.2538 101.871 17.4242 101.777 17.5795C101.686 17.7348 101.563 17.8598 101.407 17.9545C101.256 18.0455 101.085 18.0909 100.896 18.0909ZM100.896 11.6136C100.616 11.6136 100.375 11.5133 100.174 11.3125C99.9736 11.1117 99.8732 10.8712 99.8732 10.5909C99.8732 10.3106 99.9736 10.0701 100.174 9.86932C100.375 9.66856 100.616 9.56818 100.896 9.56818C101.176 9.56818 101.417 9.66856 101.618 9.86932C101.818 10.0701 101.919 10.3106 101.919 10.5909C101.919 10.7765 101.871 10.947 101.777 11.1023C101.686 11.2576 101.563 11.3826 101.407 11.4773C101.256 11.5682 101.085 11.6136 100.896 11.6136Z" fill="#5F5F5F"/>
<path d="M112.768 18.1591C111.923 18.1591 111.173 18.017 110.518 17.733C109.867 17.4489 109.355 17.0606 108.984 16.5682C108.617 16.072 108.435 15.5095 108.439 14.8807C108.435 14.392 108.541 13.9432 108.757 13.5341C108.973 13.125 109.264 12.7841 109.632 12.5114C110.003 12.2348 110.416 12.0587 110.87 11.983V11.9034C110.272 11.7708 109.787 11.4659 109.416 10.9886C109.048 10.5076 108.867 9.95265 108.87 9.32386C108.867 8.72538 109.033 8.19129 109.37 7.72159C109.708 7.25189 110.17 6.88258 110.757 6.61364C111.344 6.34091 112.014 6.20455 112.768 6.20455C113.514 6.20455 114.179 6.34091 114.762 6.61364C115.35 6.88258 115.812 7.25189 116.149 7.72159C116.49 8.19129 116.66 8.72538 116.66 9.32386C116.66 9.95265 116.473 10.5076 116.098 10.9886C115.726 11.4659 115.247 11.7708 114.66 11.9034V11.983C115.115 12.0587 115.524 12.2348 115.887 12.5114C116.255 12.7841 116.547 13.125 116.762 13.5341C116.982 13.9432 117.092 14.392 117.092 14.8807C117.092 15.5095 116.906 16.072 116.535 16.5682C116.164 17.0606 115.653 17.4489 115.001 17.733C114.353 18.017 113.609 18.1591 112.768 18.1591ZM112.768 16.5341C113.204 16.5341 113.583 16.4602 113.904 16.3125C114.226 16.161 114.476 15.9489 114.654 15.6761C114.833 15.4034 114.923 15.089 114.927 14.733C114.923 14.3617 114.827 14.0341 114.637 13.75C114.452 13.4621 114.196 13.2367 113.87 13.0739C113.548 12.911 113.181 12.8295 112.768 12.8295C112.351 12.8295 111.98 12.911 111.654 13.0739C111.329 13.2367 111.071 13.4621 110.882 13.75C110.696 14.0341 110.605 14.3617 110.609 14.733C110.605 15.089 110.692 15.4034 110.87 15.6761C111.048 15.9451 111.298 16.1553 111.62 16.3068C111.946 16.4583 112.329 16.5341 112.768 16.5341ZM112.768 11.233C113.124 11.233 113.439 11.161 113.711 11.017C113.988 10.8731 114.206 10.6723 114.365 10.4148C114.524 10.1572 114.605 9.85985 114.609 9.52273C114.605 9.18939 114.526 8.89773 114.37 8.64773C114.215 8.39394 113.999 8.19886 113.723 8.0625C113.446 7.92235 113.128 7.85227 112.768 7.85227C112.401 7.85227 112.077 7.92235 111.797 8.0625C111.52 8.19886 111.304 8.39394 111.149 8.64773C110.997 8.89773 110.923 9.18939 110.927 9.52273C110.923 9.85985 110.999 10.1572 111.154 10.4148C111.314 10.6686 111.531 10.8693 111.808 11.017C112.088 11.161 112.408 11.233 112.768 11.233ZM123.463 12.1818C123.463 10.7614 123.65 9.45644 124.025 8.26705C124.404 7.07386 124.967 5.97159 125.713 4.96023H127.65C127.362 5.33523 127.093 5.79545 126.843 6.34091C126.593 6.88258 126.376 7.47727 126.19 8.125C126.008 8.76894 125.864 9.4375 125.758 10.1307C125.656 10.8239 125.605 11.5076 125.605 12.1818C125.605 13.0795 125.694 13.9886 125.872 14.9091C126.054 15.8295 126.298 16.6837 126.605 17.4716C126.915 18.2557 127.264 18.8977 127.65 19.3977H125.713C124.967 18.3864 124.404 17.286 124.025 16.0966C123.65 14.9034 123.463 13.5985 123.463 12.1818ZM129.015 15.8409V14.1648L133.953 6.36364H135.35V8.75H134.498L131.174 14.017V14.108H138.066V15.8409H129.015ZM134.566 18V15.3295L134.589 14.5795V6.36364H136.578V18H134.566ZM143.922 6.20455C144.478 6.20833 145.02 6.30682 145.547 6.5C146.077 6.68939 146.554 7 146.978 7.43182C147.403 7.85985 147.74 8.43371 147.99 9.15341C148.24 9.87311 148.365 10.7633 148.365 11.8239C148.368 12.8239 148.262 13.7178 148.047 14.5057C147.834 15.2898 147.529 15.9527 147.132 16.4943C146.734 17.036 146.255 17.4489 145.694 17.733C145.134 18.017 144.503 18.1591 143.802 18.1591C143.067 18.1591 142.416 18.0152 141.848 17.7273C141.283 17.4394 140.827 17.0455 140.478 16.5455C140.13 16.0455 139.916 15.4735 139.836 14.8295H141.91C142.016 15.2917 142.232 15.6591 142.558 15.9318C142.887 16.2008 143.302 16.3352 143.802 16.3352C144.609 16.3352 145.23 15.9848 145.666 15.2841C146.101 14.5833 146.319 13.6098 146.319 12.3636H146.24C146.054 12.697 145.814 12.9848 145.518 13.2273C145.223 13.4659 144.887 13.6496 144.512 13.7784C144.141 13.9072 143.747 13.9716 143.331 13.9716C142.649 13.9716 142.035 13.8087 141.49 13.483C140.948 13.1572 140.518 12.7102 140.2 12.142C139.886 11.5739 139.726 10.9242 139.723 10.1932C139.723 9.43561 139.897 8.75568 140.245 8.15341C140.598 7.54735 141.088 7.07008 141.717 6.72159C142.346 6.36932 143.081 6.19697 143.922 6.20455ZM143.927 7.90909C143.518 7.90909 143.149 8.00947 142.819 8.21023C142.493 8.4072 142.236 8.67614 142.047 9.01705C141.861 9.35417 141.768 9.73106 141.768 10.1477C141.772 10.5606 141.865 10.9356 142.047 11.2727C142.232 11.6098 142.484 11.8769 142.802 12.0739C143.124 12.2708 143.492 12.3693 143.904 12.3693C144.211 12.3693 144.497 12.3106 144.762 12.1932C145.028 12.0758 145.259 11.9129 145.456 11.7045C145.656 11.4924 145.812 11.2519 145.922 10.983C146.035 10.714 146.09 10.4299 146.086 10.1307C146.086 9.73295 145.992 9.36553 145.802 9.02841C145.617 8.69129 145.361 8.42045 145.035 8.21591C144.713 8.01136 144.344 7.90909 143.927 7.90909ZM154.302 18.1591C153.545 18.1591 152.867 18.017 152.268 17.733C151.67 17.4451 151.194 17.0511 150.842 16.5511C150.493 16.0511 150.308 15.4792 150.285 14.8352H152.331C152.368 15.3125 152.575 15.7027 152.95 16.0057C153.325 16.3049 153.776 16.4545 154.302 16.4545C154.715 16.4545 155.083 16.3598 155.404 16.1705C155.726 15.9811 155.98 15.7178 156.166 15.3807C156.351 15.0436 156.442 14.6591 156.439 14.2273C156.442 13.7879 156.35 13.3977 156.16 13.0568C155.971 12.7159 155.711 12.4489 155.382 12.2557C155.052 12.0587 154.673 11.9602 154.245 11.9602C153.897 11.9564 153.554 12.0208 153.217 12.1534C152.88 12.286 152.613 12.4602 152.416 12.6761L150.512 12.3636L151.12 6.36364H157.87V8.125H152.865L152.529 11.2102H152.598C152.814 10.9564 153.118 10.7462 153.512 10.5795C153.906 10.4091 154.338 10.3239 154.808 10.3239C155.512 10.3239 156.141 10.4905 156.694 10.8239C157.247 11.1534 157.683 11.608 158.001 12.1875C158.319 12.767 158.478 13.4299 158.478 14.1761C158.478 14.9451 158.3 15.6307 157.944 16.233C157.592 16.8314 157.101 17.303 156.473 17.6477C155.848 17.9886 155.124 18.1591 154.302 18.1591ZM164.075 12.1818C164.075 13.5985 163.886 14.9034 163.507 16.0966C163.132 17.286 162.571 18.3864 161.825 19.3977H159.887C160.179 19.0227 160.448 18.5644 160.694 18.0227C160.944 17.4811 161.16 16.8864 161.342 16.2386C161.528 15.5909 161.672 14.9205 161.774 14.2273C161.88 13.5341 161.933 12.8523 161.933 12.1818C161.933 11.2841 161.842 10.375 161.66 9.45455C161.482 8.53409 161.238 7.67992 160.927 6.89205C160.62 6.10417 160.274 5.46023 159.887 4.96023H161.825C162.571 5.97159 163.132 7.07386 163.507 8.26705C163.886 9.45644 164.075 10.7614 164.075 12.1818ZM175.38 6.36364V18H173.272V8.41477H173.204L170.483 10.1534V8.22159L173.375 6.36364H175.38ZM182.375 6.20455C182.931 6.20833 183.473 6.30682 184 6.5C184.53 6.68939 185.007 7 185.431 7.43182C185.856 7.85985 186.193 8.43371 186.443 9.15341C186.693 9.87311 186.818 10.7633 186.818 11.8239C186.822 12.8239 186.716 13.7178 186.5 14.5057C186.288 15.2898 185.983 15.9527 185.585 16.4943C185.187 17.036 184.708 17.4489 184.147 17.733C183.587 18.017 182.956 18.1591 182.255 18.1591C181.52 18.1591 180.869 18.0152 180.301 17.7273C179.736 17.4394 179.28 17.0455 178.931 16.5455C178.583 16.0455 178.369 15.4735 178.289 14.8295H180.363C180.469 15.2917 180.685 15.6591 181.011 15.9318C181.341 16.2008 181.755 16.3352 182.255 16.3352C183.062 16.3352 183.683 15.9848 184.119 15.2841C184.555 14.5833 184.772 13.6098 184.772 12.3636H184.693C184.507 12.697 184.267 12.9848 183.971 13.2273C183.676 13.4659 183.341 13.6496 182.966 13.7784C182.594 13.9072 182.2 13.9716 181.784 13.9716C181.102 13.9716 180.488 13.8087 179.943 13.483C179.401 13.1572 178.971 12.7102 178.653 12.142C178.339 11.5739 178.18 10.9242 178.176 10.1932C178.176 9.43561 178.35 8.75568 178.699 8.15341C179.051 7.54735 179.541 7.07008 180.17 6.72159C180.799 6.36932 181.534 6.19697 182.375 6.20455ZM182.38 7.90909C181.971 7.90909 181.602 8.00947 181.272 8.21023C180.947 8.4072 180.689 8.67614 180.5 9.01705C180.314 9.35417 180.221 9.73106 180.221 10.1477C180.225 10.5606 180.318 10.9356 180.5 11.2727C180.685 11.6098 180.937 11.8769 181.255 12.0739C181.577 12.2708 181.945 12.3693 182.358 12.3693C182.664 12.3693 182.95 12.3106 183.216 12.1932C183.481 12.0758 183.712 11.9129 183.909 11.7045C184.109 11.4924 184.265 11.2519 184.375 10.983C184.488 10.714 184.543 10.4299 184.539 10.1307C184.539 9.73295 184.445 9.36553 184.255 9.02841C184.07 8.69129 183.814 8.42045 183.488 8.21591C183.166 8.01136 182.797 7.90909 182.38 7.90909ZM193.443 6.36364V18H191.335V8.41477H191.267L188.545 10.1534V8.22159L191.437 6.36364H193.443ZM200.443 18.1591C199.685 18.1591 199.007 18.017 198.409 17.733C197.81 17.4451 197.335 17.0511 196.983 16.5511C196.634 16.0511 196.449 15.4792 196.426 14.8352H198.471C198.509 15.3125 198.716 15.7027 199.091 16.0057C199.466 16.3049 199.916 16.4545 200.443 16.4545C200.856 16.4545 201.223 16.3598 201.545 16.1705C201.867 15.9811 202.121 15.7178 202.306 15.3807C202.492 15.0436 202.583 14.6591 202.579 14.2273C202.583 13.7879 202.49 13.3977 202.301 13.0568C202.111 12.7159 201.852 12.4489 201.522 12.2557C201.193 12.0587 200.814 11.9602 200.386 11.9602C200.038 11.9564 199.695 12.0208 199.358 12.1534C199.02 12.286 198.753 12.4602 198.556 12.6761L196.653 12.3636L197.261 6.36364H204.011V8.125H199.005L198.67 11.2102H198.738C198.954 10.9564 199.259 10.7462 199.653 10.5795C200.047 10.4091 200.479 10.3239 200.949 10.3239C201.653 10.3239 202.282 10.4905 202.835 10.8239C203.388 11.1534 203.824 11.608 204.142 12.1875C204.46 12.767 204.619 13.4299 204.619 14.1761C204.619 14.9451 204.441 15.6307 204.085 16.233C203.733 16.8314 203.242 17.303 202.613 17.6477C201.988 17.9886 201.265 18.1591 200.443 18.1591ZM210.824 18.2216C209.888 18.2216 209.085 17.9848 208.414 17.5114C207.748 17.0341 207.234 16.3466 206.875 15.4489C206.519 14.5473 206.341 13.4621 206.341 12.1932C206.344 10.9242 206.524 9.8447 206.88 8.95455C207.24 8.06061 207.753 7.37879 208.42 6.90909C209.091 6.43939 209.892 6.20455 210.824 6.20455C211.755 6.20455 212.556 6.43939 213.227 6.90909C213.897 7.37879 214.411 8.06061 214.767 8.95455C215.127 9.84848 215.306 10.928 215.306 12.1932C215.306 13.4659 215.127 14.553 214.767 15.4545C214.411 16.3523 213.897 17.0379 213.227 17.5114C212.56 17.9848 211.759 18.2216 210.824 18.2216ZM210.824 16.4432C211.551 16.4432 212.125 16.0852 212.545 15.3693C212.969 14.6496 213.181 13.5909 213.181 12.1932C213.181 11.2689 213.085 10.4924 212.892 9.86364C212.699 9.23485 212.426 8.76136 212.074 8.44318C211.721 8.12121 211.305 7.96023 210.824 7.96023C210.1 7.96023 209.528 8.32008 209.108 9.03977C208.687 9.75568 208.475 10.8068 208.471 12.1932C208.467 13.1212 208.56 13.9015 208.75 14.5341C208.943 15.1667 209.216 15.6439 209.568 15.9659C209.92 16.2841 210.339 16.4432 210.824 16.4432ZM221.927 6.36364V18H219.819V8.41477H219.751L217.029 10.1534V8.22159L219.922 6.36364H221.927ZM229.143 18.1591C228.586 18.1553 228.043 18.0587 227.512 17.8693C226.982 17.6761 226.505 17.3636 226.081 16.9318C225.656 16.4962 225.319 15.9186 225.069 15.1989C224.819 14.4754 224.696 13.5795 224.7 12.5114C224.7 11.5152 224.806 10.6269 225.018 9.84659C225.23 9.06629 225.535 8.4072 225.933 7.86932C226.331 7.32765 226.81 6.91477 227.37 6.63068C227.935 6.34659 228.565 6.20455 229.262 6.20455C229.993 6.20455 230.641 6.34848 231.206 6.63636C231.774 6.92424 232.232 7.31818 232.581 7.81818C232.929 8.31439 233.145 8.875 233.228 9.5H231.154C231.048 9.05303 230.831 8.69697 230.501 8.43182C230.175 8.16288 229.762 8.02841 229.262 8.02841C228.456 8.02841 227.834 8.37879 227.399 9.07955C226.967 9.7803 226.749 10.7424 226.745 11.9659H226.825C227.011 11.6326 227.251 11.3466 227.547 11.108C227.842 10.8693 228.175 10.6856 228.547 10.5568C228.922 10.4242 229.317 10.358 229.734 10.358C230.416 10.358 231.028 10.5208 231.569 10.8466C232.115 11.1723 232.547 11.6212 232.865 12.1932C233.183 12.7614 233.34 13.4129 233.336 14.1477C233.34 14.9129 233.166 15.6004 232.814 16.2102C232.461 16.8163 231.971 17.2936 231.342 17.642C230.713 17.9905 229.98 18.1629 229.143 18.1591ZM229.132 16.4545C229.545 16.4545 229.914 16.3542 230.24 16.1534C230.565 15.9527 230.823 15.6818 231.012 15.3409C231.202 15 231.295 14.6174 231.291 14.1932C231.295 13.7765 231.204 13.3996 231.018 13.0625C230.836 12.7254 230.584 12.4583 230.262 12.2614C229.94 12.0644 229.573 11.9659 229.16 11.9659C228.853 11.9659 228.567 12.0246 228.302 12.142C228.037 12.2595 227.806 12.4223 227.609 12.6307C227.412 12.8352 227.257 13.0739 227.143 13.3466C227.033 13.6155 226.976 13.9034 226.973 14.2102C226.976 14.6155 227.071 14.9886 227.257 15.3295C227.442 15.6705 227.698 15.9432 228.024 16.1477C228.35 16.3523 228.719 16.4545 229.132 16.4545Z" fill="black"/>
</svg>
